<?xml version="1.0" encoding="utf-8"?>
<svg xmlns="http://www.w3.org/2000/svg" xmlns:xlink="http://www.w3.org/1999/xlink" width="600" height="400" viewBox="0 0 2400 1600">
<defs>
  <clipPath id="clip920">
    <rect x="0" y="0" width="2400" height="1600"/>
  </clipPath>
</defs>
<path clip-path="url(#clip920)" d="M0 1600 L2400 1600 L2400 0 L0 0  Z" fill="#ffffff" fill-rule="evenodd" fill-opacity="1"/>
<defs>
  <clipPath id="clip921">
    <rect x="480" y="0" width="1681" height="1600"/>
  </clipPath>
</defs>
<defs>
  <clipPath id="clip922">
    <rect x="205" y="47" width="1551" height="1355"/>
  </clipPath>
</defs>
<path clip-path="url(#clip920)" d="M205.121 1401.22 L1712.81 1401.22 L1712.81 47.2441 L205.121 47.2441  Z" fill="#ffffff" fill-rule="evenodd" fill-opacity="1"/>
<defs>
  <clipPath id="clip923">
    <rect x="205" y="47" width="1509" height="1355"/>
  </clipPath>
</defs>
<polyline clip-path="url(#clip920)" style="stroke:#000000; stroke-linecap:round; stroke-linejoin:round; stroke-width:4; stroke-opacity:1; fill:none" points="205.121,1401.22 1712.81,1401.22 "/>
<polyline clip-path="url(#clip920)" style="stroke:#000000; stroke-linecap:round; stroke-linejoin:round; stroke-width:4; stroke-opacity:1; fill:none" points="205.121,1401.22 205.121,1382.32 "/>
<polyline clip-path="url(#clip920)" style="stroke:#000000; stroke-linecap:round; stroke-linejoin:round; stroke-width:4; stroke-opacity:1; fill:none" points="582.043,1401.22 582.043,1382.32 "/>
<polyline clip-path="url(#clip920)" style="stroke:#000000; stroke-linecap:round; stroke-linejoin:round; stroke-width:4; stroke-opacity:1; fill:none" points="958.964,1401.22 958.964,1382.32 "/>
<polyline clip-path="url(#clip920)" style="stroke:#000000; stroke-linecap:round; stroke-linejoin:round; stroke-width:4; stroke-opacity:1; fill:none" points="1335.89,1401.22 1335.89,1382.32 "/>
<polyline clip-path="url(#clip920)" style="stroke:#000000; stroke-linecap:round; stroke-linejoin:round; stroke-width:4; stroke-opacity:1; fill:none" points="1712.81,1401.22 1712.81,1382.32 "/>
<path clip-path="url(#clip920)" d="M205.121 1432.13 Q201.51 1432.13 199.681 1435.7 Q197.876 1439.24 197.876 1446.37 Q197.876 1453.48 199.681 1457.04 Q201.51 1460.58 205.121 1460.58 Q208.755 1460.58 210.561 1457.04 Q212.389 1453.48 212.389 1446.37 Q212.389 1439.24 210.561 1435.7 Q208.755 1432.13 205.121 1432.13 M205.121 1428.43 Q210.931 1428.43 213.987 1433.04 Q217.065 1437.62 217.065 1446.37 Q217.065 1455.1 213.987 1459.7 Q210.931 1464.29 205.121 1464.29 Q199.311 1464.29 196.232 1459.7 Q193.177 1455.1 193.177 1446.37 Q193.177 1437.62 196.232 1433.04 Q199.311 1428.43 205.121 1428.43 Z" fill="#000000" fill-rule="nonzero" fill-opacity="1" /><path clip-path="url(#clip920)" d="M572.425 1459.68 L580.063 1459.68 L580.063 1433.31 L571.753 1434.98 L571.753 1430.72 L580.017 1429.06 L584.693 1429.06 L584.693 1459.68 L592.332 1459.68 L592.332 1463.62 L572.425 1463.62 L572.425 1459.68 Z" fill="#000000" fill-rule="nonzero" fill-opacity="1" /><path clip-path="url(#clip920)" d="M953.617 1459.68 L969.936 1459.68 L969.936 1463.62 L947.992 1463.62 L947.992 1459.68 Q950.654 1456.93 955.237 1452.3 Q959.844 1447.64 961.024 1446.3 Q963.27 1443.78 964.149 1442.04 Q965.052 1440.28 965.052 1438.59 Q965.052 1435.84 963.108 1434.1 Q961.186 1432.37 958.085 1432.37 Q955.886 1432.37 953.432 1433.13 Q951.001 1433.89 948.224 1435.44 L948.224 1430.72 Q951.048 1429.59 953.501 1429.01 Q955.955 1428.43 957.992 1428.43 Q963.362 1428.43 966.557 1431.12 Q969.751 1433.8 969.751 1438.29 Q969.751 1440.42 968.941 1442.34 Q968.154 1444.24 966.048 1446.83 Q965.469 1447.5 962.367 1450.72 Q959.265 1453.92 953.617 1459.68 Z" fill="#000000" fill-rule="nonzero" fill-opacity="1" /><path clip-path="url(#clip920)" d="M1340.13 1444.98 Q1343.49 1445.7 1345.37 1447.97 Q1347.26 1450.24 1347.26 1453.57 Q1347.26 1458.68 1343.74 1461.49 Q1340.23 1464.29 1333.74 1464.29 Q1331.57 1464.29 1329.25 1463.85 Q1326.96 1463.43 1324.51 1462.57 L1324.51 1458.06 Q1326.45 1459.19 1328.77 1459.77 Q1331.08 1460.35 1333.61 1460.35 Q1338 1460.35 1340.3 1458.62 Q1342.61 1456.88 1342.61 1453.57 Q1342.61 1450.51 1340.46 1448.8 Q1338.33 1447.06 1334.51 1447.06 L1330.48 1447.06 L1330.48 1443.22 L1334.69 1443.22 Q1338.14 1443.22 1339.97 1441.86 Q1341.8 1440.47 1341.8 1437.87 Q1341.8 1435.21 1339.9 1433.8 Q1338.03 1432.37 1334.51 1432.37 Q1332.59 1432.37 1330.39 1432.78 Q1328.19 1433.2 1325.55 1434.08 L1325.55 1429.91 Q1328.21 1429.17 1330.53 1428.8 Q1332.87 1428.43 1334.93 1428.43 Q1340.25 1428.43 1343.35 1430.86 Q1346.45 1433.27 1346.45 1437.39 Q1346.45 1440.26 1344.81 1442.25 Q1343.17 1444.22 1340.13 1444.98 Z" fill="#000000" fill-rule="nonzero" fill-opacity="1" /><path clip-path="url(#clip920)" d="M1715.82 1433.13 L1704.01 1451.58 L1715.82 1451.58 L1715.82 1433.13 M1714.59 1429.06 L1720.47 1429.06 L1720.47 1451.58 L1725.4 1451.58 L1725.4 1455.47 L1720.47 1455.47 L1720.47 1463.62 L1715.82 1463.62 L1715.82 1455.47 L1700.22 1455.47 L1700.22 1450.95 L1714.59 1429.06 Z" fill="#000000" fill-rule="nonzero" fill-opacity="1" /><path clip-path="url(#clip920)" d="M975.616 1498.07 Q974.778 1502.23 973.651 1504.61 Q971.815 1508.25 968.756 1508.25 Q966.63 1508.25 965.02 1507.06 Q963.442 1505.83 962.894 1503.8 Q962.282 1504.61 961.735 1505.16 Q961.22 1505.7 960.221 1506.54 Q959.223 1507.35 957.87 1507.8 Q956.55 1508.25 955.036 1508.25 Q953.877 1508.25 952.814 1508.02 Q951.751 1507.83 950.624 1507.28 Q949.529 1506.7 948.724 1505.83 Q947.951 1504.96 947.435 1503.55 Q946.92 1502.13 946.92 1500.33 Q946.92 1498.07 947.79 1495.01 Q948.691 1491.95 950.753 1486.48 Q951.88 1483.58 951.88 1481.97 Q951.88 1481.23 951.719 1480.74 Q951.558 1480.26 951.236 1480.1 Q950.946 1479.91 950.753 1479.87 Q950.559 1479.81 950.237 1479.81 Q948.241 1479.81 946.501 1481.84 Q944.762 1483.87 943.571 1487.99 Q943.313 1488.8 943.152 1488.99 Q942.991 1489.18 942.508 1489.18 Q941.703 1489.15 941.703 1488.51 Q941.703 1488.25 941.993 1487.25 Q942.283 1486.22 942.959 1484.71 Q943.667 1483.16 944.634 1481.77 Q945.6 1480.36 947.113 1479.36 Q948.659 1478.36 950.431 1478.36 Q952.846 1478.36 954.327 1479.94 Q955.841 1481.48 955.841 1483.77 Q955.841 1485.19 954.714 1487.93 Q951.139 1497.43 951.139 1501.39 Q951.139 1506.77 955.229 1506.77 Q956.582 1506.77 957.838 1506.22 Q959.126 1505.67 959.964 1504.9 Q960.801 1504.13 961.445 1503.29 Q962.121 1502.45 962.411 1501.9 Q962.733 1501.36 962.765 1501.23 L967.693 1481.39 Q967.886 1480.62 968.24 1480.1 Q968.627 1479.55 969.078 1479.36 Q969.529 1479.17 969.786 1479.13 Q970.044 1479.07 970.269 1479.07 Q971.075 1479.07 971.622 1479.55 Q972.202 1480.04 972.202 1480.87 Q972.202 1481.03 972.009 1481.81 Q971.847 1482.55 971.59 1483.64 Q971.332 1484.71 971.203 1485.29 Q970.173 1489.34 970.076 1489.76 L968.24 1496.88 Q968.144 1497.3 967.822 1498.65 Q967.532 1500 967.371 1500.71 Q967.21 1501.39 967.049 1502.32 Q966.92 1503.22 966.92 1503.74 Q966.92 1505.35 967.403 1506.06 Q967.886 1506.77 968.949 1506.77 Q969.947 1506.77 970.72 1506.09 Q971.525 1505.38 972.137 1504.03 Q972.749 1502.64 973.104 1501.52 Q973.458 1500.39 973.909 1498.62 Q974.07 1497.85 974.199 1497.65 Q974.36 1497.43 974.81 1497.43 Q975.616 1497.43 975.616 1498.07 Z" fill="#000000" fill-rule="nonzero" fill-opacity="1" /><path clip-path="url(#clip920)" d="M923.703 1525.84 L1001.27 1525.84 L1001.27 1522.32 L923.703 1522.32  Z" fill="#000000" fill-rule="evenodd" fill-opacity="1"/>
<path clip-path="url(#clip920)" d="M957.616 1559.36 Q956.778 1563.51 955.651 1565.9 Q953.815 1569.54 950.756 1569.54 Q948.63 1569.54 947.02 1568.35 Q945.442 1567.12 944.894 1565.09 Q944.282 1565.9 943.735 1566.45 Q943.22 1566.99 942.221 1567.83 Q941.223 1568.64 939.87 1569.09 Q938.55 1569.54 937.036 1569.54 Q935.877 1569.54 934.814 1569.31 Q933.751 1569.12 932.624 1568.57 Q931.529 1567.99 930.724 1567.12 Q929.951 1566.25 929.435 1564.84 Q928.92 1563.42 928.92 1561.61 Q928.92 1559.36 929.79 1556.3 Q930.691 1553.24 932.753 1547.77 Q933.88 1544.87 933.88 1543.26 Q933.88 1542.52 933.719 1542.03 Q933.558 1541.55 933.236 1541.39 Q932.946 1541.2 932.753 1541.16 Q932.559 1541.1 932.237 1541.1 Q930.241 1541.1 928.501 1543.13 Q926.762 1545.16 925.571 1549.28 Q925.313 1550.09 925.152 1550.28 Q924.991 1550.47 924.508 1550.47 Q923.703 1550.44 923.703 1549.8 Q923.703 1549.54 923.993 1548.54 Q924.283 1547.51 924.959 1545.99 Q925.667 1544.45 926.634 1543.06 Q927.6 1541.65 929.113 1540.65 Q930.659 1539.65 932.431 1539.65 Q934.846 1539.65 936.327 1541.23 Q937.841 1542.77 937.841 1545.06 Q937.841 1546.48 936.714 1549.22 Q933.139 1558.72 933.139 1562.68 Q933.139 1568.06 937.229 1568.06 Q938.582 1568.06 939.838 1567.51 Q941.126 1566.96 941.964 1566.19 Q942.801 1565.42 943.445 1564.58 Q944.121 1563.74 944.411 1563.19 Q944.733 1562.65 944.765 1562.52 L949.693 1542.68 Q949.886 1541.9 950.24 1541.39 Q950.627 1540.84 951.078 1540.65 Q951.529 1540.46 951.786 1540.42 Q952.044 1540.36 952.269 1540.36 Q953.075 1540.36 953.622 1540.84 Q954.202 1541.33 954.202 1542.16 Q954.202 1542.32 954.009 1543.1 Q953.847 1543.84 953.59 1544.93 Q953.332 1545.99 953.203 1546.57 Q952.173 1550.63 952.076 1551.05 L950.24 1558.17 Q950.144 1558.59 949.822 1559.94 Q949.532 1561.29 949.371 1562 Q949.21 1562.68 949.049 1563.61 Q948.92 1564.51 948.92 1565.03 Q948.92 1566.64 949.403 1567.35 Q949.886 1568.06 950.949 1568.06 Q951.947 1568.06 952.72 1567.38 Q953.525 1566.67 954.137 1565.32 Q954.749 1563.93 955.104 1562.81 Q955.458 1561.68 955.909 1559.91 Q956.07 1559.13 956.199 1558.94 Q956.36 1558.72 956.81 1558.72 Q957.616 1558.72 957.616 1559.36 Z" fill="#000000" fill-rule="nonzero" fill-opacity="1" /><path clip-path="url(#clip920)" d="M987.226 1568.72 Q987.316 1569.02 987.09 1569.11 L978.591 1573.35 L982.965 1581.75 Q983.1 1581.94 982.875 1582.16 Q982.649 1582.3 982.469 1582.12 L975.818 1575.37 L969.168 1582.12 Q968.988 1582.3 968.762 1582.16 Q968.537 1581.94 968.672 1581.75 L973.045 1573.35 L964.546 1569.11 Q964.321 1569.02 964.411 1568.72 Q964.479 1568.5 964.727 1568.5 L974.105 1570.08 L975.503 1560.7 Q975.593 1560.43 975.818 1560.43 Q976.044 1560.43 976.134 1560.7 L977.532 1570.08 L986.91 1568.5 Q987.158 1568.5 987.226 1568.72 Z" fill="#000000" fill-rule="nonzero" fill-opacity="1" /><polyline clip-path="url(#clip920)" style="stroke:#000000; stroke-linecap:round; stroke-linejoin:round; stroke-width:4; stroke-opacity:1; fill:none" points="205.121,1401.22 205.121,47.2441 "/>
<polyline clip-path="url(#clip920)" style="stroke:#000000; stroke-linecap:round; stroke-linejoin:round; stroke-width:4; stroke-opacity:1; fill:none" points="205.121,1401.22 218.388,1401.22 "/>
<polyline clip-path="url(#clip920)" style="stroke:#000000; stroke-linecap:round; stroke-linejoin:round; stroke-width:4; stroke-opacity:1; fill:none" points="205.121,1207.79 218.388,1207.79 "/>
<polyline clip-path="url(#clip920)" style="stroke:#000000; stroke-linecap:round; stroke-linejoin:round; stroke-width:4; stroke-opacity:1; fill:none" points="205.121,1014.37 218.388,1014.37 "/>
<polyline clip-path="url(#clip920)" style="stroke:#000000; stroke-linecap:round; stroke-linejoin:round; stroke-width:4; stroke-opacity:1; fill:none" points="205.121,820.942 218.388,820.942 "/>
<polyline clip-path="url(#clip920)" style="stroke:#000000; stroke-linecap:round; stroke-linejoin:round; stroke-width:4; stroke-opacity:1; fill:none" points="205.121,627.517 218.388,627.517 "/>
<polyline clip-path="url(#clip920)" style="stroke:#000000; stroke-linecap:round; stroke-linejoin:round; stroke-width:4; stroke-opacity:1; fill:none" points="205.121,434.093 218.388,434.093 "/>
<polyline clip-path="url(#clip920)" style="stroke:#000000; stroke-linecap:round; stroke-linejoin:round; stroke-width:4; stroke-opacity:1; fill:none" points="205.121,240.669 218.388,240.669 "/>
<polyline clip-path="url(#clip920)" style="stroke:#000000; stroke-linecap:round; stroke-linejoin:round; stroke-width:4; stroke-opacity:1; fill:none" points="205.121,47.2441 218.388,47.2441 "/>
<path clip-path="url(#clip920)" d="M118.82 1414.56 L126.459 1414.56 L126.459 1388.19 L118.149 1389.86 L118.149 1385.6 L126.413 1383.94 L131.089 1383.94 L131.089 1414.56 L138.728 1414.56 L138.728 1418.5 L118.82 1418.5 L118.82 1414.56 Z" fill="#000000" fill-rule="nonzero" fill-opacity="1" /><path clip-path="url(#clip920)" d="M148.218 1383.94 L166.575 1383.94 L166.575 1387.87 L152.501 1387.87 L152.501 1396.34 Q153.519 1396 154.538 1395.83 Q155.556 1395.65 156.575 1395.65 Q162.362 1395.65 165.741 1398.82 Q169.121 1401.99 169.121 1407.41 Q169.121 1412.99 165.649 1416.09 Q162.177 1419.17 155.857 1419.17 Q153.681 1419.17 151.413 1418.8 Q149.167 1418.43 146.76 1417.68 L146.76 1412.99 Q148.843 1414.12 151.066 1414.68 Q153.288 1415.23 155.765 1415.23 Q159.769 1415.23 162.107 1413.12 Q164.445 1411.02 164.445 1407.41 Q164.445 1403.8 162.107 1401.69 Q159.769 1399.58 155.765 1399.58 Q153.89 1399.58 152.015 1400 Q150.163 1400.42 148.218 1401.3 L148.218 1383.94 Z" fill="#000000" fill-rule="nonzero" fill-opacity="1" /><path clip-path="url(#clip920)" d="M121.043 1221.14 L137.362 1221.14 L137.362 1225.07 L115.418 1225.07 L115.418 1221.14 Q118.08 1218.38 122.663 1213.75 Q127.269 1209.1 128.45 1207.76 Q130.695 1205.23 131.575 1203.5 Q132.478 1201.74 132.478 1200.05 Q132.478 1197.29 130.533 1195.56 Q128.612 1193.82 125.51 1193.82 Q123.311 1193.82 120.857 1194.58 Q118.427 1195.35 115.649 1196.9 L115.649 1192.18 Q118.473 1191.04 120.927 1190.46 Q123.38 1189.89 125.418 1189.89 Q130.788 1189.89 133.982 1192.57 Q137.177 1195.26 137.177 1199.75 Q137.177 1201.88 136.367 1203.8 Q135.579 1205.7 133.473 1208.29 Q132.894 1208.96 129.792 1212.18 Q126.691 1215.37 121.043 1221.14 Z" fill="#000000" fill-rule="nonzero" fill-opacity="1" /><path clip-path="url(#clip920)" d="M157.177 1193.59 Q153.566 1193.59 151.737 1197.15 Q149.931 1200.7 149.931 1207.83 Q149.931 1214.93 151.737 1218.5 Q153.566 1222.04 157.177 1222.04 Q160.811 1222.04 162.616 1218.5 Q164.445 1214.93 164.445 1207.83 Q164.445 1200.7 162.616 1197.15 Q160.811 1193.59 157.177 1193.59 M157.177 1189.89 Q162.987 1189.89 166.042 1194.49 Q169.121 1199.08 169.121 1207.83 Q169.121 1216.55 166.042 1221.16 Q162.987 1225.74 157.177 1225.74 Q151.366 1225.74 148.288 1221.16 Q145.232 1216.55 145.232 1207.83 Q145.232 1199.08 148.288 1194.49 Q151.366 1189.89 157.177 1189.89 Z" fill="#000000" fill-rule="nonzero" fill-opacity="1" /><path clip-path="url(#clip920)" d="M122.038 1027.71 L138.357 1027.71 L138.357 1031.65 L116.413 1031.65 L116.413 1027.71 Q119.075 1024.96 123.658 1020.33 Q128.265 1015.67 129.445 1014.33 Q131.691 1011.81 132.57 1010.07 Q133.473 1008.31 133.473 1006.62 Q133.473 1003.87 131.529 1002.13 Q129.607 1000.4 126.505 1000.4 Q124.306 1000.4 121.853 1001.16 Q119.422 1001.92 116.644 1003.48 L116.644 998.753 Q119.468 997.619 121.922 997.04 Q124.376 996.461 126.413 996.461 Q131.783 996.461 134.978 999.146 Q138.172 1001.83 138.172 1006.32 Q138.172 1008.45 137.362 1010.37 Q136.575 1012.27 134.468 1014.86 Q133.89 1015.54 130.788 1018.75 Q127.686 1021.95 122.038 1027.71 Z" fill="#000000" fill-rule="nonzero" fill-opacity="1" /><path clip-path="url(#clip920)" d="M148.218 997.086 L166.575 997.086 L166.575 1001.02 L152.501 1001.02 L152.501 1009.49 Q153.519 1009.15 154.538 1008.98 Q155.556 1008.8 156.575 1008.8 Q162.362 1008.8 165.741 1011.97 Q169.121 1015.14 169.121 1020.56 Q169.121 1026.14 165.649 1029.24 Q162.177 1032.32 155.857 1032.32 Q153.681 1032.32 151.413 1031.95 Q149.167 1031.58 146.76 1030.84 L146.76 1026.14 Q148.843 1027.27 151.066 1027.83 Q153.288 1028.38 155.765 1028.38 Q159.769 1028.38 162.107 1026.28 Q164.445 1024.17 164.445 1020.56 Q164.445 1016.95 162.107 1014.84 Q159.769 1012.73 155.765 1012.73 Q153.89 1012.73 152.015 1013.15 Q150.163 1013.57 148.218 1014.45 L148.218 997.086 Z" fill="#000000" fill-rule="nonzero" fill-opacity="1" /><path clip-path="url(#clip920)" d="M131.181 819.588 Q134.538 820.305 136.413 822.574 Q138.311 824.842 138.311 828.176 Q138.311 833.291 134.792 836.092 Q131.274 838.893 124.793 838.893 Q122.617 838.893 120.302 838.453 Q118.01 838.037 115.556 837.18 L115.556 832.666 Q117.501 833.801 119.816 834.379 Q122.13 834.958 124.654 834.958 Q129.052 834.958 131.343 833.222 Q133.658 831.486 133.658 828.176 Q133.658 825.12 131.505 823.407 Q129.376 821.671 125.556 821.671 L121.529 821.671 L121.529 817.828 L125.742 817.828 Q129.191 817.828 131.019 816.463 Q132.848 815.074 132.848 812.481 Q132.848 809.819 130.95 808.407 Q129.075 806.972 125.556 806.972 Q123.635 806.972 121.436 807.389 Q119.237 807.805 116.598 808.685 L116.598 804.518 Q119.26 803.778 121.575 803.407 Q123.913 803.037 125.973 803.037 Q131.297 803.037 134.399 805.467 Q137.501 807.875 137.501 811.995 Q137.501 814.865 135.857 816.856 Q134.214 818.824 131.181 819.588 Z" fill="#000000" fill-rule="nonzero" fill-opacity="1" /><path clip-path="url(#clip920)" d="M157.177 806.74 Q153.566 806.74 151.737 810.305 Q149.931 813.847 149.931 820.977 Q149.931 828.083 151.737 831.648 Q153.566 835.189 157.177 835.189 Q160.811 835.189 162.616 831.648 Q164.445 828.083 164.445 820.977 Q164.445 813.847 162.616 810.305 Q160.811 806.74 157.177 806.74 M157.177 803.037 Q162.987 803.037 166.042 807.643 Q169.121 812.227 169.121 820.977 Q169.121 829.703 166.042 834.31 Q162.987 838.893 157.177 838.893 Q151.366 838.893 148.288 834.31 Q145.232 829.703 145.232 820.977 Q145.232 812.227 148.288 807.643 Q151.366 803.037 157.177 803.037 Z" fill="#000000" fill-rule="nonzero" fill-opacity="1" /><path clip-path="url(#clip920)" d="M132.177 626.163 Q135.533 626.881 137.408 629.149 Q139.306 631.418 139.306 634.751 Q139.306 639.867 135.788 642.668 Q132.269 645.469 125.788 645.469 Q123.612 645.469 121.297 645.029 Q119.006 644.612 116.552 643.756 L116.552 639.242 Q118.496 640.376 120.811 640.955 Q123.126 641.533 125.649 641.533 Q130.047 641.533 132.339 639.797 Q134.654 638.061 134.654 634.751 Q134.654 631.696 132.501 629.983 Q130.371 628.247 126.552 628.247 L122.524 628.247 L122.524 624.404 L126.737 624.404 Q130.186 624.404 132.015 623.038 Q133.843 621.649 133.843 619.057 Q133.843 616.395 131.945 614.983 Q130.07 613.548 126.552 613.548 Q124.63 613.548 122.431 613.964 Q120.232 614.381 117.593 615.26 L117.593 611.094 Q120.255 610.353 122.57 609.983 Q124.908 609.612 126.968 609.612 Q132.292 609.612 135.394 612.043 Q138.496 614.45 138.496 618.571 Q138.496 621.441 136.853 623.432 Q135.209 625.399 132.177 626.163 Z" fill="#000000" fill-rule="nonzero" fill-opacity="1" /><path clip-path="url(#clip920)" d="M148.218 610.237 L166.575 610.237 L166.575 614.173 L152.501 614.173 L152.501 622.645 Q153.519 622.297 154.538 622.135 Q155.556 621.95 156.575 621.95 Q162.362 621.95 165.741 625.122 Q169.121 628.293 169.121 633.709 Q169.121 639.288 165.649 642.39 Q162.177 645.469 155.857 645.469 Q153.681 645.469 151.413 645.098 Q149.167 644.728 146.76 643.987 L146.76 639.288 Q148.843 640.422 151.066 640.978 Q153.288 641.533 155.765 641.533 Q159.769 641.533 162.107 639.427 Q164.445 637.321 164.445 633.709 Q164.445 630.098 162.107 627.992 Q159.769 625.885 155.765 625.885 Q153.89 625.885 152.015 626.302 Q150.163 626.719 148.218 627.598 L148.218 610.237 Z" fill="#000000" fill-rule="nonzero" fill-opacity="1" /><path clip-path="url(#clip920)" d="M129.862 420.887 L118.056 439.336 L129.862 439.336 L129.862 420.887 M128.635 416.813 L134.515 416.813 L134.515 439.336 L139.445 439.336 L139.445 443.225 L134.515 443.225 L134.515 451.373 L129.862 451.373 L129.862 443.225 L114.26 443.225 L114.26 438.711 L128.635 416.813 Z" fill="#000000" fill-rule="nonzero" fill-opacity="1" /><path clip-path="url(#clip920)" d="M157.177 419.892 Q153.566 419.892 151.737 423.456 Q149.931 426.998 149.931 434.128 Q149.931 441.234 151.737 444.799 Q153.566 448.341 157.177 448.341 Q160.811 448.341 162.616 444.799 Q164.445 441.234 164.445 434.128 Q164.445 426.998 162.616 423.456 Q160.811 419.892 157.177 419.892 M157.177 416.188 Q162.987 416.188 166.042 420.794 Q169.121 425.378 169.121 434.128 Q169.121 442.854 166.042 447.461 Q162.987 452.044 157.177 452.044 Q151.366 452.044 148.288 447.461 Q145.232 442.854 145.232 434.128 Q145.232 425.378 148.288 420.794 Q151.366 416.188 157.177 416.188 Z" fill="#000000" fill-rule="nonzero" fill-opacity="1" /><path clip-path="url(#clip920)" d="M130.857 227.463 L119.052 245.912 L130.857 245.912 L130.857 227.463 M129.63 223.389 L135.51 223.389 L135.51 245.912 L140.441 245.912 L140.441 249.8 L135.51 249.8 L135.51 257.949 L130.857 257.949 L130.857 249.8 L115.256 249.8 L115.256 245.287 L129.63 223.389 Z" fill="#000000" fill-rule="nonzero" fill-opacity="1" /><path clip-path="url(#clip920)" d="M148.218 223.389 L166.575 223.389 L166.575 227.324 L152.501 227.324 L152.501 235.796 Q153.519 235.449 154.538 235.287 Q155.556 235.101 156.575 235.101 Q162.362 235.101 165.741 238.273 Q169.121 241.444 169.121 246.861 Q169.121 252.439 165.649 255.541 Q162.177 258.62 155.857 258.62 Q153.681 258.62 151.413 258.249 Q149.167 257.879 146.76 257.138 L146.76 252.439 Q148.843 253.574 151.066 254.129 Q153.288 254.685 155.765 254.685 Q159.769 254.685 162.107 252.578 Q164.445 250.472 164.445 246.861 Q164.445 243.25 162.107 241.143 Q159.769 239.037 155.765 239.037 Q153.89 239.037 152.015 239.453 Q150.163 239.87 148.218 240.75 L148.218 223.389 Z" fill="#000000" fill-rule="nonzero" fill-opacity="1" /><path clip-path="url(#clip920)" d="M117.061 29.9641 L135.417 29.9641 L135.417 33.8993 L121.343 33.8993 L121.343 42.3714 Q122.362 42.0242 123.38 41.8622 Q124.399 41.677 125.418 41.677 Q131.205 41.677 134.584 44.8483 Q137.964 48.0196 137.964 53.4362 Q137.964 59.0149 134.492 62.1167 Q131.019 65.1954 124.7 65.1954 Q122.524 65.1954 120.255 64.825 Q118.01 64.4547 115.603 63.7139 L115.603 59.0149 Q117.686 60.1491 119.908 60.7047 Q122.13 61.2602 124.607 61.2602 Q128.612 61.2602 130.95 59.1538 Q133.288 57.0473 133.288 53.4362 Q133.288 49.8251 130.95 47.7186 Q128.612 45.6122 124.607 45.6122 Q122.732 45.6122 120.857 46.0288 Q119.006 46.4455 117.061 47.3251 L117.061 29.9641 Z" fill="#000000" fill-rule="nonzero" fill-opacity="1" /><path clip-path="url(#clip920)" d="M157.177 33.0428 Q153.566 33.0428 151.737 36.6076 Q149.931 40.1492 149.931 47.2788 Q149.931 54.3853 151.737 57.9501 Q153.566 61.4917 157.177 61.4917 Q160.811 61.4917 162.616 57.9501 Q164.445 54.3853 164.445 47.2788 Q164.445 40.1492 162.616 36.6076 Q160.811 33.0428 157.177 33.0428 M157.177 29.3391 Q162.987 29.3391 166.042 33.9456 Q169.121 38.5289 169.121 47.2788 Q169.121 56.0056 166.042 60.6121 Q162.987 65.1954 157.177 65.1954 Q151.366 65.1954 148.288 60.6121 Q145.232 56.0056 145.232 47.2788 Q145.232 38.5289 148.288 33.9456 Q151.366 29.3391 157.177 29.3391 Z" fill="#000000" fill-rule="nonzero" fill-opacity="1" /><path clip-path="url(#clip920)" d="M35.3163 711.459 Q35.5417 711.459 36.5079 712.006 Q37.4419 712.521 39.7929 714.422 Q42.1439 716.322 44.8814 719.156 Q45.9442 720.219 47.4257 721.829 Q48.9072 723.439 49.8733 724.534 L50.8395 725.629 Q54.3822 729.816 58.3435 733.487 Q58.2469 733.23 58.2147 732.779 Q58.1502 732.328 58.1502 732.006 L58.1502 731.684 Q58.1502 730.009 59.2774 727.078 Q60.1148 724.502 60.1148 723.182 Q60.1148 721.893 59.6639 720.476 Q59.213 719.059 57.8926 717.513 Q56.5722 715.967 54.5754 715.259 Q54.2533 715.13 54.1567 715.066 Q54.0279 715.001 53.8991 714.808 Q53.738 714.615 53.738 714.357 Q53.738 714.003 53.9313 713.777 Q54.1245 713.552 54.3822 713.552 Q54.9619 713.552 56.1213 714.003 Q57.2807 714.422 58.7299 715.355 Q60.1792 716.257 61.4996 717.449 Q62.7879 718.608 63.6896 720.347 Q64.5592 722.087 64.5592 723.922 Q64.5592 725.243 63.9151 726.209 Q63.3032 727.175 62.1116 728.141 Q60.5979 729.462 60.1148 730.17 Q59.5995 730.879 59.5995 731.974 Q59.5995 734.904 63.6896 737.578 Q64.2694 737.867 64.3982 738.061 Q64.5592 738.222 64.5592 738.608 Q64.527 739.413 63.8829 739.413 Q63.6252 739.413 62.498 738.705 Q61.3386 737.964 59.3096 736.321 Q57.2807 734.647 55.2517 732.618 L49.7123 726.692 Q44.1729 720.122 41.0489 717.513 Q41.0489 718.608 41.0167 719.091 Q40.9845 719.542 40.7913 720.444 Q40.5658 721.346 40.0828 722.602 Q39.0844 725.533 39.0844 726.756 Q39.0844 727.078 39.1166 727.433 Q39.1488 727.787 39.3098 728.592 Q39.4708 729.365 39.7929 730.009 Q40.0828 730.653 40.7269 731.33 Q41.3388 732.006 42.1761 732.36 Q42.4338 732.457 42.5626 732.521 Q42.6914 732.586 42.8202 732.779 Q42.9169 732.94 42.9169 733.198 Q42.9169 733.584 42.6914 733.809 Q42.466 734.003 42.1761 734.003 Q41.5964 734.003 40.4048 733.423 Q39.2132 732.843 37.925 731.877 Q36.6045 730.911 35.6383 729.333 Q34.6722 727.755 34.6722 726.016 Q34.6722 724.985 35.123 724.115 Q35.5739 723.214 36.057 722.763 Q36.5079 722.28 37.5063 721.475 Q38.2792 720.798 38.6013 720.476 Q38.9233 720.154 39.2776 719.51 Q39.5997 718.834 39.5997 718.093 Q39.5997 716.869 38.6657 715.742 Q37.6995 714.615 35.3807 713.165 Q34.6722 712.779 34.6722 712.167 Q34.6722 711.459 35.3163 711.459 Z" fill="#000000" fill-rule="nonzero" fill-opacity="1" /><polyline clip-path="url(#clip923)" style="stroke:#009af9; stroke-linecap:round; stroke-linejoin:round; stroke-width:4; stroke-opacity:1; fill:none" points="-535.82,1242.61 70.3417,1230.04 289.35,1217.47 420.154,1204.9 511.675,1192.33 581.18,1179.76 636.716,1167.19 682.658,1154.63 721.639,1142.06 755.357,1129.49 784.969,1116.92 811.298,1104.35 834.947,1091.78 856.37,1079.21 875.919,1066.65 893.87,1054.08 910.444,1041.51 925.821,1028.94 940.146,1016.37 953.545,1003.8 966.118,991.233 977.953,978.664 989.126,966.096 999.699,953.527 1009.73,940.958 1019.26,928.389 1028.34,915.821 1037.01,903.252 1045.29,890.683 1053.22,878.115 1060.83,865.546 1068.13,852.977 1075.14,840.409 1081.9,827.84 1088.4,815.271 1094.68,802.702 1100.74,790.134 1106.6,777.565 1112.27,764.996 1117.76,752.428 1123.07,739.859 1128.23,727.29 1133.24,714.721 1138.09,702.153 1142.82,689.584 1147.41,677.015 1151.88,664.447 1156.23,651.878 1160.47,639.309 1164.6,626.741 1168.63,614.172 1172.56,601.603 1176.39,589.034 1180.14,576.466 1183.8,563.897 1187.37,551.328 1190.87,538.76 1194.29,526.191 1197.64,513.622 1200.92,501.054 1204.13,488.485 1207.27,475.916 1210.36,463.347 1213.38,450.779 1216.34,438.21 1219.24,425.641 1222.09,413.073 1224.89,400.504 1227.64,387.935 1230.33,375.366 1232.98,362.798 1235.58,350.229 1238.14,337.66 1240.66,325.092 1243.13,312.523 1245.56,299.954 1247.95,287.386 1250.3,274.817 1252.62,262.248 1254.89,249.679 1257.14,237.111 1259.34,224.542 1261.52,211.973 1263.66,199.405 1265.77,186.836 1267.85,174.267 1269.9,161.699 1271.92,149.13 1273.91,136.561 1275.88,123.992 1277.81,111.424 1279.72,98.855 1281.61,86.2863 1283.46,73.7176 1285.3,61.1489 1287.11,48.5802 1288.89,36.0115 1290.66,23.4428 1292.4,10.8741 1294.12,-1.69461 1295.82,-14.2633 1297.49,-26.832 1299.15,-39.4007 1300.79,-51.9694 1302.4,-64.5381 1304,-77.1068 1305.58,-89.6755 1307.14,-102.244 1308.68,-114.813 1310.21,-127.382 1311.72,-139.95 1313.21,-152.519 1314.68,-165.088 1316.14,-177.656 1317.58,-190.225 1319.01,-202.794 1320.42,-215.363 1321.81,-227.931 1323.19,-240.5 1324.56,-253.069 1325.91,-265.637 1327.25,-278.206 1328.58,-290.775 1329.89,-303.343 1331.19,-315.912 1332.47,-328.481 1333.74,-341.05 1335,-353.618 1336.25,-366.187 1337.49,-378.756 1338.71,-391.324 1339.92,-403.893 1341.12,-416.462 1342.31,-429.031 1343.49,-441.599 1344.66,-454.168 1345.82,-466.737 1346.96,-479.305 1348.1,-491.874 1349.23,-504.443 1350.34,-517.011 1351.45,-529.58 1352.54,-542.149 1353.63,-554.718 1354.71,-567.286 1355.77,-579.855 1356.83,-592.424 1357.88,-604.992 1358.92,-617.561 1359.96,-630.13 1360.98,-642.698 1362,-655.267 1363,-667.836 1364,-680.405 1364.99,-692.973 1365.97,-705.542 1366.95,-718.111 1367.92,-730.679 1368.88,-743.248 1369.83,-755.817 1370.77,-768.386 1371.71,-780.954 1372.64,-793.523 1373.56,-806.092 1374.48,-818.66 1375.39,-831.229 1376.29,-843.798 1377.18,-856.366 1378.07,-868.935 1378.95,-881.504 1379.83,-894.073 1380.7,-906.641 1381.56,-919.21 1382.42,-931.779 1383.27,-944.347 1384.11,-956.916 1384.95,-969.485 1385.79,-982.053 1386.61,-994.622 1387.43,-1007.19 1388.25,-1019.76 1389.06,-1032.33 1389.86,-1044.9 1390.66,-1057.47 1391.45,-1070.03 1392.24,-1082.6 1393.03,-1095.17 1393.8,-1107.74 1394.57,-1120.31 1395.34,-1132.88 1396.1,-1145.45 1396.86,-1158.02 1397.61,-1170.58 1398.36,-1183.15 1399.1,-1195.72 1399.84,-1208.29 1400.57,-1220.86 1401.3,-1233.43 1402.03,-1246 1402.75,-1258.56 1403.46,-1271.13 1404.17,-1283.7 1404.88,-1296.27 1405.58,-1308.84 1406.28,-1321.41 1406.97,-1333.98 1407.66,-1346.55 1408.34,-1359.11 1409.02,-1371.68 1409.7,-1384.25 1410.37,-1396.82 1411.04,-1409.39 1411.71,-1421.96 1412.37,-1434.53 1413.02,-1447.1 1413.68,-1459.66 1414.33,-1472.23 1414.97,-1484.8 1415.61,-1497.37 1416.25,-1509.94 1416.89,-1522.51 1417.52,-1535.08 1418.14,-1547.65 1418.77,-1560.21 1419.39,-1572.78 1420.01,-1585.35 1420.62,-1597.92 1421.23,-1610.49 1421.84,-1623.06 1422.44,-1635.63 1423.04,-1648.19 1423.64,-1660.76 1424.23,-1673.33 1424.82,-1685.9 1425.41,-1698.47 1425.99,-1711.04 1426.58,-1723.61 1427.15,-1736.18 1427.73,-1748.74 1428.3,-1761.31 1428.87,-1773.88 1429.44,-1786.45 1430,-1799.02 1430.56,-1811.59 1431.12,-1824.16 1431.67,-1836.73 1432.23,-1849.29 1432.77,-1861.86 1433.32,-1874.43 1433.86,-1887 "/>
<polyline clip-path="url(#clip923)" style="stroke:#e26f46; stroke-linecap:round; stroke-linejoin:round; stroke-width:4; stroke-opacity:1; fill:none" points="-383.919,1242.61 93.4256,1230.04 276.508,1217.47 390.219,1204.9 472.115,1192.33 535.727,1179.76 587.485,1167.19 630.946,1154.63 668.289,1142.06 700.938,1129.49 729.879,1116.92 755.821,1104.35 779.289,1091.78 800.684,1079.21 820.318,1066.65 838.44,1054.08 855.25,1041.51 870.91,1028.94 885.557,1016.37 899.305,1003.8 912.247,991.233 924.467,978.664 936.035,966.096 947.011,953.527 957.447,940.958 967.39,928.389 976.881,915.821 985.956,903.252 994.646,890.683 1002.98,878.115 1010.98,865.546 1018.68,852.977 1026.09,840.409 1033.23,827.84 1040.12,815.271 1046.78,802.702 1053.21,790.134 1059.44,777.565 1065.47,764.996 1071.31,752.428 1076.98,739.859 1082.48,727.29 1087.83,714.721 1093.02,702.153 1098.07,689.584 1102.99,677.015 1107.78,664.447 1112.44,651.878 1116.99,639.309 1121.43,626.741 1125.76,614.172 1129.98,601.603 1134.11,589.034 1138.14,576.466 1142.09,563.897 1145.94,551.328 1149.71,538.76 1153.41,526.191 1157.02,513.622 1160.56,501.054 1164.03,488.485 1167.43,475.916 1170.76,463.347 1174.03,450.779 1177.24,438.21 1180.38,425.641 1183.47,413.073 1186.5,400.504 1189.48,387.935 1192.41,375.366 1195.28,362.798 1198.1,350.229 1200.88,337.66 1203.61,325.092 1206.3,312.523 1208.94,299.954 1211.54,287.386 1214.1,274.817 1216.61,262.248 1219.09,249.679 1221.53,237.111 1223.94,224.542 1226.31,211.973 1228.64,199.405 1230.94,186.836 1233.21,174.267 1235.44,161.699 1237.64,149.13 1239.82,136.561 1241.96,123.992 1244.07,111.424 1246.16,98.855 1248.21,86.2863 1250.24,73.7176 1252.24,61.1489 1254.22,48.5802 1256.17,36.0115 1258.1,23.4428 1260,10.8741 1261.88,-1.69461 1263.74,-14.2633 1265.57,-26.832 1267.39,-39.4007 1269.18,-51.9694 1270.95,-64.5381 1272.69,-77.1068 1274.42,-89.6755 1276.13,-102.244 1277.82,-114.813 1279.49,-127.382 1281.14,-139.95 1282.77,-152.519 1284.39,-165.088 1285.99,-177.656 1287.57,-190.225 1289.13,-202.794 1290.68,-215.363 1292.21,-227.931 1293.72,-240.5 1295.22,-253.069 1296.7,-265.637 1298.17,-278.206 1299.62,-290.775 1301.06,-303.343 1302.49,-315.912 1303.9,-328.481 1305.3,-341.05 1306.68,-353.618 1308.05,-366.187 1309.41,-378.756 1310.75,-391.324 1312.08,-403.893 1313.4,-416.462 1314.71,-429.031 1316,-441.599 1317.28,-454.168 1318.56,-466.737 1319.81,-479.305 1321.06,-491.874 1322.3,-504.443 1323.53,-517.011 1324.74,-529.58 1325.95,-542.149 1327.14,-554.718 1328.33,-567.286 1329.5,-579.855 1330.67,-592.424 1331.82,-604.992 1332.97,-617.561 1334.1,-630.13 1335.23,-642.698 1336.35,-655.267 1337.45,-667.836 1338.55,-680.405 1339.64,-692.973 1340.73,-705.542 1341.8,-718.111 1342.86,-730.679 1343.92,-743.248 1344.97,-755.817 1346.01,-768.386 1347.04,-780.954 1348.06,-793.523 1349.08,-806.092 1350.09,-818.66 1351.09,-831.229 1352.08,-843.798 1353.07,-856.366 1354.05,-868.935 1355.02,-881.504 1355.99,-894.073 1356.94,-906.641 1357.89,-919.21 1358.84,-931.779 1359.78,-944.347 1360.71,-956.916 1361.63,-969.485 1362.55,-982.053 1363.46,-994.622 1364.37,-1007.19 1365.26,-1019.76 1366.16,-1032.33 1367.04,-1044.9 1367.92,-1057.47 1368.8,-1070.03 1369.67,-1082.6 1370.53,-1095.17 1371.39,-1107.74 1372.24,-1120.31 1373.09,-1132.88 1373.93,-1145.45 1374.76,-1158.02 1375.59,-1170.58 1376.42,-1183.15 1377.24,-1195.72 1378.05,-1208.29 1378.86,-1220.86 1379.66,-1233.43 1380.46,-1246 1381.26,-1258.56 1382.05,-1271.13 1382.83,-1283.7 1383.61,-1296.27 1384.38,-1308.84 1385.15,-1321.41 1385.92,-1333.98 1386.68,-1346.55 1387.44,-1359.11 1388.19,-1371.68 1388.93,-1384.25 1389.68,-1396.82 1390.42,-1409.39 1391.15,-1421.96 1391.88,-1434.53 1392.6,-1447.1 1393.33,-1459.66 1394.04,-1472.23 1394.76,-1484.8 1395.47,-1497.37 1396.17,-1509.94 1396.87,-1522.51 1397.57,-1535.08 1398.26,-1547.65 1398.95,-1560.21 1399.64,-1572.78 1400.32,-1585.35 1401,-1597.92 1401.67,-1610.49 1402.34,-1623.06 1403.01,-1635.63 1403.67,-1648.19 1404.33,-1660.76 1404.99,-1673.33 1405.64,-1685.9 1406.29,-1698.47 1406.94,-1711.04 1407.58,-1723.61 1408.22,-1736.18 1408.86,-1748.74 1409.49,-1761.31 1410.12,-1773.88 1410.74,-1786.45 1411.37,-1799.02 1411.99,-1811.59 1412.6,-1824.16 1413.22,-1836.73 1413.83,-1849.29 1414.43,-1861.86 1415.04,-1874.43 1415.64,-1887 "/>
<polyline clip-path="url(#clip923)" style="stroke:#3da44d; stroke-linecap:round; stroke-linejoin:round; stroke-width:4; stroke-opacity:1; fill:none" points="-229.444,1242.61 121.499,1230.04 259.097,1217.47 346.205,1204.9 410.044,1192.33 460.435,1179.76 502.052,1167.19 537.49,1154.63 568.339,1142.06 595.646,1129.49 620.135,1116.92 642.329,1104.35 662.617,1091.78 681.299,1079.21 698.606,1066.65 714.725,1054.08 729.807,1041.51 743.974,1028.94 757.331,1016.37 769.963,1003.8 781.944,991.233 793.336,978.664 804.193,966.096 814.563,953.527 824.486,940.958 833.999,928.389 843.133,915.821 851.917,903.252 860.376,890.683 868.533,878.115 876.407,865.546 884.018,852.977 891.381,840.409 898.513,827.84 905.426,815.271 912.134,802.702 918.647,790.134 924.977,777.565 931.133,764.996 937.125,752.428 942.96,739.859 948.646,727.29 954.19,714.721 959.6,702.153 964.88,689.584 970.038,677.015 975.078,664.447 980.005,651.878 984.825,639.309 989.541,626.741 994.158,614.172 998.679,601.603 1003.11,589.034 1007.45,576.466 1011.71,563.897 1015.88,551.328 1019.98,538.76 1024,526.191 1027.95,513.622 1031.82,501.054 1035.63,488.485 1039.37,475.916 1043.05,463.347 1046.67,450.779 1050.23,438.21 1053.72,425.641 1057.16,413.073 1060.55,400.504 1063.89,387.935 1067.17,375.366 1070.4,362.798 1073.58,350.229 1076.72,337.66 1079.81,325.092 1082.86,312.523 1085.86,299.954 1088.82,287.386 1091.74,274.817 1094.62,262.248 1097.46,249.679 1100.26,237.111 1103.03,224.542 1105.76,211.973 1108.45,199.405 1111.11,186.836 1113.74,174.267 1116.33,161.699 1118.89,149.13 1121.42,136.561 1123.92,123.992 1126.39,111.424 1128.83,98.855 1131.24,86.2863 1133.62,73.7176 1135.98,61.1489 1138.31,48.5802 1140.61,36.0115 1142.89,23.4428 1145.14,10.8741 1147.36,-1.69461 1149.57,-14.2633 1151.75,-26.832 1153.9,-39.4007 1156.04,-51.9694 1158.15,-64.5381 1160.24,-77.1068 1162.31,-89.6755 1164.35,-102.244 1166.38,-114.813 1168.39,-127.382 1170.37,-139.95 1172.34,-152.519 1174.29,-165.088 1176.22,-177.656 1178.13,-190.225 1180.02,-202.794 1181.89,-215.363 1183.75,-227.931 1185.59,-240.5 1187.41,-253.069 1189.22,-265.637 1191.01,-278.206 1192.78,-290.775 1194.54,-303.343 1196.28,-315.912 1198.01,-328.481 1199.72,-341.05 1201.42,-353.618 1203.1,-366.187 1204.77,-378.756 1206.43,-391.324 1208.07,-403.893 1209.7,-416.462 1211.31,-429.031 1212.91,-441.599 1214.5,-454.168 1216.07,-466.737 1217.63,-479.305 1219.18,-491.874 1220.72,-504.443 1222.25,-517.011 1223.76,-529.58 1225.26,-542.149 1226.75,-554.718 1228.23,-567.286 1229.7,-579.855 1231.15,-592.424 1232.6,-604.992 1234.03,-617.561 1235.45,-630.13 1236.87,-642.698 1238.27,-655.267 1239.66,-667.836 1241.05,-680.405 1242.42,-692.973 1243.78,-705.542 1245.13,-718.111 1246.48,-730.679 1247.81,-743.248 1249.14,-755.817 1250.45,-768.386 1251.76,-780.954 1253.06,-793.523 1254.34,-806.092 1255.62,-818.66 1256.9,-831.229 1258.16,-843.798 1259.41,-856.366 1260.66,-868.935 1261.9,-881.504 1263.13,-894.073 1264.35,-906.641 1265.56,-919.21 1266.77,-931.779 1267.97,-944.347 1269.16,-956.916 1270.34,-969.485 1271.51,-982.053 1272.68,-994.622 1273.84,-1007.19 1275,-1019.76 1276.14,-1032.33 1277.28,-1044.9 1278.42,-1057.47 1279.54,-1070.03 1280.66,-1082.6 1281.77,-1095.17 1282.88,-1107.74 1283.98,-1120.31 1285.07,-1132.88 1286.16,-1145.45 1287.24,-1158.02 1288.31,-1170.58 1289.38,-1183.15 1290.44,-1195.72 1291.49,-1208.29 1292.54,-1220.86 1293.58,-1233.43 1294.62,-1246 1295.65,-1258.56 1296.68,-1271.13 1297.69,-1283.7 1298.71,-1296.27 1299.72,-1308.84 1300.72,-1321.41 1301.72,-1333.98 1302.71,-1346.55 1303.69,-1359.11 1304.68,-1371.68 1305.65,-1384.25 1306.62,-1396.82 1307.59,-1409.39 1308.55,-1421.96 1309.5,-1434.53 1310.45,-1447.1 1311.4,-1459.66 1312.34,-1472.23 1313.27,-1484.8 1314.2,-1497.37 1315.13,-1509.94 1316.05,-1522.51 1316.96,-1535.08 1317.88,-1547.65 1318.78,-1560.21 1319.68,-1572.78 1320.58,-1585.35 1321.47,-1597.92 1322.36,-1610.49 1323.25,-1623.06 1324.13,-1635.63 1325,-1648.19 1325.87,-1660.76 1326.74,-1673.33 1327.6,-1685.9 1328.46,-1698.47 1329.32,-1711.04 1330.17,-1723.61 1331.01,-1736.18 1331.86,-1748.74 1332.69,-1761.31 1333.53,-1773.88 1334.36,-1786.45 1335.19,-1799.02 1336.01,-1811.59 1336.83,-1824.16 1337.64,-1836.73 1338.45,-1849.29 1339.26,-1861.86 1340.06,-1874.43 1340.86,-1887 "/>
<path clip-path="url(#clip920)" d="M1784.4 847.122 L2352.76 847.122 L2352.76 639.762 L1784.4 639.762  Z" fill="#ffffff" fill-rule="evenodd" fill-opacity="1"/>
<polyline clip-path="url(#clip920)" style="stroke:#000000; stroke-linecap:round; stroke-linejoin:round; stroke-width:4; stroke-opacity:1; fill:none" points="1784.4,847.122 2352.76,847.122 2352.76,639.762 1784.4,639.762 1784.4,847.122 "/>
<polyline clip-path="url(#clip920)" style="stroke:#009af9; stroke-linecap:round; stroke-linejoin:round; stroke-width:4; stroke-opacity:1; fill:none" points="1808.26,691.602 1951.43,691.602 "/>
<path clip-path="url(#clip920)" d="M2004.27 688.579 Q2004.27 688.719 2004.08 689.258 L2000.29 699.611 Q2000.08 700.22 1999.87 700.337 Q1999.66 700.43 1998.79 700.43 L1976.58 700.43 Q1976.05 700.43 1975.84 700.407 Q1975.62 700.384 1975.46 700.266 Q1975.3 700.149 1975.3 699.892 Q1975.3 699.423 1975.46 699.212 Q1975.65 699.002 1975.86 698.978 Q1976.07 698.955 1976.58 698.955 Q1977.76 698.955 1978.46 698.884 Q1979.16 698.814 1979.61 698.721 Q1980.07 698.603 1980.31 698.276 Q1980.57 697.948 1980.68 697.667 Q1980.8 697.362 1980.96 696.683 L1987.38 670.918 Q1987.57 670.145 1987.57 670.028 Q1987.57 669.583 1987.29 669.466 Q1987.03 669.325 1986.28 669.255 L1984.45 669.161 Q1983.89 669.161 1983.66 669.138 Q1983.45 669.115 1983.28 668.997 Q1983.12 668.88 1983.12 668.623 Q1983.12 668.178 1983.28 667.967 Q1983.47 667.733 1983.61 667.709 Q1983.78 667.662 1984.03 667.662 L1990.4 667.803 L1997.5 667.662 Q1998.27 667.662 1998.27 668.248 Q1998.27 668.904 1997.95 669.044 Q1997.62 669.161 1996.45 669.161 Q1994.2 669.161 1993.17 669.396 Q1992.16 669.63 1991.88 670.028 Q1991.62 670.403 1991.36 671.41 L1984.88 697.315 Q1984.64 698.182 1984.64 698.416 Q1984.64 698.674 1984.76 698.767 Q1984.9 698.838 1985.27 698.884 Q1985.7 698.955 1986.33 698.955 L1990.83 698.955 Q1992.18 698.955 1993.38 698.744 Q1994.57 698.533 1995.49 698.229 Q1996.42 697.924 1997.27 697.362 Q1998.11 696.8 1998.7 696.308 Q1999.3 695.793 1999.89 694.996 Q2000.5 694.177 2000.85 693.614 Q2001.22 693.029 2001.65 692.092 Q2002.07 691.132 2002.28 690.593 Q2002.51 690.031 2002.86 689.07 Q2003.08 688.579 2003.15 688.438 Q2003.22 688.298 2003.33 688.18 Q2003.47 688.063 2003.68 688.063 Q2003.97 688.063 2004.11 688.227 Q2004.27 688.391 2004.27 688.579 Z" fill="#000000" fill-rule="nonzero" fill-opacity="1" /><path clip-path="url(#clip920)" d="M2042.75 691.933 Q2042.75 692.409 2042.53 692.507 Q2042.34 692.606 2041.68 692.606 Q2040.91 692.606 2040.44 692.671 Q2039.96 692.72 2039.67 692.802 Q2039.37 692.868 2039.19 693.097 Q2039.03 693.327 2038.96 693.524 Q2038.89 693.704 2038.78 694.147 L2034.32 712.034 Q2034.16 712.641 2034.16 712.854 Q2034.16 713.067 2034.29 713.199 Q2034.44 713.33 2034.8 713.395 Q2035.16 713.444 2035.44 713.461 Q2035.73 713.461 2036.34 713.461 Q2037.09 713.461 2037.21 713.592 Q2037.27 713.674 2037.27 713.822 Q2037.27 714.133 2037.14 714.297 Q2037.01 714.445 2036.89 714.477 Q2036.8 714.494 2036.63 714.494 Q2035.94 714.494 2034.53 714.445 Q2033.12 714.395 2032.43 714.395 L2028.27 714.494 Q2027.78 714.494 2027.78 714.084 Q2027.78 713.772 2027.91 713.641 Q2028.04 713.494 2028.19 713.477 Q2028.34 713.461 2028.71 713.461 Q2030.06 713.461 2030.63 713.313 Q2031.22 713.166 2031.39 712.903 Q2031.57 712.625 2031.76 711.87 L2036.57 692.638 L2036.53 692.638 L2022.97 713.887 L2022.88 714.035 Q2022.78 714.166 2022.75 714.215 Q2022.71 714.248 2022.61 714.346 Q2022.53 714.428 2022.43 714.461 Q2022.35 714.494 2022.24 714.494 Q2022.04 714.494 2021.93 714.363 Q2021.83 714.231 2021.79 714.133 Q2021.78 714.018 2021.73 713.723 L2018.84 692.901 L2018.81 692.901 L2014.24 711.198 Q2014.1 711.707 2014.1 711.969 Q2014.1 712.641 2014.58 713.051 Q2015.07 713.444 2016.38 713.461 Q2016.99 713.461 2016.99 713.822 Q2016.99 714.494 2016.38 714.494 Q2015.83 714.494 2014.66 714.445 Q2013.5 714.395 2012.92 714.395 Q2012.37 714.395 2011.24 714.445 Q2010.12 714.494 2009.58 714.494 Q2009.1 714.494 2009.1 714.084 Q2009.1 713.461 2009.71 713.461 Q2010.69 713.428 2011.37 713.231 Q2012.04 713.035 2012.42 712.657 Q2012.81 712.28 2012.99 711.903 Q2013.19 711.51 2013.33 710.936 L2017.6 693.835 Q2017.73 693.294 2017.73 693.212 Q2017.73 692.933 2017.56 692.835 Q2017.42 692.72 2016.99 692.671 Q2016.17 692.606 2015.55 692.606 Q2015.14 692.606 2014.97 692.589 Q2014.83 692.573 2014.69 692.491 Q2014.58 692.392 2014.58 692.196 Q2014.58 691.884 2014.71 691.753 Q2014.86 691.605 2015.02 691.589 Q2015.19 691.556 2015.58 691.556 L2020.19 691.556 Q2020.86 691.556 2021.01 691.671 Q2021.15 691.769 2021.22 692.327 L2023.84 711.329 L2036.11 692.196 Q2036.42 691.72 2036.58 691.638 Q2036.75 691.556 2037.4 691.556 L2041.85 691.556 Q2042.21 691.556 2042.35 691.573 Q2042.5 691.589 2042.62 691.671 Q2042.75 691.753 2042.75 691.933 Z" fill="#000000" fill-rule="nonzero" fill-opacity="1" /><path clip-path="url(#clip920)" d="M2067.79 699.852 Q2067.79 702.197 2066.95 704.525 Q2066.13 706.837 2064.69 708.739 Q2063.25 710.641 2061.41 712.116 Q2059.57 713.592 2057.43 714.412 Q2055.28 715.232 2053.18 715.232 Q2049.46 715.232 2047.02 712.789 Q2044.57 710.346 2044.57 706.263 Q2044.57 703.41 2045.85 700.574 Q2047.13 697.721 2049.16 695.606 Q2051.2 693.475 2053.87 692.146 Q2056.56 690.818 2059.21 690.818 Q2062.99 690.818 2065.38 693.327 Q2067.79 695.819 2067.79 699.852 M2064.79 698.541 Q2064.79 696.737 2064.28 695.376 Q2063.77 693.999 2062.92 693.212 Q2062.08 692.425 2061.08 692.048 Q2060.1 691.655 2059.02 691.655 Q2056.92 691.655 2054.67 693.015 Q2052.43 694.376 2050.75 696.901 Q2049.85 698.278 2049.2 699.934 Q2048.54 701.574 2048.25 703.033 Q2047.95 704.476 2047.82 705.493 Q2047.7 706.509 2047.7 707.214 Q2047.7 710.493 2049.28 712.428 Q2050.85 714.363 2053.38 714.363 Q2055.36 714.363 2057.3 713.199 Q2059.23 712.018 2060.56 710.329 Q2061.74 708.87 2062.61 707.116 Q2063.49 705.361 2063.94 703.755 Q2064.38 702.148 2064.58 700.853 Q2064.79 699.557 2064.79 698.541 Z" fill="#000000" fill-rule="nonzero" fill-opacity="1" /><path clip-path="url(#clip920)" d="M2088.36 693.146 Q2088.4 692.56 2089.32 692.56 L2118.71 692.56 Q2120.09 692.56 2120.12 693.099 Q2120.12 693.685 2118.81 693.661 L2089.65 693.661 Q2088.36 693.685 2088.36 693.146 M2088.36 683.777 Q2088.36 683.191 2089.36 683.215 L2118.67 683.215 Q2120.09 683.215 2120.12 683.777 Q2120.12 684.316 2118.9 684.316 L2089.32 684.316 Q2088.36 684.316 2088.36 683.777 Z" fill="#000000" fill-rule="nonzero" fill-opacity="1" /><path clip-path="url(#clip920)" d="M2183.58 687.759 Q2183.86 688.04 2183.86 688.438 Q2183.86 688.836 2183.58 689.117 Q2183.3 689.398 2182.9 689.398 L2152.87 689.398 Q2152.48 689.398 2152.19 689.117 Q2151.91 688.836 2151.91 688.438 Q2151.91 688.04 2152.19 687.759 Q2152.48 687.478 2152.87 687.478 L2182.9 687.478 Q2183.3 687.478 2183.58 687.759 Z" fill="#000000" fill-rule="nonzero" fill-opacity="1" /><path clip-path="url(#clip920)" d="M2202.17 673.05 L2202.17 671.551 Q2207.93 671.551 2210.9 668.482 Q2211.72 668.482 2211.86 668.67 Q2212 668.857 2212 669.724 L2212 696.636 Q2212 698.065 2212.71 698.51 Q2213.41 698.955 2216.48 698.955 L2218 698.955 L2218 700.43 Q2216.31 700.29 2210.22 700.29 Q2204.13 700.29 2202.47 700.43 L2202.47 698.955 L2203.99 698.955 Q2207.01 698.955 2207.74 698.533 Q2208.47 698.088 2208.47 696.636 L2208.47 671.785 Q2205.96 673.05 2202.17 673.05 Z" fill="#000000" fill-rule="nonzero" fill-opacity="1" /><path clip-path="url(#clip920)" d="M2220.31 685.089 Q2220.31 678.039 2222.09 674.197 Q2224.58 668.482 2230.43 668.482 Q2231.67 668.482 2232.96 668.833 Q2234.27 669.161 2235.91 670.45 Q2237.57 671.738 2238.58 673.846 Q2240.5 677.921 2240.5 685.089 Q2240.5 692.092 2238.72 695.91 Q2236.12 701.484 2230.38 701.484 Q2228.23 701.484 2226.03 700.384 Q2223.85 699.283 2222.47 696.636 Q2220.31 692.678 2220.31 685.089 M2224.29 684.503 Q2224.29 691.741 2224.81 694.622 Q2225.39 697.737 2226.99 699.095 Q2228.6 700.43 2230.38 700.43 Q2232.3 700.43 2233.9 699.002 Q2235.51 697.549 2236.01 694.434 Q2236.54 691.366 2236.52 684.503 Q2236.52 677.828 2236.05 675.158 Q2235.42 672.042 2233.73 670.801 Q2232.07 669.536 2230.38 669.536 Q2229.75 669.536 2229.07 669.724 Q2228.42 669.911 2227.46 670.45 Q2226.5 670.988 2225.75 672.323 Q2225.02 673.659 2224.67 675.673 Q2224.29 678.273 2224.29 684.503 Z" fill="#000000" fill-rule="nonzero" fill-opacity="1" /><path clip-path="url(#clip920)" d="M2244.79 699.657 Q2244.06 698.884 2244.06 697.877 Q2244.06 696.87 2244.79 696.144 Q2245.51 695.395 2246.62 695.395 Q2247.67 695.395 2248.37 696.097 Q2249.1 696.776 2249.1 697.901 Q2249.1 699.002 2248.33 699.728 Q2247.58 700.43 2246.62 700.43 Q2245.51 700.43 2244.79 699.657 Z" fill="#000000" fill-rule="nonzero" fill-opacity="1" /><path clip-path="url(#clip920)" d="M2257.26 685.089 Q2257.26 678.039 2259.04 674.197 Q2261.52 668.482 2267.38 668.482 Q2268.62 668.482 2269.91 668.833 Q2271.22 669.161 2272.86 670.45 Q2274.52 671.738 2275.53 673.846 Q2277.45 677.921 2277.45 685.089 Q2277.45 692.092 2275.67 695.91 Q2273.07 701.484 2267.33 701.484 Q2265.18 701.484 2262.97 700.384 Q2260.8 699.283 2259.41 696.636 Q2257.26 692.678 2257.26 685.089 M2261.24 684.503 Q2261.24 691.741 2261.76 694.622 Q2262.34 697.737 2263.93 699.095 Q2265.55 700.43 2267.33 700.43 Q2269.25 700.43 2270.84 699.002 Q2272.46 697.549 2272.95 694.434 Q2273.49 691.366 2273.47 684.503 Q2273.47 677.828 2273 675.158 Q2272.37 672.042 2270.68 670.801 Q2269.02 669.536 2267.33 669.536 Q2266.7 669.536 2266.02 669.724 Q2265.36 669.911 2264.4 670.45 Q2263.44 670.988 2262.69 672.323 Q2261.97 673.659 2261.62 675.673 Q2261.24 678.273 2261.24 684.503 Z" fill="#000000" fill-rule="nonzero" fill-opacity="1" /><polyline clip-path="url(#clip920)" style="stroke:#e26f46; stroke-linecap:round; stroke-linejoin:round; stroke-width:4; stroke-opacity:1; fill:none" points="1808.26,743.442 1951.43,743.442 "/>
<path clip-path="url(#clip920)" d="M2004.27 740.419 Q2004.27 740.559 2004.08 741.098 L2000.29 751.451 Q2000.08 752.06 1999.87 752.177 Q1999.66 752.27 1998.79 752.27 L1976.58 752.27 Q1976.05 752.27 1975.84 752.247 Q1975.62 752.224 1975.46 752.106 Q1975.3 751.989 1975.3 751.732 Q1975.3 751.263 1975.46 751.052 Q1975.65 750.842 1975.86 750.818 Q1976.07 750.795 1976.58 750.795 Q1977.76 750.795 1978.46 750.724 Q1979.16 750.654 1979.61 750.561 Q1980.07 750.443 1980.31 750.116 Q1980.57 749.788 1980.68 749.507 Q1980.8 749.202 1980.96 748.523 L1987.38 722.758 Q1987.57 721.985 1987.57 721.868 Q1987.57 721.423 1987.29 721.306 Q1987.03 721.165 1986.28 721.095 L1984.45 721.001 Q1983.89 721.001 1983.66 720.978 Q1983.45 720.955 1983.28 720.837 Q1983.12 720.72 1983.12 720.463 Q1983.12 720.018 1983.28 719.807 Q1983.47 719.573 1983.61 719.549 Q1983.78 719.502 1984.03 719.502 L1990.4 719.643 L1997.5 719.502 Q1998.27 719.502 1998.27 720.088 Q1998.27 720.744 1997.95 720.884 Q1997.62 721.001 1996.45 721.001 Q1994.2 721.001 1993.17 721.236 Q1992.16 721.47 1991.88 721.868 Q1991.62 722.243 1991.36 723.25 L1984.88 749.155 Q1984.64 750.022 1984.64 750.256 Q1984.64 750.514 1984.76 750.607 Q1984.9 750.678 1985.27 750.724 Q1985.7 750.795 1986.33 750.795 L1990.83 750.795 Q1992.18 750.795 1993.38 750.584 Q1994.57 750.373 1995.49 750.069 Q1996.42 749.764 1997.27 749.202 Q1998.11 748.64 1998.7 748.148 Q1999.3 747.633 1999.89 746.836 Q2000.5 746.017 2000.85 745.454 Q2001.22 744.869 2001.65 743.932 Q2002.07 742.972 2002.28 742.433 Q2002.51 741.871 2002.86 740.91 Q2003.08 740.419 2003.15 740.278 Q2003.22 740.138 2003.33 740.02 Q2003.47 739.903 2003.68 739.903 Q2003.97 739.903 2004.11 740.067 Q2004.27 740.231 2004.27 740.419 Z" fill="#000000" fill-rule="nonzero" fill-opacity="1" /><path clip-path="url(#clip920)" d="M2042.75 743.773 Q2042.75 744.249 2042.53 744.347 Q2042.34 744.446 2041.68 744.446 Q2040.91 744.446 2040.44 744.511 Q2039.96 744.56 2039.67 744.642 Q2039.37 744.708 2039.19 744.937 Q2039.03 745.167 2038.96 745.364 Q2038.89 745.544 2038.78 745.987 L2034.32 763.874 Q2034.16 764.481 2034.16 764.694 Q2034.16 764.907 2034.29 765.039 Q2034.44 765.17 2034.8 765.235 Q2035.16 765.284 2035.44 765.301 Q2035.73 765.301 2036.34 765.301 Q2037.09 765.301 2037.21 765.432 Q2037.27 765.514 2037.27 765.662 Q2037.27 765.973 2037.14 766.137 Q2037.01 766.285 2036.89 766.317 Q2036.8 766.334 2036.63 766.334 Q2035.94 766.334 2034.53 766.285 Q2033.12 766.235 2032.43 766.235 L2028.27 766.334 Q2027.78 766.334 2027.78 765.924 Q2027.78 765.612 2027.91 765.481 Q2028.04 765.334 2028.19 765.317 Q2028.34 765.301 2028.71 765.301 Q2030.06 765.301 2030.63 765.153 Q2031.22 765.006 2031.39 764.743 Q2031.57 764.465 2031.76 763.71 L2036.57 744.478 L2036.53 744.478 L2022.97 765.727 L2022.88 765.875 Q2022.78 766.006 2022.75 766.055 Q2022.71 766.088 2022.61 766.186 Q2022.53 766.268 2022.43 766.301 Q2022.35 766.334 2022.24 766.334 Q2022.04 766.334 2021.93 766.203 Q2021.83 766.071 2021.79 765.973 Q2021.78 765.858 2021.73 765.563 L2018.84 744.741 L2018.81 744.741 L2014.24 763.038 Q2014.1 763.547 2014.1 763.809 Q2014.1 764.481 2014.58 764.891 Q2015.07 765.284 2016.38 765.301 Q2016.99 765.301 2016.99 765.662 Q2016.99 766.334 2016.38 766.334 Q2015.83 766.334 2014.66 766.285 Q2013.5 766.235 2012.92 766.235 Q2012.37 766.235 2011.24 766.285 Q2010.12 766.334 2009.58 766.334 Q2009.1 766.334 2009.1 765.924 Q2009.1 765.301 2009.71 765.301 Q2010.69 765.268 2011.37 765.071 Q2012.04 764.875 2012.42 764.497 Q2012.81 764.12 2012.99 763.743 Q2013.19 763.35 2013.33 762.776 L2017.6 745.675 Q2017.73 745.134 2017.73 745.052 Q2017.73 744.773 2017.56 744.675 Q2017.42 744.56 2016.99 744.511 Q2016.17 744.446 2015.55 744.446 Q2015.14 744.446 2014.97 744.429 Q2014.83 744.413 2014.69 744.331 Q2014.58 744.232 2014.58 744.036 Q2014.58 743.724 2014.71 743.593 Q2014.86 743.445 2015.02 743.429 Q2015.19 743.396 2015.58 743.396 L2020.19 743.396 Q2020.86 743.396 2021.01 743.511 Q2021.15 743.609 2021.22 744.167 L2023.84 763.169 L2036.11 744.036 Q2036.42 743.56 2036.58 743.478 Q2036.75 743.396 2037.4 743.396 L2041.85 743.396 Q2042.21 743.396 2042.35 743.413 Q2042.5 743.429 2042.62 743.511 Q2042.75 743.593 2042.75 743.773 Z" fill="#000000" fill-rule="nonzero" fill-opacity="1" /><path clip-path="url(#clip920)" d="M2067.79 751.692 Q2067.79 754.037 2066.95 756.365 Q2066.13 758.677 2064.69 760.579 Q2063.25 762.481 2061.41 763.956 Q2059.57 765.432 2057.43 766.252 Q2055.28 767.072 2053.18 767.072 Q2049.46 767.072 2047.02 764.629 Q2044.57 762.186 2044.57 758.103 Q2044.57 755.25 2045.85 752.414 Q2047.13 749.561 2049.16 747.446 Q2051.2 745.315 2053.87 743.986 Q2056.56 742.658 2059.21 742.658 Q2062.99 742.658 2065.38 745.167 Q2067.79 747.659 2067.79 751.692 M2064.79 750.381 Q2064.79 748.577 2064.28 747.216 Q2063.77 745.839 2062.92 745.052 Q2062.08 744.265 2061.08 743.888 Q2060.1 743.495 2059.02 743.495 Q2056.92 743.495 2054.67 744.855 Q2052.43 746.216 2050.75 748.741 Q2049.85 750.118 2049.2 751.774 Q2048.54 753.414 2048.25 754.873 Q2047.95 756.316 2047.82 757.333 Q2047.7 758.349 2047.7 759.054 Q2047.7 762.333 2049.28 764.268 Q2050.85 766.203 2053.38 766.203 Q2055.36 766.203 2057.3 765.039 Q2059.23 763.858 2060.56 762.169 Q2061.74 760.71 2062.61 758.956 Q2063.49 757.201 2063.94 755.595 Q2064.38 753.988 2064.58 752.693 Q2064.79 751.397 2064.79 750.381 Z" fill="#000000" fill-rule="nonzero" fill-opacity="1" /><path clip-path="url(#clip920)" d="M2088.36 744.986 Q2088.4 744.4 2089.32 744.4 L2118.71 744.4 Q2120.09 744.4 2120.12 744.939 Q2120.12 745.525 2118.81 745.501 L2089.65 745.501 Q2088.36 745.525 2088.36 744.986 M2088.36 735.617 Q2088.36 735.031 2089.36 735.055 L2118.67 735.055 Q2120.09 735.055 2120.12 735.617 Q2120.12 736.156 2118.9 736.156 L2089.32 736.156 Q2088.36 736.156 2088.36 735.617 Z" fill="#000000" fill-rule="nonzero" fill-opacity="1" /><path clip-path="url(#clip920)" d="M2183.58 739.599 Q2183.86 739.88 2183.86 740.278 Q2183.86 740.676 2183.58 740.957 Q2183.3 741.238 2182.9 741.238 L2152.87 741.238 Q2152.48 741.238 2152.19 740.957 Q2151.91 740.676 2151.91 740.278 Q2151.91 739.88 2152.19 739.599 Q2152.48 739.318 2152.87 739.318 L2182.9 739.318 Q2183.3 739.318 2183.58 739.599 Z" fill="#000000" fill-rule="nonzero" fill-opacity="1" /><path clip-path="url(#clip920)" d="M2202.17 744.541 Q2202.17 743.112 2202.94 742.573 Q2203.71 742.011 2204.53 742.011 Q2205.63 742.011 2206.26 742.714 Q2206.92 743.393 2206.92 744.354 Q2206.92 745.314 2206.26 746.017 Q2205.63 746.696 2204.53 746.696 Q2203.99 746.696 2203.71 746.602 Q2204.34 748.804 2206.26 750.397 Q2208.21 751.989 2210.76 751.989 Q2213.97 751.989 2215.89 748.874 Q2217.04 746.86 2217.04 742.292 Q2217.04 738.264 2216.17 736.249 Q2214.84 733.181 2212.1 733.181 Q2208.21 733.181 2205.91 736.53 Q2205.63 736.952 2205.3 736.976 Q2204.84 736.976 2204.72 736.718 Q2204.62 736.437 2204.62 735.711 L2204.62 721.517 Q2204.62 720.369 2205.09 720.369 Q2205.28 720.369 2205.68 720.51 Q2208.7 721.845 2212.05 721.868 Q2215.49 721.868 2218.58 720.463 Q2218.82 720.322 2218.96 720.322 Q2219.43 720.322 2219.45 720.861 Q2219.45 721.048 2219.05 721.61 Q2218.68 722.149 2217.86 722.875 Q2217.04 723.578 2215.98 724.257 Q2214.93 724.936 2213.38 725.405 Q2211.86 725.85 2210.18 725.85 Q2208.16 725.85 2206.1 725.217 L2206.1 734.563 Q2208.58 732.127 2212.19 732.127 Q2216.03 732.127 2218.68 735.219 Q2221.32 738.311 2221.32 742.62 Q2221.32 747.141 2218.19 750.233 Q2215.07 753.324 2210.86 753.324 Q2207.01 753.324 2204.58 750.584 Q2202.17 747.844 2202.17 744.541 Z" fill="#000000" fill-rule="nonzero" fill-opacity="1" /><path clip-path="url(#clip920)" d="M2226.11 736.929 Q2226.11 729.879 2227.89 726.037 Q2230.37 720.322 2236.23 720.322 Q2237.47 720.322 2238.76 720.673 Q2240.07 721.001 2241.71 722.29 Q2243.37 723.578 2244.38 725.686 Q2246.3 729.761 2246.3 736.929 Q2246.3 743.932 2244.52 747.75 Q2241.92 753.324 2236.18 753.324 Q2234.02 753.324 2231.82 752.224 Q2229.64 751.123 2228.26 748.476 Q2226.11 744.518 2226.11 736.929 M2230.09 736.343 Q2230.09 743.581 2230.6 746.462 Q2231.19 749.577 2232.78 750.935 Q2234.4 752.27 2236.18 752.27 Q2238.1 752.27 2239.69 750.842 Q2241.31 749.389 2241.8 746.274 Q2242.34 743.206 2242.32 736.343 Q2242.32 729.668 2241.85 726.998 Q2241.21 723.882 2239.53 722.641 Q2237.87 721.376 2236.18 721.376 Q2235.55 721.376 2234.87 721.564 Q2234.21 721.751 2233.25 722.29 Q2232.29 722.828 2231.54 724.163 Q2230.82 725.499 2230.46 727.513 Q2230.09 730.113 2230.09 736.343 Z" fill="#000000" fill-rule="nonzero" fill-opacity="1" /><path clip-path="url(#clip920)" d="M2250.58 751.497 Q2249.86 750.724 2249.86 749.717 Q2249.86 748.71 2250.58 747.984 Q2251.31 747.235 2252.41 747.235 Q2253.46 747.235 2254.17 747.937 Q2254.89 748.616 2254.89 749.741 Q2254.89 750.842 2254.12 751.568 Q2253.37 752.27 2252.41 752.27 Q2251.31 752.27 2250.58 751.497 Z" fill="#000000" fill-rule="nonzero" fill-opacity="1" /><path clip-path="url(#clip920)" d="M2263.05 736.929 Q2263.05 729.879 2264.83 726.037 Q2267.32 720.322 2273.17 720.322 Q2274.41 720.322 2275.7 720.673 Q2277.01 721.001 2278.65 722.29 Q2280.32 723.578 2281.32 725.686 Q2283.24 729.761 2283.24 736.929 Q2283.24 743.932 2281.46 747.75 Q2278.86 753.324 2273.13 753.324 Q2270.97 753.324 2268.77 752.224 Q2266.59 751.123 2265.21 748.476 Q2263.05 744.518 2263.05 736.929 M2267.04 736.343 Q2267.04 743.581 2267.55 746.462 Q2268.14 749.577 2269.73 750.935 Q2271.35 752.27 2273.13 752.27 Q2275.05 752.27 2276.64 750.842 Q2278.26 749.389 2278.75 746.274 Q2279.29 743.206 2279.26 736.343 Q2279.26 729.668 2278.79 726.998 Q2278.16 723.882 2276.48 722.641 Q2274.81 721.376 2273.13 721.376 Q2272.49 721.376 2271.81 721.564 Q2271.16 721.751 2270.2 722.29 Q2269.24 722.828 2268.49 724.163 Q2267.76 725.499 2267.41 727.513 Q2267.04 730.113 2267.04 736.343 Z" fill="#000000" fill-rule="nonzero" fill-opacity="1" /><polyline clip-path="url(#clip920)" style="stroke:#3da44d; stroke-linecap:round; stroke-linejoin:round; stroke-width:4; stroke-opacity:1; fill:none" points="1808.26,795.282 1951.43,795.282 "/>
<path clip-path="url(#clip920)" d="M2004.27 792.259 Q2004.27 792.399 2004.08 792.938 L2000.29 803.291 Q2000.08 803.9 1999.87 804.017 Q1999.66 804.11 1998.79 804.11 L1976.58 804.11 Q1976.05 804.11 1975.84 804.087 Q1975.62 804.064 1975.46 803.946 Q1975.3 803.829 1975.3 803.572 Q1975.3 803.103 1975.46 802.892 Q1975.65 802.682 1975.86 802.658 Q1976.07 802.635 1976.58 802.635 Q1977.76 802.635 1978.46 802.564 Q1979.16 802.494 1979.61 802.401 Q1980.07 802.283 1980.31 801.956 Q1980.57 801.628 1980.68 801.347 Q1980.8 801.042 1980.96 800.363 L1987.38 774.598 Q1987.57 773.825 1987.57 773.708 Q1987.57 773.263 1987.29 773.146 Q1987.03 773.005 1986.28 772.935 L1984.45 772.841 Q1983.89 772.841 1983.66 772.818 Q1983.45 772.795 1983.28 772.677 Q1983.12 772.56 1983.12 772.303 Q1983.12 771.858 1983.28 771.647 Q1983.47 771.413 1983.61 771.389 Q1983.78 771.342 1984.03 771.342 L1990.4 771.483 L1997.5 771.342 Q1998.27 771.342 1998.27 771.928 Q1998.27 772.584 1997.95 772.724 Q1997.62 772.841 1996.45 772.841 Q1994.2 772.841 1993.17 773.076 Q1992.16 773.31 1991.88 773.708 Q1991.62 774.083 1991.36 775.09 L1984.88 800.995 Q1984.64 801.862 1984.64 802.096 Q1984.64 802.354 1984.76 802.447 Q1984.9 802.518 1985.27 802.564 Q1985.7 802.635 1986.33 802.635 L1990.83 802.635 Q1992.18 802.635 1993.38 802.424 Q1994.57 802.213 1995.49 801.909 Q1996.42 801.604 1997.27 801.042 Q1998.11 800.48 1998.7 799.988 Q1999.3 799.473 1999.89 798.676 Q2000.5 797.857 2000.85 797.294 Q2001.22 796.709 2001.65 795.772 Q2002.07 794.812 2002.28 794.273 Q2002.51 793.711 2002.86 792.75 Q2003.08 792.259 2003.15 792.118 Q2003.22 791.978 2003.33 791.86 Q2003.47 791.743 2003.68 791.743 Q2003.97 791.743 2004.11 791.907 Q2004.27 792.071 2004.27 792.259 Z" fill="#000000" fill-rule="nonzero" fill-opacity="1" /><path clip-path="url(#clip920)" d="M2042.75 795.613 Q2042.75 796.089 2042.53 796.187 Q2042.34 796.286 2041.68 796.286 Q2040.91 796.286 2040.44 796.351 Q2039.96 796.4 2039.67 796.482 Q2039.37 796.548 2039.19 796.777 Q2039.03 797.007 2038.96 797.204 Q2038.89 797.384 2038.78 797.827 L2034.32 815.714 Q2034.16 816.321 2034.16 816.534 Q2034.16 816.747 2034.29 816.879 Q2034.44 817.01 2034.8 817.075 Q2035.16 817.124 2035.44 817.141 Q2035.73 817.141 2036.34 817.141 Q2037.09 817.141 2037.21 817.272 Q2037.27 817.354 2037.27 817.502 Q2037.27 817.813 2037.14 817.977 Q2037.01 818.125 2036.89 818.157 Q2036.8 818.174 2036.63 818.174 Q2035.94 818.174 2034.53 818.125 Q2033.12 818.075 2032.43 818.075 L2028.27 818.174 Q2027.78 818.174 2027.78 817.764 Q2027.78 817.452 2027.91 817.321 Q2028.04 817.174 2028.19 817.157 Q2028.34 817.141 2028.71 817.141 Q2030.06 817.141 2030.63 816.993 Q2031.22 816.846 2031.39 816.583 Q2031.57 816.305 2031.76 815.55 L2036.57 796.318 L2036.53 796.318 L2022.97 817.567 L2022.88 817.715 Q2022.78 817.846 2022.75 817.895 Q2022.71 817.928 2022.61 818.026 Q2022.53 818.108 2022.43 818.141 Q2022.35 818.174 2022.24 818.174 Q2022.04 818.174 2021.93 818.043 Q2021.83 817.911 2021.79 817.813 Q2021.78 817.698 2021.73 817.403 L2018.84 796.581 L2018.81 796.581 L2014.24 814.878 Q2014.1 815.387 2014.1 815.649 Q2014.1 816.321 2014.58 816.731 Q2015.07 817.124 2016.38 817.141 Q2016.99 817.141 2016.99 817.502 Q2016.99 818.174 2016.38 818.174 Q2015.83 818.174 2014.66 818.125 Q2013.5 818.075 2012.92 818.075 Q2012.37 818.075 2011.24 818.125 Q2010.12 818.174 2009.58 818.174 Q2009.1 818.174 2009.1 817.764 Q2009.1 817.141 2009.71 817.141 Q2010.69 817.108 2011.37 816.911 Q2012.04 816.715 2012.42 816.337 Q2012.81 815.96 2012.99 815.583 Q2013.19 815.19 2013.33 814.616 L2017.6 797.515 Q2017.73 796.974 2017.73 796.892 Q2017.73 796.613 2017.56 796.515 Q2017.42 796.4 2016.99 796.351 Q2016.17 796.286 2015.55 796.286 Q2015.14 796.286 2014.97 796.269 Q2014.83 796.253 2014.69 796.171 Q2014.58 796.072 2014.58 795.876 Q2014.58 795.564 2014.71 795.433 Q2014.86 795.285 2015.02 795.269 Q2015.19 795.236 2015.58 795.236 L2020.19 795.236 Q2020.86 795.236 2021.01 795.351 Q2021.15 795.449 2021.22 796.007 L2023.84 815.009 L2036.11 795.876 Q2036.42 795.4 2036.58 795.318 Q2036.75 795.236 2037.4 795.236 L2041.85 795.236 Q2042.21 795.236 2042.35 795.253 Q2042.5 795.269 2042.62 795.351 Q2042.75 795.433 2042.75 795.613 Z" fill="#000000" fill-rule="nonzero" fill-opacity="1" /><path clip-path="url(#clip920)" d="M2067.79 803.532 Q2067.79 805.877 2066.95 808.205 Q2066.13 810.517 2064.69 812.419 Q2063.25 814.321 2061.41 815.796 Q2059.57 817.272 2057.43 818.092 Q2055.28 818.912 2053.18 818.912 Q2049.46 818.912 2047.02 816.469 Q2044.57 814.026 2044.57 809.943 Q2044.57 807.09 2045.85 804.254 Q2047.13 801.401 2049.16 799.286 Q2051.2 797.155 2053.87 795.826 Q2056.56 794.498 2059.21 794.498 Q2062.99 794.498 2065.38 797.007 Q2067.79 799.499 2067.79 803.532 M2064.79 802.221 Q2064.79 800.417 2064.28 799.056 Q2063.77 797.679 2062.92 796.892 Q2062.08 796.105 2061.08 795.728 Q2060.1 795.335 2059.02 795.335 Q2056.92 795.335 2054.67 796.695 Q2052.43 798.056 2050.75 800.581 Q2049.85 801.958 2049.2 803.614 Q2048.54 805.254 2048.25 806.713 Q2047.95 808.156 2047.82 809.173 Q2047.7 810.189 2047.7 810.894 Q2047.7 814.173 2049.28 816.108 Q2050.85 818.043 2053.38 818.043 Q2055.36 818.043 2057.3 816.879 Q2059.23 815.698 2060.56 814.009 Q2061.74 812.55 2062.61 810.796 Q2063.49 809.041 2063.94 807.435 Q2064.38 805.828 2064.58 804.533 Q2064.79 803.237 2064.79 802.221 Z" fill="#000000" fill-rule="nonzero" fill-opacity="1" /><path clip-path="url(#clip920)" d="M2088.36 796.826 Q2088.4 796.24 2089.32 796.24 L2118.71 796.24 Q2120.09 796.24 2120.12 796.779 Q2120.12 797.365 2118.81 797.341 L2089.65 797.341 Q2088.36 797.365 2088.36 796.826 M2088.36 787.457 Q2088.36 786.871 2089.36 786.895 L2118.67 786.895 Q2120.09 786.895 2120.12 787.457 Q2120.12 787.996 2118.9 787.996 L2089.32 787.996 Q2088.36 787.996 2088.36 787.457 Z" fill="#000000" fill-rule="nonzero" fill-opacity="1" /><path clip-path="url(#clip920)" d="M2183.58 791.439 Q2183.86 791.72 2183.86 792.118 Q2183.86 792.516 2183.58 792.797 Q2183.3 793.078 2182.9 793.078 L2152.87 793.078 Q2152.48 793.078 2152.19 792.797 Q2151.91 792.516 2151.91 792.118 Q2151.91 791.72 2152.19 791.439 Q2152.48 791.158 2152.87 791.158 L2182.9 791.158 Q2183.3 791.158 2183.58 791.439 Z" fill="#000000" fill-rule="nonzero" fill-opacity="1" /><path clip-path="url(#clip920)" d="M2202.17 776.73 L2202.17 775.231 Q2207.93 775.231 2210.9 772.162 Q2211.72 772.162 2211.86 772.35 Q2212 772.537 2212 773.404 L2212 800.316 Q2212 801.745 2212.71 802.19 Q2213.41 802.635 2216.48 802.635 L2218 802.635 L2218 804.11 Q2216.31 803.97 2210.22 803.97 Q2204.13 803.97 2202.47 804.11 L2202.47 802.635 L2203.99 802.635 Q2207.01 802.635 2207.74 802.213 Q2208.47 801.768 2208.47 800.316 L2208.47 775.465 Q2205.96 776.73 2202.17 776.73 Z" fill="#000000" fill-rule="nonzero" fill-opacity="1" /><path clip-path="url(#clip920)" d="M2220.31 788.769 Q2220.31 781.719 2222.09 777.877 Q2224.58 772.162 2230.43 772.162 Q2231.67 772.162 2232.96 772.513 Q2234.27 772.841 2235.91 774.13 Q2237.57 775.418 2238.58 777.526 Q2240.5 781.601 2240.5 788.769 Q2240.5 795.772 2238.72 799.59 Q2236.12 805.164 2230.38 805.164 Q2228.23 805.164 2226.03 804.064 Q2223.85 802.963 2222.47 800.316 Q2220.31 796.358 2220.31 788.769 M2224.29 788.183 Q2224.29 795.421 2224.81 798.302 Q2225.39 801.417 2226.99 802.775 Q2228.6 804.11 2230.38 804.11 Q2232.3 804.11 2233.9 802.682 Q2235.51 801.229 2236.01 798.114 Q2236.54 795.046 2236.52 788.183 Q2236.52 781.508 2236.05 778.838 Q2235.42 775.722 2233.73 774.481 Q2232.07 773.216 2230.38 773.216 Q2229.75 773.216 2229.07 773.404 Q2228.42 773.591 2227.46 774.13 Q2226.5 774.668 2225.75 776.003 Q2225.02 777.339 2224.67 779.353 Q2224.29 781.953 2224.29 788.183 Z" fill="#000000" fill-rule="nonzero" fill-opacity="1" /><path clip-path="url(#clip920)" d="M2244.25 788.769 Q2244.25 781.719 2246.03 777.877 Q2248.52 772.162 2254.37 772.162 Q2255.61 772.162 2256.9 772.513 Q2258.21 772.841 2259.85 774.13 Q2261.52 775.418 2262.52 777.526 Q2264.44 781.601 2264.44 788.769 Q2264.44 795.772 2262.66 799.59 Q2260.06 805.164 2254.33 805.164 Q2252.17 805.164 2249.97 804.064 Q2247.79 802.963 2246.41 800.316 Q2244.25 796.358 2244.25 788.769 M2248.24 788.183 Q2248.24 795.421 2248.75 798.302 Q2249.34 801.417 2250.93 802.775 Q2252.55 804.11 2254.33 804.11 Q2256.25 804.11 2257.84 802.682 Q2259.46 801.229 2259.95 798.114 Q2260.49 795.046 2260.46 788.183 Q2260.46 781.508 2259.99 778.838 Q2259.36 775.722 2257.68 774.481 Q2256.01 773.216 2254.33 773.216 Q2253.69 773.216 2253.01 773.404 Q2252.36 773.591 2251.4 774.13 Q2250.44 774.668 2249.69 776.003 Q2248.96 777.339 2248.61 779.353 Q2248.24 781.953 2248.24 788.183 Z" fill="#000000" fill-rule="nonzero" fill-opacity="1" /><path clip-path="url(#clip920)" d="M2268.2 788.769 Q2268.2 781.719 2269.98 777.877 Q2272.46 772.162 2278.31 772.162 Q2279.56 772.162 2280.84 772.513 Q2282.16 772.841 2283.8 774.13 Q2285.46 775.418 2286.47 777.526 Q2288.39 781.601 2288.39 788.769 Q2288.39 795.772 2286.61 799.59 Q2284.01 805.164 2278.27 805.164 Q2276.11 805.164 2273.91 804.064 Q2271.73 802.963 2270.35 800.316 Q2268.2 796.358 2268.2 788.769 M2272.18 788.183 Q2272.18 795.421 2272.69 798.302 Q2273.28 801.417 2274.87 802.775 Q2276.49 804.11 2278.27 804.11 Q2280.19 804.11 2281.78 802.682 Q2283.4 801.229 2283.89 798.114 Q2284.43 795.046 2284.4 788.183 Q2284.4 781.508 2283.94 778.838 Q2283.3 775.722 2281.62 774.481 Q2279.95 773.216 2278.27 773.216 Q2277.64 773.216 2276.96 773.404 Q2276.3 773.591 2275.34 774.13 Q2274.38 774.668 2273.63 776.003 Q2272.9 777.339 2272.55 779.353 Q2272.18 781.953 2272.18 788.183 Z" fill="#000000" fill-rule="nonzero" fill-opacity="1" /><path clip-path="url(#clip920)" d="M2292.67 803.337 Q2291.95 802.564 2291.95 801.557 Q2291.95 800.55 2292.67 799.824 Q2293.4 799.075 2294.5 799.075 Q2295.55 799.075 2296.26 799.777 Q2296.98 800.456 2296.98 801.581 Q2296.98 802.682 2296.21 803.408 Q2295.46 804.11 2294.5 804.11 Q2293.4 804.11 2292.67 803.337 Z" fill="#000000" fill-rule="nonzero" fill-opacity="1" /><path clip-path="url(#clip920)" d="M2305.14 788.769 Q2305.14 781.719 2306.92 777.877 Q2309.41 772.162 2315.26 772.162 Q2316.5 772.162 2317.79 772.513 Q2319.1 772.841 2320.74 774.13 Q2322.41 775.418 2323.41 777.526 Q2325.33 781.601 2325.33 788.769 Q2325.33 795.772 2323.55 799.59 Q2320.95 805.164 2315.21 805.164 Q2313.06 805.164 2310.86 804.064 Q2308.68 802.963 2307.3 800.316 Q2305.14 796.358 2305.14 788.769 M2309.13 788.183 Q2309.13 795.421 2309.64 798.302 Q2310.23 801.417 2311.82 802.775 Q2313.43 804.11 2315.21 804.11 Q2317.14 804.11 2318.73 802.682 Q2320.34 801.229 2320.84 798.114 Q2321.38 795.046 2321.35 788.183 Q2321.35 781.508 2320.88 778.838 Q2320.25 775.722 2318.56 774.481 Q2316.9 773.216 2315.21 773.216 Q2314.58 773.216 2313.9 773.404 Q2313.25 773.591 2312.29 774.13 Q2311.33 774.668 2310.58 776.003 Q2309.85 777.339 2309.5 779.353 Q2309.13 781.953 2309.13 788.183 Z" fill="#000000" fill-rule="nonzero" fill-opacity="1" /></svg>
