<?xml version="1.0" encoding="utf-8"?>
<svg xmlns="http://www.w3.org/2000/svg" xmlns:xlink="http://www.w3.org/1999/xlink" width="600" height="400" viewBox="0 0 2400 1600">
<defs>
  <clipPath id="clip050">
    <rect x="0" y="0" width="2400" height="1600"/>
  </clipPath>
</defs>
<path clip-path="url(#clip050)" d="M0 1600 L2400 1600 L2400 0 L0 0  Z" fill="#ffffff" fill-rule="evenodd" fill-opacity="1"/>
<defs>
  <clipPath id="clip051">
    <rect x="480" y="0" width="1681" height="1600"/>
  </clipPath>
</defs>
<defs>
  <clipPath id="clip052">
    <rect x="205" y="47" width="1614" height="1355"/>
  </clipPath>
</defs>
<path clip-path="url(#clip050)" d="M205.121 1401.22 L1776.36 1401.22 L1776.36 47.2441 L205.121 47.2441  Z" fill="#ffffff" fill-rule="evenodd" fill-opacity="1"/>
<defs>
  <clipPath id="clip053">
    <rect x="205" y="47" width="1572" height="1355"/>
  </clipPath>
</defs>
<polyline clip-path="url(#clip050)" style="stroke:#000000; stroke-linecap:round; stroke-linejoin:round; stroke-width:4; stroke-opacity:1; fill:none" points="205.121,1401.22 1776.36,1401.22 "/>
<polyline clip-path="url(#clip050)" style="stroke:#000000; stroke-linecap:round; stroke-linejoin:round; stroke-width:4; stroke-opacity:1; fill:none" points="205.121,1401.22 205.121,1382.32 "/>
<polyline clip-path="url(#clip050)" style="stroke:#000000; stroke-linecap:round; stroke-linejoin:round; stroke-width:4; stroke-opacity:1; fill:none" points="597.932,1401.22 597.932,1382.32 "/>
<polyline clip-path="url(#clip050)" style="stroke:#000000; stroke-linecap:round; stroke-linejoin:round; stroke-width:4; stroke-opacity:1; fill:none" points="990.742,1401.22 990.742,1382.32 "/>
<polyline clip-path="url(#clip050)" style="stroke:#000000; stroke-linecap:round; stroke-linejoin:round; stroke-width:4; stroke-opacity:1; fill:none" points="1383.55,1401.22 1383.55,1382.32 "/>
<polyline clip-path="url(#clip050)" style="stroke:#000000; stroke-linecap:round; stroke-linejoin:round; stroke-width:4; stroke-opacity:1; fill:none" points="1776.36,1401.22 1776.36,1382.32 "/>
<path clip-path="url(#clip050)" d="M205.121 1432.13 Q201.51 1432.13 199.681 1435.7 Q197.876 1439.24 197.876 1446.37 Q197.876 1453.48 199.681 1457.04 Q201.51 1460.58 205.121 1460.58 Q208.755 1460.58 210.561 1457.04 Q212.389 1453.48 212.389 1446.37 Q212.389 1439.24 210.561 1435.7 Q208.755 1432.13 205.121 1432.13 M205.121 1428.43 Q210.931 1428.43 213.987 1433.04 Q217.065 1437.62 217.065 1446.37 Q217.065 1455.1 213.987 1459.7 Q210.931 1464.29 205.121 1464.29 Q199.311 1464.29 196.232 1459.7 Q193.177 1455.1 193.177 1446.37 Q193.177 1437.62 196.232 1433.04 Q199.311 1428.43 205.121 1428.43 Z" fill="#000000" fill-rule="nonzero" fill-opacity="1" /><path clip-path="url(#clip050)" d="M588.314 1459.68 L595.953 1459.68 L595.953 1433.31 L587.642 1434.98 L587.642 1430.72 L595.906 1429.06 L600.582 1429.06 L600.582 1459.68 L608.221 1459.68 L608.221 1463.62 L588.314 1463.62 L588.314 1459.68 Z" fill="#000000" fill-rule="nonzero" fill-opacity="1" /><path clip-path="url(#clip050)" d="M985.395 1459.68 L1001.71 1459.68 L1001.71 1463.62 L979.77 1463.62 L979.77 1459.68 Q982.432 1456.93 987.016 1452.3 Q991.622 1447.64 992.803 1446.3 Q995.048 1443.78 995.928 1442.04 Q996.83 1440.28 996.83 1438.59 Q996.83 1435.84 994.886 1434.1 Q992.965 1432.37 989.863 1432.37 Q987.664 1432.37 985.21 1433.13 Q982.78 1433.89 980.002 1435.44 L980.002 1430.72 Q982.826 1429.59 985.28 1429.01 Q987.733 1428.43 989.77 1428.43 Q995.141 1428.43 998.335 1431.12 Q1001.53 1433.8 1001.53 1438.29 Q1001.53 1440.42 1000.72 1442.34 Q999.932 1444.24 997.826 1446.83 Q997.247 1447.5 994.145 1450.72 Q991.043 1453.92 985.395 1459.68 Z" fill="#000000" fill-rule="nonzero" fill-opacity="1" /><path clip-path="url(#clip050)" d="M1387.8 1444.98 Q1391.16 1445.7 1393.03 1447.97 Q1394.93 1450.24 1394.93 1453.57 Q1394.93 1458.68 1391.41 1461.49 Q1387.89 1464.29 1381.41 1464.29 Q1379.24 1464.29 1376.92 1463.85 Q1374.63 1463.43 1372.18 1462.57 L1372.18 1458.06 Q1374.12 1459.19 1376.44 1459.77 Q1378.75 1460.35 1381.27 1460.35 Q1385.67 1460.35 1387.96 1458.62 Q1390.28 1456.88 1390.28 1453.57 Q1390.28 1450.51 1388.12 1448.8 Q1386 1447.06 1382.18 1447.06 L1378.15 1447.06 L1378.15 1443.22 L1382.36 1443.22 Q1385.81 1443.22 1387.64 1441.86 Q1389.47 1440.47 1389.47 1437.87 Q1389.47 1435.21 1387.57 1433.8 Q1385.69 1432.37 1382.18 1432.37 Q1380.25 1432.37 1378.06 1432.78 Q1375.86 1433.2 1373.22 1434.08 L1373.22 1429.91 Q1375.88 1429.17 1378.19 1428.8 Q1380.53 1428.43 1382.59 1428.43 Q1387.92 1428.43 1391.02 1430.86 Q1394.12 1433.27 1394.12 1437.39 Q1394.12 1440.26 1392.48 1442.25 Q1390.83 1444.22 1387.8 1444.98 Z" fill="#000000" fill-rule="nonzero" fill-opacity="1" /><path clip-path="url(#clip050)" d="M1779.37 1433.13 L1767.57 1451.58 L1779.37 1451.58 L1779.37 1433.13 M1778.15 1429.06 L1784.03 1429.06 L1784.03 1451.58 L1788.96 1451.58 L1788.96 1455.47 L1784.03 1455.47 L1784.03 1463.62 L1779.37 1463.62 L1779.37 1455.47 L1763.77 1455.47 L1763.77 1450.95 L1778.15 1429.06 Z" fill="#000000" fill-rule="nonzero" fill-opacity="1" /><path clip-path="url(#clip050)" d="M1007.39 1498.07 Q1006.56 1502.23 1005.43 1504.61 Q1003.59 1508.25 1000.53 1508.25 Q998.408 1508.25 996.798 1507.06 Q995.22 1505.83 994.672 1503.8 Q994.061 1504.61 993.513 1505.16 Q992.998 1505.7 991.999 1506.54 Q991.001 1507.35 989.648 1507.8 Q988.328 1508.25 986.814 1508.25 Q985.655 1508.25 984.592 1508.02 Q983.529 1507.83 982.402 1507.28 Q981.307 1506.7 980.502 1505.83 Q979.729 1504.96 979.214 1503.55 Q978.698 1502.13 978.698 1500.33 Q978.698 1498.07 979.568 1495.01 Q980.47 1491.95 982.531 1486.48 Q983.658 1483.58 983.658 1481.97 Q983.658 1481.23 983.497 1480.74 Q983.336 1480.26 983.014 1480.1 Q982.724 1479.91 982.531 1479.87 Q982.338 1479.81 982.016 1479.81 Q980.019 1479.81 978.28 1481.84 Q976.541 1483.87 975.349 1487.99 Q975.091 1488.8 974.93 1488.99 Q974.769 1489.18 974.286 1489.18 Q973.481 1489.15 973.481 1488.51 Q973.481 1488.25 973.771 1487.25 Q974.061 1486.22 974.737 1484.71 Q975.446 1483.16 976.412 1481.77 Q977.378 1480.36 978.892 1479.36 Q980.437 1478.36 982.209 1478.36 Q984.624 1478.36 986.106 1479.94 Q987.619 1481.48 987.619 1483.77 Q987.619 1485.19 986.492 1487.93 Q982.917 1497.43 982.917 1501.39 Q982.917 1506.77 987.007 1506.77 Q988.36 1506.77 989.616 1506.22 Q990.904 1505.67 991.742 1504.9 Q992.579 1504.13 993.223 1503.29 Q993.9 1502.45 994.189 1501.9 Q994.511 1501.36 994.544 1501.23 L999.471 1481.39 Q999.664 1480.62 1000.02 1480.1 Q1000.41 1479.55 1000.86 1479.36 Q1001.31 1479.17 1001.56 1479.13 Q1001.82 1479.07 1002.05 1479.07 Q1002.85 1479.07 1003.4 1479.55 Q1003.98 1480.04 1003.98 1480.87 Q1003.98 1481.03 1003.79 1481.81 Q1003.63 1482.55 1003.37 1483.64 Q1003.11 1484.71 1002.98 1485.29 Q1001.95 1489.34 1001.85 1489.76 L1000.02 1496.88 Q999.922 1497.3 999.6 1498.65 Q999.31 1500 999.149 1500.71 Q998.988 1501.39 998.827 1502.32 Q998.698 1503.22 998.698 1503.74 Q998.698 1505.35 999.181 1506.06 Q999.664 1506.77 1000.73 1506.77 Q1001.73 1506.77 1002.5 1506.09 Q1003.3 1505.38 1003.92 1504.03 Q1004.53 1502.64 1004.88 1501.52 Q1005.24 1500.39 1005.69 1498.62 Q1005.85 1497.85 1005.98 1497.65 Q1006.14 1497.43 1006.59 1497.43 Q1007.39 1497.43 1007.39 1498.07 Z" fill="#000000" fill-rule="nonzero" fill-opacity="1" /><path clip-path="url(#clip050)" d="M955.481 1525.84 L1033.04 1525.84 L1033.04 1522.32 L955.481 1522.32  Z" fill="#000000" fill-rule="evenodd" fill-opacity="1"/>
<path clip-path="url(#clip050)" d="M989.394 1559.36 Q988.556 1563.51 987.429 1565.9 Q985.593 1569.54 982.534 1569.54 Q980.408 1569.54 978.798 1568.35 Q977.22 1567.12 976.672 1565.09 Q976.061 1565.9 975.513 1566.45 Q974.998 1566.99 973.999 1567.83 Q973.001 1568.64 971.648 1569.09 Q970.328 1569.54 968.814 1569.54 Q967.655 1569.54 966.592 1569.31 Q965.529 1569.12 964.402 1568.57 Q963.307 1567.99 962.502 1567.12 Q961.729 1566.25 961.214 1564.84 Q960.698 1563.42 960.698 1561.61 Q960.698 1559.36 961.568 1556.3 Q962.47 1553.24 964.531 1547.77 Q965.658 1544.87 965.658 1543.26 Q965.658 1542.52 965.497 1542.03 Q965.336 1541.55 965.014 1541.39 Q964.724 1541.2 964.531 1541.16 Q964.338 1541.1 964.016 1541.1 Q962.019 1541.1 960.28 1543.13 Q958.541 1545.16 957.349 1549.28 Q957.091 1550.09 956.93 1550.28 Q956.769 1550.47 956.286 1550.47 Q955.481 1550.44 955.481 1549.8 Q955.481 1549.54 955.771 1548.54 Q956.061 1547.51 956.737 1545.99 Q957.446 1544.45 958.412 1543.06 Q959.378 1541.65 960.892 1540.65 Q962.437 1539.65 964.209 1539.65 Q966.624 1539.65 968.106 1541.23 Q969.619 1542.77 969.619 1545.06 Q969.619 1546.48 968.492 1549.22 Q964.917 1558.72 964.917 1562.68 Q964.917 1568.06 969.007 1568.06 Q970.36 1568.06 971.616 1567.51 Q972.904 1566.96 973.742 1566.19 Q974.579 1565.42 975.223 1564.58 Q975.9 1563.74 976.189 1563.19 Q976.511 1562.65 976.544 1562.52 L981.471 1542.68 Q981.664 1541.9 982.019 1541.39 Q982.405 1540.84 982.856 1540.65 Q983.307 1540.46 983.565 1540.42 Q983.822 1540.36 984.048 1540.36 Q984.853 1540.36 985.4 1540.84 Q985.98 1541.33 985.98 1542.16 Q985.98 1542.32 985.787 1543.1 Q985.626 1543.84 985.368 1544.93 Q985.11 1545.99 984.982 1546.57 Q983.951 1550.63 983.854 1551.05 L982.019 1558.17 Q981.922 1558.59 981.6 1559.94 Q981.31 1561.29 981.149 1562 Q980.988 1562.68 980.827 1563.61 Q980.698 1564.51 980.698 1565.03 Q980.698 1566.64 981.181 1567.35 Q981.664 1568.06 982.727 1568.06 Q983.726 1568.06 984.498 1567.38 Q985.304 1566.67 985.916 1565.32 Q986.527 1563.93 986.882 1562.81 Q987.236 1561.68 987.687 1559.91 Q987.848 1559.13 987.977 1558.94 Q988.138 1558.72 988.589 1558.72 Q989.394 1558.72 989.394 1559.36 Z" fill="#000000" fill-rule="nonzero" fill-opacity="1" /><path clip-path="url(#clip050)" d="M1019 1568.72 Q1019.09 1569.02 1018.87 1569.11 L1010.37 1573.35 L1014.74 1581.75 Q1014.88 1581.94 1014.65 1582.16 Q1014.43 1582.3 1014.25 1582.12 L1007.6 1575.37 L1000.95 1582.12 Q1000.77 1582.3 1000.54 1582.16 Q1000.31 1581.94 1000.45 1581.75 L1004.82 1573.35 L996.325 1569.11 Q996.099 1569.02 996.189 1568.72 Q996.257 1568.5 996.505 1568.5 L1005.88 1570.08 L1007.28 1560.7 Q1007.37 1560.43 1007.6 1560.43 Q1007.82 1560.43 1007.91 1560.7 L1009.31 1570.08 L1018.69 1568.5 Q1018.94 1568.5 1019 1568.72 Z" fill="#000000" fill-rule="nonzero" fill-opacity="1" /><polyline clip-path="url(#clip050)" style="stroke:#000000; stroke-linecap:round; stroke-linejoin:round; stroke-width:4; stroke-opacity:1; fill:none" points="205.121,1401.22 205.121,47.2441 "/>
<polyline clip-path="url(#clip050)" style="stroke:#000000; stroke-linecap:round; stroke-linejoin:round; stroke-width:4; stroke-opacity:1; fill:none" points="205.121,1401.22 218.947,1401.22 "/>
<polyline clip-path="url(#clip050)" style="stroke:#000000; stroke-linecap:round; stroke-linejoin:round; stroke-width:4; stroke-opacity:1; fill:none" points="205.121,1207.79 218.947,1207.79 "/>
<polyline clip-path="url(#clip050)" style="stroke:#000000; stroke-linecap:round; stroke-linejoin:round; stroke-width:4; stroke-opacity:1; fill:none" points="205.121,1014.37 218.947,1014.37 "/>
<polyline clip-path="url(#clip050)" style="stroke:#000000; stroke-linecap:round; stroke-linejoin:round; stroke-width:4; stroke-opacity:1; fill:none" points="205.121,820.942 218.947,820.942 "/>
<polyline clip-path="url(#clip050)" style="stroke:#000000; stroke-linecap:round; stroke-linejoin:round; stroke-width:4; stroke-opacity:1; fill:none" points="205.121,627.517 218.947,627.517 "/>
<polyline clip-path="url(#clip050)" style="stroke:#000000; stroke-linecap:round; stroke-linejoin:round; stroke-width:4; stroke-opacity:1; fill:none" points="205.121,434.093 218.947,434.093 "/>
<polyline clip-path="url(#clip050)" style="stroke:#000000; stroke-linecap:round; stroke-linejoin:round; stroke-width:4; stroke-opacity:1; fill:none" points="205.121,240.669 218.947,240.669 "/>
<polyline clip-path="url(#clip050)" style="stroke:#000000; stroke-linecap:round; stroke-linejoin:round; stroke-width:4; stroke-opacity:1; fill:none" points="205.121,47.2441 218.947,47.2441 "/>
<path clip-path="url(#clip050)" d="M118.82 1414.56 L126.459 1414.56 L126.459 1388.19 L118.149 1389.86 L118.149 1385.6 L126.413 1383.94 L131.089 1383.94 L131.089 1414.56 L138.728 1414.56 L138.728 1418.5 L118.82 1418.5 L118.82 1414.56 Z" fill="#000000" fill-rule="nonzero" fill-opacity="1" /><path clip-path="url(#clip050)" d="M148.218 1383.94 L166.575 1383.94 L166.575 1387.87 L152.501 1387.87 L152.501 1396.34 Q153.519 1396 154.538 1395.83 Q155.556 1395.65 156.575 1395.65 Q162.362 1395.65 165.741 1398.82 Q169.121 1401.99 169.121 1407.41 Q169.121 1412.99 165.649 1416.09 Q162.177 1419.17 155.857 1419.17 Q153.681 1419.17 151.413 1418.8 Q149.167 1418.43 146.76 1417.68 L146.76 1412.99 Q148.843 1414.12 151.066 1414.68 Q153.288 1415.23 155.765 1415.23 Q159.769 1415.23 162.107 1413.12 Q164.445 1411.02 164.445 1407.41 Q164.445 1403.8 162.107 1401.69 Q159.769 1399.58 155.765 1399.58 Q153.89 1399.58 152.015 1400 Q150.163 1400.42 148.218 1401.3 L148.218 1383.94 Z" fill="#000000" fill-rule="nonzero" fill-opacity="1" /><path clip-path="url(#clip050)" d="M121.043 1221.14 L137.362 1221.14 L137.362 1225.07 L115.418 1225.07 L115.418 1221.14 Q118.08 1218.38 122.663 1213.75 Q127.269 1209.1 128.45 1207.76 Q130.695 1205.23 131.575 1203.5 Q132.478 1201.74 132.478 1200.05 Q132.478 1197.29 130.533 1195.56 Q128.612 1193.82 125.51 1193.82 Q123.311 1193.82 120.857 1194.58 Q118.427 1195.35 115.649 1196.9 L115.649 1192.18 Q118.473 1191.04 120.927 1190.46 Q123.38 1189.89 125.418 1189.89 Q130.788 1189.89 133.982 1192.57 Q137.177 1195.26 137.177 1199.75 Q137.177 1201.88 136.367 1203.8 Q135.579 1205.7 133.473 1208.29 Q132.894 1208.96 129.792 1212.18 Q126.691 1215.37 121.043 1221.14 Z" fill="#000000" fill-rule="nonzero" fill-opacity="1" /><path clip-path="url(#clip050)" d="M157.177 1193.59 Q153.566 1193.59 151.737 1197.15 Q149.931 1200.7 149.931 1207.83 Q149.931 1214.93 151.737 1218.5 Q153.566 1222.04 157.177 1222.04 Q160.811 1222.04 162.616 1218.5 Q164.445 1214.93 164.445 1207.83 Q164.445 1200.7 162.616 1197.15 Q160.811 1193.59 157.177 1193.59 M157.177 1189.89 Q162.987 1189.89 166.042 1194.49 Q169.121 1199.08 169.121 1207.83 Q169.121 1216.55 166.042 1221.16 Q162.987 1225.74 157.177 1225.74 Q151.366 1225.74 148.288 1221.16 Q145.232 1216.55 145.232 1207.83 Q145.232 1199.08 148.288 1194.49 Q151.366 1189.89 157.177 1189.89 Z" fill="#000000" fill-rule="nonzero" fill-opacity="1" /><path clip-path="url(#clip050)" d="M122.038 1027.71 L138.357 1027.71 L138.357 1031.65 L116.413 1031.65 L116.413 1027.71 Q119.075 1024.96 123.658 1020.33 Q128.265 1015.67 129.445 1014.33 Q131.691 1011.81 132.57 1010.07 Q133.473 1008.31 133.473 1006.62 Q133.473 1003.87 131.529 1002.13 Q129.607 1000.4 126.505 1000.4 Q124.306 1000.4 121.853 1001.16 Q119.422 1001.92 116.644 1003.48 L116.644 998.753 Q119.468 997.619 121.922 997.04 Q124.376 996.461 126.413 996.461 Q131.783 996.461 134.978 999.146 Q138.172 1001.83 138.172 1006.32 Q138.172 1008.45 137.362 1010.37 Q136.575 1012.27 134.468 1014.86 Q133.89 1015.54 130.788 1018.75 Q127.686 1021.95 122.038 1027.71 Z" fill="#000000" fill-rule="nonzero" fill-opacity="1" /><path clip-path="url(#clip050)" d="M148.218 997.086 L166.575 997.086 L166.575 1001.02 L152.501 1001.02 L152.501 1009.49 Q153.519 1009.15 154.538 1008.98 Q155.556 1008.8 156.575 1008.8 Q162.362 1008.8 165.741 1011.97 Q169.121 1015.14 169.121 1020.56 Q169.121 1026.14 165.649 1029.24 Q162.177 1032.32 155.857 1032.32 Q153.681 1032.32 151.413 1031.95 Q149.167 1031.58 146.76 1030.84 L146.76 1026.14 Q148.843 1027.27 151.066 1027.83 Q153.288 1028.38 155.765 1028.38 Q159.769 1028.38 162.107 1026.28 Q164.445 1024.17 164.445 1020.56 Q164.445 1016.95 162.107 1014.84 Q159.769 1012.73 155.765 1012.73 Q153.89 1012.73 152.015 1013.15 Q150.163 1013.57 148.218 1014.45 L148.218 997.086 Z" fill="#000000" fill-rule="nonzero" fill-opacity="1" /><path clip-path="url(#clip050)" d="M131.181 819.588 Q134.538 820.305 136.413 822.574 Q138.311 824.842 138.311 828.176 Q138.311 833.291 134.792 836.092 Q131.274 838.893 124.793 838.893 Q122.617 838.893 120.302 838.453 Q118.01 838.037 115.556 837.18 L115.556 832.666 Q117.501 833.801 119.816 834.379 Q122.13 834.958 124.654 834.958 Q129.052 834.958 131.343 833.222 Q133.658 831.486 133.658 828.176 Q133.658 825.12 131.505 823.407 Q129.376 821.671 125.556 821.671 L121.529 821.671 L121.529 817.828 L125.742 817.828 Q129.191 817.828 131.019 816.463 Q132.848 815.074 132.848 812.481 Q132.848 809.819 130.95 808.407 Q129.075 806.972 125.556 806.972 Q123.635 806.972 121.436 807.389 Q119.237 807.805 116.598 808.685 L116.598 804.518 Q119.26 803.778 121.575 803.407 Q123.913 803.037 125.973 803.037 Q131.297 803.037 134.399 805.467 Q137.501 807.875 137.501 811.995 Q137.501 814.865 135.857 816.856 Q134.214 818.824 131.181 819.588 Z" fill="#000000" fill-rule="nonzero" fill-opacity="1" /><path clip-path="url(#clip050)" d="M157.177 806.74 Q153.566 806.74 151.737 810.305 Q149.931 813.847 149.931 820.977 Q149.931 828.083 151.737 831.648 Q153.566 835.189 157.177 835.189 Q160.811 835.189 162.616 831.648 Q164.445 828.083 164.445 820.977 Q164.445 813.847 162.616 810.305 Q160.811 806.74 157.177 806.74 M157.177 803.037 Q162.987 803.037 166.042 807.643 Q169.121 812.227 169.121 820.977 Q169.121 829.703 166.042 834.31 Q162.987 838.893 157.177 838.893 Q151.366 838.893 148.288 834.31 Q145.232 829.703 145.232 820.977 Q145.232 812.227 148.288 807.643 Q151.366 803.037 157.177 803.037 Z" fill="#000000" fill-rule="nonzero" fill-opacity="1" /><path clip-path="url(#clip050)" d="M132.177 626.163 Q135.533 626.881 137.408 629.149 Q139.306 631.418 139.306 634.751 Q139.306 639.867 135.788 642.668 Q132.269 645.469 125.788 645.469 Q123.612 645.469 121.297 645.029 Q119.006 644.612 116.552 643.756 L116.552 639.242 Q118.496 640.376 120.811 640.955 Q123.126 641.533 125.649 641.533 Q130.047 641.533 132.339 639.797 Q134.654 638.061 134.654 634.751 Q134.654 631.696 132.501 629.983 Q130.371 628.247 126.552 628.247 L122.524 628.247 L122.524 624.404 L126.737 624.404 Q130.186 624.404 132.015 623.038 Q133.843 621.649 133.843 619.057 Q133.843 616.395 131.945 614.983 Q130.07 613.548 126.552 613.548 Q124.63 613.548 122.431 613.964 Q120.232 614.381 117.593 615.26 L117.593 611.094 Q120.255 610.353 122.57 609.983 Q124.908 609.612 126.968 609.612 Q132.292 609.612 135.394 612.043 Q138.496 614.45 138.496 618.571 Q138.496 621.441 136.853 623.432 Q135.209 625.399 132.177 626.163 Z" fill="#000000" fill-rule="nonzero" fill-opacity="1" /><path clip-path="url(#clip050)" d="M148.218 610.237 L166.575 610.237 L166.575 614.173 L152.501 614.173 L152.501 622.645 Q153.519 622.297 154.538 622.135 Q155.556 621.95 156.575 621.95 Q162.362 621.95 165.741 625.122 Q169.121 628.293 169.121 633.709 Q169.121 639.288 165.649 642.39 Q162.177 645.469 155.857 645.469 Q153.681 645.469 151.413 645.098 Q149.167 644.728 146.76 643.987 L146.76 639.288 Q148.843 640.422 151.066 640.978 Q153.288 641.533 155.765 641.533 Q159.769 641.533 162.107 639.427 Q164.445 637.321 164.445 633.709 Q164.445 630.098 162.107 627.992 Q159.769 625.885 155.765 625.885 Q153.89 625.885 152.015 626.302 Q150.163 626.719 148.218 627.598 L148.218 610.237 Z" fill="#000000" fill-rule="nonzero" fill-opacity="1" /><path clip-path="url(#clip050)" d="M129.862 420.887 L118.056 439.336 L129.862 439.336 L129.862 420.887 M128.635 416.813 L134.515 416.813 L134.515 439.336 L139.445 439.336 L139.445 443.225 L134.515 443.225 L134.515 451.373 L129.862 451.373 L129.862 443.225 L114.26 443.225 L114.26 438.711 L128.635 416.813 Z" fill="#000000" fill-rule="nonzero" fill-opacity="1" /><path clip-path="url(#clip050)" d="M157.177 419.892 Q153.566 419.892 151.737 423.456 Q149.931 426.998 149.931 434.128 Q149.931 441.234 151.737 444.799 Q153.566 448.341 157.177 448.341 Q160.811 448.341 162.616 444.799 Q164.445 441.234 164.445 434.128 Q164.445 426.998 162.616 423.456 Q160.811 419.892 157.177 419.892 M157.177 416.188 Q162.987 416.188 166.042 420.794 Q169.121 425.378 169.121 434.128 Q169.121 442.854 166.042 447.461 Q162.987 452.044 157.177 452.044 Q151.366 452.044 148.288 447.461 Q145.232 442.854 145.232 434.128 Q145.232 425.378 148.288 420.794 Q151.366 416.188 157.177 416.188 Z" fill="#000000" fill-rule="nonzero" fill-opacity="1" /><path clip-path="url(#clip050)" d="M130.857 227.463 L119.052 245.912 L130.857 245.912 L130.857 227.463 M129.63 223.389 L135.51 223.389 L135.51 245.912 L140.441 245.912 L140.441 249.8 L135.51 249.8 L135.51 257.949 L130.857 257.949 L130.857 249.8 L115.256 249.8 L115.256 245.287 L129.63 223.389 Z" fill="#000000" fill-rule="nonzero" fill-opacity="1" /><path clip-path="url(#clip050)" d="M148.218 223.389 L166.575 223.389 L166.575 227.324 L152.501 227.324 L152.501 235.796 Q153.519 235.449 154.538 235.287 Q155.556 235.101 156.575 235.101 Q162.362 235.101 165.741 238.273 Q169.121 241.444 169.121 246.861 Q169.121 252.439 165.649 255.541 Q162.177 258.62 155.857 258.62 Q153.681 258.62 151.413 258.249 Q149.167 257.879 146.76 257.138 L146.76 252.439 Q148.843 253.574 151.066 254.129 Q153.288 254.685 155.765 254.685 Q159.769 254.685 162.107 252.578 Q164.445 250.472 164.445 246.861 Q164.445 243.25 162.107 241.143 Q159.769 239.037 155.765 239.037 Q153.89 239.037 152.015 239.453 Q150.163 239.87 148.218 240.75 L148.218 223.389 Z" fill="#000000" fill-rule="nonzero" fill-opacity="1" /><path clip-path="url(#clip050)" d="M117.061 29.9641 L135.417 29.9641 L135.417 33.8993 L121.343 33.8993 L121.343 42.3714 Q122.362 42.0242 123.38 41.8622 Q124.399 41.677 125.418 41.677 Q131.205 41.677 134.584 44.8483 Q137.964 48.0196 137.964 53.4362 Q137.964 59.0149 134.492 62.1167 Q131.019 65.1954 124.7 65.1954 Q122.524 65.1954 120.255 64.825 Q118.01 64.4547 115.603 63.7139 L115.603 59.0149 Q117.686 60.1491 119.908 60.7047 Q122.13 61.2602 124.607 61.2602 Q128.612 61.2602 130.95 59.1538 Q133.288 57.0473 133.288 53.4362 Q133.288 49.8251 130.95 47.7186 Q128.612 45.6122 124.607 45.6122 Q122.732 45.6122 120.857 46.0288 Q119.006 46.4455 117.061 47.3251 L117.061 29.9641 Z" fill="#000000" fill-rule="nonzero" fill-opacity="1" /><path clip-path="url(#clip050)" d="M157.177 33.0428 Q153.566 33.0428 151.737 36.6076 Q149.931 40.1492 149.931 47.2788 Q149.931 54.3853 151.737 57.9501 Q153.566 61.4917 157.177 61.4917 Q160.811 61.4917 162.616 57.9501 Q164.445 54.3853 164.445 47.2788 Q164.445 40.1492 162.616 36.6076 Q160.811 33.0428 157.177 33.0428 M157.177 29.3391 Q162.987 29.3391 166.042 33.9456 Q169.121 38.5289 169.121 47.2788 Q169.121 56.0056 166.042 60.6121 Q162.987 65.1954 157.177 65.1954 Q151.366 65.1954 148.288 60.6121 Q145.232 56.0056 145.232 47.2788 Q145.232 38.5289 148.288 33.9456 Q151.366 29.3391 157.177 29.3391 Z" fill="#000000" fill-rule="nonzero" fill-opacity="1" /><path clip-path="url(#clip050)" d="M35.3163 711.459 Q35.5417 711.459 36.5079 712.006 Q37.4419 712.521 39.7929 714.422 Q42.1439 716.322 44.8814 719.156 Q45.9442 720.219 47.4257 721.829 Q48.9072 723.439 49.8733 724.534 L50.8395 725.629 Q54.3822 729.816 58.3435 733.487 Q58.2469 733.23 58.2147 732.779 Q58.1502 732.328 58.1502 732.006 L58.1502 731.684 Q58.1502 730.009 59.2774 727.078 Q60.1148 724.502 60.1148 723.182 Q60.1148 721.893 59.6639 720.476 Q59.213 719.059 57.8926 717.513 Q56.5722 715.967 54.5754 715.259 Q54.2533 715.13 54.1567 715.066 Q54.0279 715.001 53.8991 714.808 Q53.738 714.615 53.738 714.357 Q53.738 714.003 53.9313 713.777 Q54.1245 713.552 54.3822 713.552 Q54.9619 713.552 56.1213 714.003 Q57.2807 714.422 58.7299 715.355 Q60.1792 716.257 61.4996 717.449 Q62.7879 718.608 63.6896 720.347 Q64.5592 722.087 64.5592 723.922 Q64.5592 725.243 63.9151 726.209 Q63.3032 727.175 62.1116 728.141 Q60.5979 729.462 60.1148 730.17 Q59.5995 730.879 59.5995 731.974 Q59.5995 734.904 63.6896 737.578 Q64.2694 737.867 64.3982 738.061 Q64.5592 738.222 64.5592 738.608 Q64.527 739.413 63.8829 739.413 Q63.6252 739.413 62.498 738.705 Q61.3386 737.964 59.3096 736.321 Q57.2807 734.647 55.2517 732.618 L49.7123 726.692 Q44.1729 720.122 41.0489 717.513 Q41.0489 718.608 41.0167 719.091 Q40.9845 719.542 40.7913 720.444 Q40.5658 721.346 40.0828 722.602 Q39.0844 725.533 39.0844 726.756 Q39.0844 727.078 39.1166 727.433 Q39.1488 727.787 39.3098 728.592 Q39.4708 729.365 39.7929 730.009 Q40.0828 730.653 40.7269 731.33 Q41.3388 732.006 42.1761 732.36 Q42.4338 732.457 42.5626 732.521 Q42.6914 732.586 42.8202 732.779 Q42.9169 732.94 42.9169 733.198 Q42.9169 733.584 42.6914 733.809 Q42.466 734.003 42.1761 734.003 Q41.5964 734.003 40.4048 733.423 Q39.2132 732.843 37.925 731.877 Q36.6045 730.911 35.6383 729.333 Q34.6722 727.755 34.6722 726.016 Q34.6722 724.985 35.123 724.115 Q35.5739 723.214 36.057 722.763 Q36.5079 722.28 37.5063 721.475 Q38.2792 720.798 38.6013 720.476 Q38.9233 720.154 39.2776 719.51 Q39.5997 718.834 39.5997 718.093 Q39.5997 716.869 38.6657 715.742 Q37.6995 714.615 35.3807 713.165 Q34.6722 712.779 34.6722 712.167 Q34.6722 711.459 35.3163 711.459 Z" fill="#000000" fill-rule="nonzero" fill-opacity="1" /><polyline clip-path="url(#clip053)" style="stroke:#009af9; stroke-linecap:round; stroke-linejoin:round; stroke-width:4; stroke-opacity:1; fill:none" points="-10.8802,1242.61 162.015,1230.04 233.661,1217.47 281.335,1204.9 317.954,1192.33 348.178,1179.76 374.225,1167.19 397.326,1154.63 418.237,1142.06 437.454,1129.49 455.32,1116.92 472.083,1104.35 487.93,1091.78 503.001,1079.21 517.406,1066.65 531.236,1054.08 544.56,1041.51 557.437,1028.94 569.917,1016.37 582.041,1003.8 593.843,991.233 605.353,978.664 616.596,966.096 627.597,953.527 638.373,940.958 648.941,928.389 659.318,915.821 669.517,903.252 679.549,890.683 689.426,878.115 699.157,865.546 708.751,852.977 718.216,840.409 727.559,827.84 736.786,815.271 745.905,802.702 754.919,790.134 763.836,777.565 772.658,764.996 781.39,752.428 790.037,739.859 798.602,727.29 807.088,714.721 815.499,702.153 823.838,689.584 832.107,677.015 840.31,664.447 848.448,651.878 856.523,639.309 864.539,626.741 872.497,614.172 880.399,601.603 888.247,589.034 896.042,576.466 903.786,563.897 911.481,551.328 919.128,538.76 926.728,526.191 934.283,513.622 941.795,501.054 949.263,488.485 956.689,475.916 964.075,463.347 971.422,450.779 978.729,438.21 985.999,425.641 993.233,413.073 1000.43,400.504 1007.59,387.935 1014.72,375.366 1021.81,362.798 1028.87,350.229 1035.9,337.66 1042.9,325.092 1049.87,312.523 1056.8,299.954 1063.71,287.386 1070.59,274.817 1077.44,262.248 1084.26,249.679 1091.05,237.111 1097.82,224.542 1104.56,211.973 1111.27,199.405 1117.96,186.836 1124.62,174.267 1131.26,161.699 1137.87,149.13 1144.46,136.561 1151.03,123.992 1157.57,111.424 1164.09,98.855 1170.58,86.2863 1177.06,73.7176 1183.51,61.1489 1189.94,48.5802 1196.35,36.0115 1202.74,23.4428 1209.11,10.8741 1215.46,-1.69461 1221.79,-14.2633 1228.09,-26.832 1234.38,-39.4007 1240.65,-51.9694 1246.9,-64.5381 1253.13,-77.1068 1259.34,-89.6755 1265.53,-102.244 1271.71,-114.813 1277.87,-127.382 1284.01,-139.95 1290.13,-152.519 1296.23,-165.088 1302.32,-177.656 1308.39,-190.225 1314.44,-202.794 1320.48,-215.363 1326.5,-227.931 1332.51,-240.5 1338.49,-253.069 1344.47,-265.637 1350.42,-278.206 1356.36,-290.775 1362.29,-303.343 1368.2,-315.912 1374.09,-328.481 1379.97,-341.05 1385.84,-353.618 1391.69,-366.187 1397.52,-378.756 1403.35,-391.324 1409.15,-403.893 1414.95,-416.462 1420.73,-429.031 1426.49,-441.599 1432.24,-454.168 1437.98,-466.737 1443.7,-479.305 1449.41,-491.874 1455.11,-504.443 1460.8,-517.011 1466.47,-529.58 1472.13,-542.149 1477.77,-554.718 1483.4,-567.286 1489.02,-579.855 1494.63,-592.424 1500.23,-604.992 1505.81,-617.561 1511.38,-630.13 1516.94,-642.698 1522.48,-655.267 1528.02,-667.836 1533.54,-680.405 1539.05,-692.973 1544.55,-705.542 1550.04,-718.111 1555.51,-730.679 1560.98,-743.248 1566.43,-755.817 1571.87,-768.386 1577.3,-780.954 1582.72,-793.523 1588.13,-806.092 1593.52,-818.66 1598.91,-831.229 1604.29,-843.798 1609.65,-856.366 1615,-868.935 1620.35,-881.504 1625.68,-894.073 1631,-906.641 1636.32,-919.21 1641.62,-931.779 1646.91,-944.347 1652.19,-956.916 1657.46,-969.485 1662.72,-982.053 1667.97,-994.622 1673.21,-1007.19 1678.45,-1019.76 1683.67,-1032.33 1688.88,-1044.9 1694.08,-1057.47 1699.27,-1070.03 1704.46,-1082.6 1709.63,-1095.17 1714.79,-1107.74 1719.95,-1120.31 1725.09,-1132.88 1730.23,-1145.45 1735.36,-1158.02 1740.47,-1170.58 1745.58,-1183.15 1750.68,-1195.72 1755.77,-1208.29 1760.85,-1220.86 1765.93,-1233.43 1770.99,-1246 1776.04,-1258.56 1781.09,-1271.13 1786.13,-1283.7 1791.15,-1296.27 1796.17,-1308.84 1801.19,-1321.41 1806.19,-1333.98 1811.18,-1346.55 1816.17,-1359.11 1821.14,-1371.68 1826.11,-1384.25 1831.07,-1396.82 1836.03,-1409.39 1840.97,-1421.96 1845.91,-1434.53 1850.83,-1447.1 1855.75,-1459.66 1860.67,-1472.23 1865.57,-1484.8 1870.46,-1497.37 1875.35,-1509.94 1880.23,-1522.51 1885.1,-1535.08 1889.97,-1547.65 1894.82,-1560.21 1899.67,-1572.78 1904.51,-1585.35 1909.35,-1597.92 1914.17,-1610.49 1918.99,-1623.06 1923.8,-1635.63 1928.6,-1648.19 1933.4,-1660.76 1938.18,-1673.33 1942.97,-1685.9 1947.74,-1698.47 1952.5,-1711.04 1957.26,-1723.61 1962.01,-1736.18 1966.76,-1748.74 1971.49,-1761.31 1976.22,-1773.88 1980.94,-1786.45 1985.66,-1799.02 1990.37,-1811.59 1995.07,-1824.16 1999.76,-1836.73 2004.45,-1849.29 2009.13,-1861.86 2013.8,-1874.43 2018.47,-1887 "/>
<polyline clip-path="url(#clip053)" style="stroke:#e26f46; stroke-linecap:round; stroke-linejoin:round; stroke-width:4; stroke-opacity:1; fill:none" points="-76.8016,1242.61 149.622,1230.04 241.525,1217.47 301.587,1204.9 346.971,1192.33 383.869,1179.76 415.228,1167.19 442.685,1154.63 467.241,1142.06 489.557,1129.49 510.089,1116.92 529.168,1104.35 547.039,1091.78 563.889,1079.21 579.867,1066.65 595.088,1054.08 609.649,1041.51 623.627,1028.94 637.087,1016.37 650.084,1003.8 662.663,991.233 674.865,978.664 686.723,966.096 698.267,953.527 709.523,940.958 720.513,928.389 731.259,915.821 741.777,903.252 752.084,890.683 762.194,878.115 772.12,865.546 781.873,852.977 791.464,840.409 800.902,827.84 810.197,815.271 819.356,802.702 828.386,790.134 837.294,777.565 846.086,764.996 854.768,752.428 863.346,739.859 871.823,727.29 880.205,714.721 888.496,702.153 896.7,689.584 904.82,677.015 912.859,664.447 920.822,651.878 928.711,639.309 936.528,626.741 944.277,614.172 951.96,601.603 959.58,589.034 967.138,576.466 974.636,563.897 982.077,551.328 989.463,538.76 996.795,526.191 1004.07,513.622 1011.3,501.054 1018.48,488.485 1025.62,475.916 1032.7,463.347 1039.75,450.779 1046.75,438.21 1053.7,425.641 1060.62,413.073 1067.49,400.504 1074.33,387.935 1081.13,375.366 1087.89,362.798 1094.61,350.229 1101.3,337.66 1107.96,325.092 1114.58,312.523 1121.17,299.954 1127.72,287.386 1134.25,274.817 1140.74,262.248 1147.2,249.679 1153.64,237.111 1160.04,224.542 1166.42,211.973 1172.77,199.405 1179.1,186.836 1185.39,174.267 1191.66,161.699 1197.91,149.13 1204.13,136.561 1210.32,123.992 1216.49,111.424 1222.64,98.855 1228.76,86.2863 1234.86,73.7176 1240.94,61.1489 1247,48.5802 1253.03,36.0115 1259.05,23.4428 1265.04,10.8741 1271.01,-1.69461 1276.96,-14.2633 1282.89,-26.832 1288.81,-39.4007 1294.7,-51.9694 1300.57,-64.5381 1306.43,-77.1068 1312.26,-89.6755 1318.08,-102.244 1323.88,-114.813 1329.66,-127.382 1335.42,-139.95 1341.17,-152.519 1346.9,-165.088 1352.61,-177.656 1358.31,-190.225 1363.99,-202.794 1369.66,-215.363 1375.3,-227.931 1380.94,-240.5 1386.55,-253.069 1392.16,-265.637 1397.74,-278.206 1403.31,-290.775 1408.87,-303.343 1414.41,-315.912 1419.94,-328.481 1425.45,-341.05 1430.95,-353.618 1436.44,-366.187 1441.91,-378.756 1447.37,-391.324 1452.82,-403.893 1458.25,-416.462 1463.67,-429.031 1469.07,-441.599 1474.46,-454.168 1479.84,-466.737 1485.21,-479.305 1490.56,-491.874 1495.91,-504.443 1501.24,-517.011 1506.56,-529.58 1511.86,-542.149 1517.16,-554.718 1522.44,-567.286 1527.71,-579.855 1532.97,-592.424 1538.22,-604.992 1543.45,-617.561 1548.68,-630.13 1553.89,-642.698 1559.1,-655.267 1564.29,-667.836 1569.47,-680.405 1574.64,-692.973 1579.8,-705.542 1584.95,-718.111 1590.09,-730.679 1595.22,-743.248 1600.34,-755.817 1605.45,-768.386 1610.55,-780.954 1615.64,-793.523 1620.72,-806.092 1625.78,-818.66 1630.84,-831.229 1635.89,-843.798 1640.93,-856.366 1645.96,-868.935 1650.99,-881.504 1656,-894.073 1661,-906.641 1665.99,-919.21 1670.98,-931.779 1675.95,-944.347 1680.92,-956.916 1685.87,-969.485 1690.82,-982.053 1695.76,-994.622 1700.69,-1007.19 1705.62,-1019.76 1710.53,-1032.33 1715.43,-1044.9 1720.33,-1057.47 1725.22,-1070.03 1730.1,-1082.6 1734.97,-1095.17 1739.83,-1107.74 1744.69,-1120.31 1749.53,-1132.88 1754.37,-1145.45 1759.2,-1158.02 1764.02,-1170.58 1768.84,-1183.15 1773.64,-1195.72 1778.44,-1208.29 1783.23,-1220.86 1788.02,-1233.43 1792.79,-1246 1797.56,-1258.56 1802.32,-1271.13 1807.07,-1283.7 1811.82,-1296.27 1816.56,-1308.84 1821.29,-1321.41 1826.01,-1333.98 1830.73,-1346.55 1835.43,-1359.11 1840.14,-1371.68 1844.83,-1384.25 1849.52,-1396.82 1854.2,-1409.39 1858.87,-1421.96 1863.53,-1434.53 1868.19,-1447.1 1872.84,-1459.66 1877.49,-1472.23 1882.13,-1484.8 1886.76,-1497.37 1891.38,-1509.94 1896,-1522.51 1900.61,-1535.08 1905.21,-1547.65 1909.81,-1560.21 1914.4,-1572.78 1918.99,-1585.35 1923.57,-1597.92 1928.14,-1610.49 1932.7,-1623.06 1937.26,-1635.63 1941.81,-1648.19 1946.36,-1660.76 1950.9,-1673.33 1955.43,-1685.9 1959.96,-1698.47 1964.48,-1711.04 1968.99,-1723.61 1973.5,-1736.18 1978,-1748.74 1982.5,-1761.31 1986.99,-1773.88 1991.47,-1786.45 1995.95,-1799.02 2000.42,-1811.59 2004.89,-1824.16 2009.34,-1836.73 2013.8,-1849.29 2018.25,-1861.86 2022.69,-1874.43 2027.12,-1887 "/>
<polyline clip-path="url(#clip053)" style="stroke:#3da44d; stroke-linecap:round; stroke-linejoin:round; stroke-width:4; stroke-opacity:1; fill:none" points="-790.669,1242.61 13.1221,1230.04 329.23,1217.47 529.921,1204.9 677.419,1192.33 794.174,1179.76 890.872,1167.19 973.442,1154.63 1045.52,1142.06 1109.5,1129.49 1167.04,1116.92 1219.33,1104.35 1267.26,1091.78 1311.51,1079.21 1352.62,1066.65 1391.02,1054.08 1427.04,1041.51 1460.97,1028.94 1493.04,1016.37 1523.46,1003.8 1552.38,991.233 1579.96,978.664 1606.32,966.096 1631.55,953.527 1655.77,940.958 1679.04,928.389 1701.45,915.821 1723.05,903.252 1743.91,890.683 1764.08,878.115 1783.6,865.546 1802.52,852.977 1820.87,840.409 1838.68,827.84 1856,815.271 1872.85,802.702 1889.25,790.134 1905.22,777.565 1920.8,764.996 1936,752.428 1950.85,739.859 1965.35,727.29 1979.52,714.721 1993.38,702.153 2006.95,689.584 2020.24,677.015 2033.25,664.447 2046.01,651.878 2058.52,639.309 2070.79,626.741 2082.83,614.172 2094.65,601.603 2106.26,589.034 2117.67,576.466 2128.88,563.897 2139.91,551.328 2150.75,538.76 2161.42,526.191 2171.92,513.622 2182.25,501.054 2192.43,488.485 2202.46,475.916 2212.33,463.347 2222.07,450.779 2231.66,438.21 2241.13,425.641 2250.46,413.073 2259.66,400.504 2268.75,387.935 2277.71,375.366 2286.56,362.798 2295.29,350.229 2303.92,337.66 2312.44,325.092 2320.86,312.523 2329.17,299.954 2337.39,287.386 2345.51,274.817 2353.54,262.248 2361.48,249.679 2369.33,237.111 2377.1,224.542 2384.78,211.973 2392.38,199.405 2399.9,186.836 2407.34,174.267 2414.7,161.699 2421.99,149.13 2429.21,136.561 2436.35,123.992 2443.43,111.424 2450.44,98.855 2457.38,86.2863 2464.26,73.7176 2471.07,61.1489 2477.82,48.5802 2484.51,36.0115 2491.14,23.4428 2497.71,10.8741 2504.22,-1.69461 2510.68,-14.2633 2517.08,-26.832 2523.42,-39.4007 2529.72,-51.9694 2535.96,-64.5381 2542.15,-77.1068 2548.29,-89.6755 2554.38,-102.244 2560.43,-114.813 2566.42,-127.382 2572.37,-139.95 2578.27,-152.519 2584.13,-165.088 2589.95,-177.656 2595.72,-190.225 2601.45,-202.794 2607.14,-215.363 2612.78,-227.931 2618.39,-240.5 2623.95,-253.069 2629.48,-265.637 2634.97,-278.206 2640.42,-290.775 2645.83,-303.343 2651.21,-315.912 2656.55,-328.481 2661.86,-341.05 2667.13,-353.618 2672.37,-366.187 2677.57,-378.756 2682.74,-391.324 2687.87,-403.893 2692.98,-416.462 2698.05,-429.031 2703.09,-441.599 2708.1,-454.168 2713.08,-466.737 2718.03,-479.305 2722.96,-491.874 2727.85,-504.443 2732.71,-517.011 2737.54,-529.58 2742.35,-542.149 2747.13,-554.718 2751.88,-567.286 2756.61,-579.855 2761.31,-592.424 2765.98,-604.992 2770.63,-617.561 2775.25,-630.13 2779.85,-642.698 2784.42,-655.267 2788.97,-667.836 2793.5,-680.405 2798,-692.973 2802.48,-705.542 2806.93,-718.111 2811.36,-730.679 2815.77,-743.248 2820.16,-755.817 2824.52,-768.386 2828.87,-780.954 2833.19,-793.523 2837.49,-806.092 2841.77,-818.66 2846.03,-831.229 2850.27,-843.798 2854.49,-856.366 2858.69,-868.935 2862.87,-881.504 2867.03,-894.073 2871.17,-906.641 2875.29,-919.21 2879.39,-931.779 2883.48,-944.347 2887.54,-956.916 2891.59,-969.485 2895.62,-982.053 2899.64,-994.622 2903.63,-1007.19 2907.61,-1019.76 2911.57,-1032.33 2915.51,-1044.9 2919.44,-1057.47 2923.35,-1070.03 2927.24,-1082.6 2931.12,-1095.17 2934.98,-1107.74 2938.83,-1120.31 2942.66,-1132.88 2946.47,-1145.45 2950.27,-1158.02 2954.06,-1170.58 2957.83,-1183.15 2961.58,-1195.72 2965.32,-1208.29 2969.04,-1220.86 2972.75,-1233.43 2976.45,-1246 2980.13,-1258.56 2983.8,-1271.13 2987.45,-1283.7 2991.09,-1296.27 2994.72,-1308.84 2998.33,-1321.41 3001.93,-1333.98 3005.52,-1346.55 3009.09,-1359.11 3012.65,-1371.68 3016.2,-1384.25 3019.73,-1396.82 3023.26,-1409.39 3026.77,-1421.96 3030.26,-1434.53 3033.75,-1447.1 3037.22,-1459.66 3040.68,-1472.23 3044.13,-1484.8 3047.57,-1497.37 3050.99,-1509.94 3054.41,-1522.51 3057.81,-1535.08 3061.2,-1547.65 3064.58,-1560.21 3067.95,-1572.78 3071.3,-1585.35 3074.65,-1597.92 3077.99,-1610.49 3081.31,-1623.06 3084.63,-1635.63 3087.93,-1648.19 3091.22,-1660.76 3094.5,-1673.33 3097.78,-1685.9 3101.04,-1698.47 3104.29,-1711.04 3107.53,-1723.61 3110.76,-1736.18 3113.98,-1748.74 3117.2,-1761.31 3120.4,-1773.88 3123.59,-1786.45 3126.77,-1799.02 3129.95,-1811.59 3133.11,-1824.16 3136.27,-1836.73 3139.41,-1849.29 3142.55,-1861.86 3145.67,-1874.43 3148.79,-1887 "/>
<path clip-path="url(#clip050)" d="M1847.95 847.122 L2352.76 847.122 L2352.76 639.762 L1847.95 639.762  Z" fill="#ffffff" fill-rule="evenodd" fill-opacity="1"/>
<polyline clip-path="url(#clip050)" style="stroke:#000000; stroke-linecap:round; stroke-linejoin:round; stroke-width:4; stroke-opacity:1; fill:none" points="1847.95,847.122 2352.76,847.122 2352.76,639.762 1847.95,639.762 1847.95,847.122 "/>
<polyline clip-path="url(#clip050)" style="stroke:#009af9; stroke-linecap:round; stroke-linejoin:round; stroke-width:4; stroke-opacity:1; fill:none" points="1871.81,691.602 2014.99,691.602 "/>
<path clip-path="url(#clip050)" d="M2067.83 688.579 Q2067.83 688.719 2067.64 689.258 L2063.84 699.611 Q2063.63 700.22 2063.42 700.337 Q2063.21 700.43 2062.35 700.43 L2040.14 700.43 Q2039.6 700.43 2039.39 700.407 Q2039.18 700.384 2039.02 700.266 Q2038.85 700.149 2038.85 699.892 Q2038.85 699.423 2039.02 699.212 Q2039.2 699.002 2039.41 698.978 Q2039.63 698.955 2040.14 698.955 Q2041.31 698.955 2042.01 698.884 Q2042.72 698.814 2043.16 698.721 Q2043.63 698.603 2043.87 698.276 Q2044.12 697.948 2044.24 697.667 Q2044.36 697.362 2044.52 696.683 L2050.94 670.918 Q2051.13 670.145 2051.13 670.028 Q2051.13 669.583 2050.85 669.466 Q2050.59 669.325 2049.84 669.255 L2048.01 669.161 Q2047.45 669.161 2047.21 669.138 Q2047 669.115 2046.84 668.997 Q2046.68 668.88 2046.68 668.623 Q2046.68 668.178 2046.84 667.967 Q2047.03 667.733 2047.17 667.709 Q2047.33 667.662 2047.59 667.662 L2053.96 667.803 L2061.06 667.662 Q2061.83 667.662 2061.83 668.248 Q2061.83 668.904 2061.5 669.044 Q2061.17 669.161 2060 669.161 Q2057.75 669.161 2056.72 669.396 Q2055.72 669.63 2055.44 670.028 Q2055.18 670.403 2054.92 671.41 L2048.43 697.315 Q2048.2 698.182 2048.2 698.416 Q2048.2 698.674 2048.32 698.767 Q2048.46 698.838 2048.83 698.884 Q2049.25 698.955 2049.88 698.955 L2054.38 698.955 Q2055.74 698.955 2056.93 698.744 Q2058.13 698.533 2059.04 698.229 Q2059.98 697.924 2060.82 697.362 Q2061.67 696.8 2062.25 696.308 Q2062.86 695.793 2063.45 694.996 Q2064.06 694.177 2064.41 693.614 Q2064.78 693.029 2065.2 692.092 Q2065.62 691.132 2065.84 690.593 Q2066.07 690.031 2066.42 689.07 Q2066.63 688.579 2066.7 688.438 Q2066.77 688.298 2066.89 688.18 Q2067.03 688.063 2067.24 688.063 Q2067.52 688.063 2067.66 688.227 Q2067.83 688.391 2067.83 688.579 Z" fill="#000000" fill-rule="nonzero" fill-opacity="1" /><path clip-path="url(#clip050)" d="M2106.3 691.933 Q2106.3 692.409 2106.09 692.507 Q2105.89 692.606 2105.24 692.606 Q2104.47 692.606 2103.99 692.671 Q2103.52 692.72 2103.22 692.802 Q2102.93 692.868 2102.75 693.097 Q2102.58 693.327 2102.52 693.524 Q2102.45 693.704 2102.34 694.147 L2097.88 712.034 Q2097.71 712.641 2097.71 712.854 Q2097.71 713.067 2097.84 713.199 Q2097.99 713.33 2098.35 713.395 Q2098.71 713.444 2098.99 713.461 Q2099.29 713.461 2099.89 713.461 Q2100.65 713.461 2100.76 713.592 Q2100.83 713.674 2100.83 713.822 Q2100.83 714.133 2100.7 714.297 Q2100.57 714.445 2100.45 714.477 Q2100.35 714.494 2100.19 714.494 Q2099.5 714.494 2098.09 714.445 Q2096.68 714.395 2095.99 714.395 L2091.83 714.494 Q2091.33 714.494 2091.33 714.084 Q2091.33 713.772 2091.47 713.641 Q2091.6 713.494 2091.74 713.477 Q2091.89 713.461 2092.27 713.461 Q2093.61 713.461 2094.19 713.313 Q2094.78 713.166 2094.94 712.903 Q2095.12 712.625 2095.32 711.87 L2100.12 692.638 L2100.09 692.638 L2086.53 713.887 L2086.43 714.035 Q2086.33 714.166 2086.3 714.215 Q2086.27 714.248 2086.17 714.346 Q2086.09 714.428 2085.99 714.461 Q2085.91 714.494 2085.79 714.494 Q2085.6 714.494 2085.48 714.363 Q2085.38 714.231 2085.35 714.133 Q2085.33 714.018 2085.28 713.723 L2082.4 692.901 L2082.37 692.901 L2077.79 711.198 Q2077.66 711.707 2077.66 711.969 Q2077.66 712.641 2078.14 713.051 Q2078.63 713.444 2079.94 713.461 Q2080.55 713.461 2080.55 713.822 Q2080.55 714.494 2079.94 714.494 Q2079.38 714.494 2078.22 714.445 Q2077.05 714.395 2076.48 714.395 Q2075.92 714.395 2074.79 714.445 Q2073.68 714.494 2073.14 714.494 Q2072.66 714.494 2072.66 714.084 Q2072.66 713.461 2073.27 713.461 Q2074.25 713.428 2074.92 713.231 Q2075.6 713.035 2075.97 712.657 Q2076.37 712.28 2076.55 711.903 Q2076.74 711.51 2076.89 710.936 L2081.15 693.835 Q2081.28 693.294 2081.28 693.212 Q2081.28 692.933 2081.12 692.835 Q2080.97 692.72 2080.55 692.671 Q2079.73 692.606 2079.1 692.606 Q2078.69 692.606 2078.53 692.589 Q2078.38 692.573 2078.25 692.491 Q2078.14 692.392 2078.14 692.196 Q2078.14 691.884 2078.27 691.753 Q2078.42 691.605 2078.58 691.589 Q2078.74 691.556 2079.14 691.556 L2083.74 691.556 Q2084.42 691.556 2084.56 691.671 Q2084.71 691.769 2084.78 692.327 L2087.4 711.329 L2099.66 692.196 Q2099.98 691.72 2100.14 691.638 Q2100.3 691.556 2100.96 691.556 L2105.4 691.556 Q2105.76 691.556 2105.91 691.573 Q2106.06 691.589 2106.17 691.671 Q2106.3 691.753 2106.3 691.933 Z" fill="#000000" fill-rule="nonzero" fill-opacity="1" /><path clip-path="url(#clip050)" d="M2131.35 699.852 Q2131.35 702.197 2130.51 704.525 Q2129.69 706.837 2128.25 708.739 Q2126.8 710.641 2124.97 712.116 Q2123.13 713.592 2120.98 714.412 Q2118.84 715.232 2116.74 715.232 Q2113.02 715.232 2110.57 712.789 Q2108.13 710.346 2108.13 706.263 Q2108.13 703.41 2109.41 700.574 Q2110.69 697.721 2112.72 695.606 Q2114.75 693.475 2117.43 692.146 Q2120.11 690.818 2122.77 690.818 Q2126.54 690.818 2128.94 693.327 Q2131.35 695.819 2131.35 699.852 M2128.35 698.541 Q2128.35 696.737 2127.84 695.376 Q2127.33 693.999 2126.48 693.212 Q2125.64 692.425 2124.64 692.048 Q2123.66 691.655 2122.57 691.655 Q2120.48 691.655 2118.23 693.015 Q2115.98 694.376 2114.31 696.901 Q2113.41 698.278 2112.75 699.934 Q2112.1 701.574 2111.8 703.033 Q2111.51 704.476 2111.38 705.493 Q2111.26 706.509 2111.26 707.214 Q2111.26 710.493 2112.83 712.428 Q2114.41 714.363 2116.93 714.363 Q2118.92 714.363 2120.85 713.199 Q2122.79 712.018 2124.12 710.329 Q2125.3 708.87 2126.16 707.116 Q2127.05 705.361 2127.49 703.755 Q2127.94 702.148 2128.13 700.853 Q2128.35 699.557 2128.35 698.541 Z" fill="#000000" fill-rule="nonzero" fill-opacity="1" /><path clip-path="url(#clip050)" d="M2151.91 693.146 Q2151.96 692.56 2152.87 692.56 L2182.27 692.56 Q2183.65 692.56 2183.67 693.099 Q2183.67 693.685 2182.36 693.661 L2153.2 693.661 Q2151.91 693.685 2151.91 693.146 M2151.91 683.777 Q2151.91 683.191 2152.92 683.215 L2182.22 683.215 Q2183.65 683.215 2183.67 683.777 Q2183.67 684.316 2182.46 684.316 L2152.87 684.316 Q2151.91 684.316 2151.91 683.777 Z" fill="#000000" fill-rule="nonzero" fill-opacity="1" /><path clip-path="url(#clip050)" d="M2202.17 693.966 Q2202.17 692.537 2202.99 691.858 Q2203.8 691.179 2204.86 691.179 Q2205.96 691.179 2206.73 691.905 Q2207.53 692.607 2207.53 693.849 Q2207.53 695.184 2206.59 695.933 Q2205.68 696.683 2204.37 696.495 Q2205.51 698.416 2207.62 699.283 Q2209.75 700.149 2211.72 700.149 Q2213.78 700.149 2215.45 698.369 Q2217.13 696.589 2217.13 692.233 Q2217.13 688.532 2215.68 686.4 Q2214.25 684.269 2211.42 684.269 L2209.31 684.269 Q2208.58 684.269 2208.37 684.199 Q2208.16 684.128 2208.16 683.73 Q2208.16 683.262 2208.89 683.168 Q2209.61 683.168 2210.76 683.027 Q2213.55 682.934 2215.02 680.521 Q2216.36 678.273 2216.36 675.064 Q2216.36 672.136 2214.95 670.918 Q2213.57 669.677 2211.77 669.677 Q2210.08 669.677 2208.23 670.379 Q2206.38 671.082 2205.37 672.651 Q2208.35 672.651 2208.35 675.064 Q2208.35 676.118 2207.67 676.821 Q2207.01 677.5 2205.91 677.5 Q2204.86 677.5 2204.16 676.844 Q2203.45 676.165 2203.45 675.017 Q2203.45 672.277 2205.89 670.379 Q2208.35 668.482 2211.96 668.482 Q2215.52 668.482 2218.14 670.356 Q2220.79 672.23 2220.79 675.111 Q2220.79 677.945 2218.91 680.264 Q2217.04 682.582 2214.06 683.543 Q2217.72 684.269 2219.9 686.752 Q2222.07 689.211 2222.07 692.233 Q2222.07 695.98 2219.12 698.744 Q2216.17 701.484 2211.86 701.484 Q2207.88 701.484 2205.02 699.33 Q2202.17 697.175 2202.17 693.966 Z" fill="#000000" fill-rule="nonzero" fill-opacity="1" /><path clip-path="url(#clip050)" d="M2226.11 685.089 Q2226.11 678.039 2227.89 674.197 Q2230.37 668.482 2236.23 668.482 Q2237.47 668.482 2238.76 668.833 Q2240.07 669.161 2241.71 670.45 Q2243.37 671.738 2244.38 673.846 Q2246.3 677.921 2246.3 685.089 Q2246.3 692.092 2244.52 695.91 Q2241.92 701.484 2236.18 701.484 Q2234.02 701.484 2231.82 700.384 Q2229.64 699.283 2228.26 696.636 Q2226.11 692.678 2226.11 685.089 M2230.09 684.503 Q2230.09 691.741 2230.6 694.622 Q2231.19 697.737 2232.78 699.095 Q2234.4 700.43 2236.18 700.43 Q2238.1 700.43 2239.69 699.002 Q2241.31 697.549 2241.8 694.434 Q2242.34 691.366 2242.32 684.503 Q2242.32 677.828 2241.85 675.158 Q2241.21 672.042 2239.53 670.801 Q2237.87 669.536 2236.18 669.536 Q2235.55 669.536 2234.87 669.724 Q2234.21 669.911 2233.25 670.45 Q2232.29 670.988 2231.54 672.323 Q2230.82 673.659 2230.46 675.673 Q2230.09 678.273 2230.09 684.503 Z" fill="#000000" fill-rule="nonzero" fill-opacity="1" /><path clip-path="url(#clip050)" d="M2250.58 699.657 Q2249.86 698.884 2249.86 697.877 Q2249.86 696.87 2250.58 696.144 Q2251.31 695.395 2252.41 695.395 Q2253.46 695.395 2254.17 696.097 Q2254.89 696.776 2254.89 697.901 Q2254.89 699.002 2254.12 699.728 Q2253.37 700.43 2252.41 700.43 Q2251.31 700.43 2250.58 699.657 Z" fill="#000000" fill-rule="nonzero" fill-opacity="1" /><path clip-path="url(#clip050)" d="M2263.05 685.089 Q2263.05 678.039 2264.83 674.197 Q2267.32 668.482 2273.17 668.482 Q2274.41 668.482 2275.7 668.833 Q2277.01 669.161 2278.65 670.45 Q2280.32 671.738 2281.32 673.846 Q2283.24 677.921 2283.24 685.089 Q2283.24 692.092 2281.46 695.91 Q2278.86 701.484 2273.13 701.484 Q2270.97 701.484 2268.77 700.384 Q2266.59 699.283 2265.21 696.636 Q2263.05 692.678 2263.05 685.089 M2267.04 684.503 Q2267.04 691.741 2267.55 694.622 Q2268.14 697.737 2269.73 699.095 Q2271.35 700.43 2273.13 700.43 Q2275.05 700.43 2276.64 699.002 Q2278.26 697.549 2278.75 694.434 Q2279.29 691.366 2279.26 684.503 Q2279.26 677.828 2278.79 675.158 Q2278.16 672.042 2276.48 670.801 Q2274.81 669.536 2273.13 669.536 Q2272.49 669.536 2271.81 669.724 Q2271.16 669.911 2270.2 670.45 Q2269.24 670.988 2268.49 672.323 Q2267.76 673.659 2267.41 675.673 Q2267.04 678.273 2267.04 684.503 Z" fill="#000000" fill-rule="nonzero" fill-opacity="1" /><polyline clip-path="url(#clip050)" style="stroke:#e26f46; stroke-linecap:round; stroke-linejoin:round; stroke-width:4; stroke-opacity:1; fill:none" points="1871.81,743.442 2014.99,743.442 "/>
<path clip-path="url(#clip050)" d="M2067.83 740.419 Q2067.83 740.559 2067.64 741.098 L2063.84 751.451 Q2063.63 752.06 2063.42 752.177 Q2063.21 752.27 2062.35 752.27 L2040.14 752.27 Q2039.6 752.27 2039.39 752.247 Q2039.18 752.224 2039.02 752.106 Q2038.85 751.989 2038.85 751.732 Q2038.85 751.263 2039.02 751.052 Q2039.2 750.842 2039.41 750.818 Q2039.63 750.795 2040.14 750.795 Q2041.31 750.795 2042.01 750.724 Q2042.72 750.654 2043.16 750.561 Q2043.63 750.443 2043.87 750.116 Q2044.12 749.788 2044.24 749.507 Q2044.36 749.202 2044.52 748.523 L2050.94 722.758 Q2051.13 721.985 2051.13 721.868 Q2051.13 721.423 2050.85 721.306 Q2050.59 721.165 2049.84 721.095 L2048.01 721.001 Q2047.45 721.001 2047.21 720.978 Q2047 720.955 2046.84 720.837 Q2046.68 720.72 2046.68 720.463 Q2046.68 720.018 2046.84 719.807 Q2047.03 719.573 2047.17 719.549 Q2047.33 719.502 2047.59 719.502 L2053.96 719.643 L2061.06 719.502 Q2061.83 719.502 2061.83 720.088 Q2061.83 720.744 2061.5 720.884 Q2061.17 721.001 2060 721.001 Q2057.75 721.001 2056.72 721.236 Q2055.72 721.47 2055.44 721.868 Q2055.18 722.243 2054.92 723.25 L2048.43 749.155 Q2048.2 750.022 2048.2 750.256 Q2048.2 750.514 2048.32 750.607 Q2048.46 750.678 2048.83 750.724 Q2049.25 750.795 2049.88 750.795 L2054.38 750.795 Q2055.74 750.795 2056.93 750.584 Q2058.13 750.373 2059.04 750.069 Q2059.98 749.764 2060.82 749.202 Q2061.67 748.64 2062.25 748.148 Q2062.86 747.633 2063.45 746.836 Q2064.06 746.017 2064.41 745.454 Q2064.78 744.869 2065.2 743.932 Q2065.62 742.972 2065.84 742.433 Q2066.07 741.871 2066.42 740.91 Q2066.63 740.419 2066.7 740.278 Q2066.77 740.138 2066.89 740.02 Q2067.03 739.903 2067.24 739.903 Q2067.52 739.903 2067.66 740.067 Q2067.83 740.231 2067.83 740.419 Z" fill="#000000" fill-rule="nonzero" fill-opacity="1" /><path clip-path="url(#clip050)" d="M2106.3 743.773 Q2106.3 744.249 2106.09 744.347 Q2105.89 744.446 2105.24 744.446 Q2104.47 744.446 2103.99 744.511 Q2103.52 744.56 2103.22 744.642 Q2102.93 744.708 2102.75 744.937 Q2102.58 745.167 2102.52 745.364 Q2102.45 745.544 2102.34 745.987 L2097.88 763.874 Q2097.71 764.481 2097.71 764.694 Q2097.71 764.907 2097.84 765.039 Q2097.99 765.17 2098.35 765.235 Q2098.71 765.284 2098.99 765.301 Q2099.29 765.301 2099.89 765.301 Q2100.65 765.301 2100.76 765.432 Q2100.83 765.514 2100.83 765.662 Q2100.83 765.973 2100.7 766.137 Q2100.57 766.285 2100.45 766.317 Q2100.35 766.334 2100.19 766.334 Q2099.5 766.334 2098.09 766.285 Q2096.68 766.235 2095.99 766.235 L2091.83 766.334 Q2091.33 766.334 2091.33 765.924 Q2091.33 765.612 2091.47 765.481 Q2091.6 765.334 2091.74 765.317 Q2091.89 765.301 2092.27 765.301 Q2093.61 765.301 2094.19 765.153 Q2094.78 765.006 2094.94 764.743 Q2095.12 764.465 2095.32 763.71 L2100.12 744.478 L2100.09 744.478 L2086.53 765.727 L2086.43 765.875 Q2086.33 766.006 2086.3 766.055 Q2086.27 766.088 2086.17 766.186 Q2086.09 766.268 2085.99 766.301 Q2085.91 766.334 2085.79 766.334 Q2085.6 766.334 2085.48 766.203 Q2085.38 766.071 2085.35 765.973 Q2085.33 765.858 2085.28 765.563 L2082.4 744.741 L2082.37 744.741 L2077.79 763.038 Q2077.66 763.547 2077.66 763.809 Q2077.66 764.481 2078.14 764.891 Q2078.63 765.284 2079.94 765.301 Q2080.55 765.301 2080.55 765.662 Q2080.55 766.334 2079.94 766.334 Q2079.38 766.334 2078.22 766.285 Q2077.05 766.235 2076.48 766.235 Q2075.92 766.235 2074.79 766.285 Q2073.68 766.334 2073.14 766.334 Q2072.66 766.334 2072.66 765.924 Q2072.66 765.301 2073.27 765.301 Q2074.25 765.268 2074.92 765.071 Q2075.6 764.875 2075.97 764.497 Q2076.37 764.12 2076.55 763.743 Q2076.74 763.35 2076.89 762.776 L2081.15 745.675 Q2081.28 745.134 2081.28 745.052 Q2081.28 744.773 2081.12 744.675 Q2080.97 744.56 2080.55 744.511 Q2079.73 744.446 2079.1 744.446 Q2078.69 744.446 2078.53 744.429 Q2078.38 744.413 2078.25 744.331 Q2078.14 744.232 2078.14 744.036 Q2078.14 743.724 2078.27 743.593 Q2078.42 743.445 2078.58 743.429 Q2078.74 743.396 2079.14 743.396 L2083.74 743.396 Q2084.42 743.396 2084.56 743.511 Q2084.71 743.609 2084.78 744.167 L2087.4 763.169 L2099.66 744.036 Q2099.98 743.56 2100.14 743.478 Q2100.3 743.396 2100.96 743.396 L2105.4 743.396 Q2105.76 743.396 2105.91 743.413 Q2106.06 743.429 2106.17 743.511 Q2106.3 743.593 2106.3 743.773 Z" fill="#000000" fill-rule="nonzero" fill-opacity="1" /><path clip-path="url(#clip050)" d="M2131.35 751.692 Q2131.35 754.037 2130.51 756.365 Q2129.69 758.677 2128.25 760.579 Q2126.8 762.481 2124.97 763.956 Q2123.13 765.432 2120.98 766.252 Q2118.84 767.072 2116.74 767.072 Q2113.02 767.072 2110.57 764.629 Q2108.13 762.186 2108.13 758.103 Q2108.13 755.25 2109.41 752.414 Q2110.69 749.561 2112.72 747.446 Q2114.75 745.315 2117.43 743.986 Q2120.11 742.658 2122.77 742.658 Q2126.54 742.658 2128.94 745.167 Q2131.35 747.659 2131.35 751.692 M2128.35 750.381 Q2128.35 748.577 2127.84 747.216 Q2127.33 745.839 2126.48 745.052 Q2125.64 744.265 2124.64 743.888 Q2123.66 743.495 2122.57 743.495 Q2120.48 743.495 2118.23 744.855 Q2115.98 746.216 2114.31 748.741 Q2113.41 750.118 2112.75 751.774 Q2112.1 753.414 2111.8 754.873 Q2111.51 756.316 2111.38 757.333 Q2111.26 758.349 2111.26 759.054 Q2111.26 762.333 2112.83 764.268 Q2114.41 766.203 2116.93 766.203 Q2118.92 766.203 2120.85 765.039 Q2122.79 763.858 2124.12 762.169 Q2125.3 760.71 2126.16 758.956 Q2127.05 757.201 2127.49 755.595 Q2127.94 753.988 2128.13 752.693 Q2128.35 751.397 2128.35 750.381 Z" fill="#000000" fill-rule="nonzero" fill-opacity="1" /><path clip-path="url(#clip050)" d="M2151.91 744.986 Q2151.96 744.4 2152.87 744.4 L2182.27 744.4 Q2183.65 744.4 2183.67 744.939 Q2183.67 745.525 2182.36 745.501 L2153.2 745.501 Q2151.91 745.525 2151.91 744.986 M2151.91 735.617 Q2151.91 735.031 2152.92 735.055 L2182.22 735.055 Q2183.65 735.055 2183.67 735.617 Q2183.67 736.156 2182.46 736.156 L2152.87 736.156 Q2151.91 736.156 2151.91 735.617 Z" fill="#000000" fill-rule="nonzero" fill-opacity="1" /><path clip-path="url(#clip050)" d="M2202.17 744.541 Q2202.17 743.112 2202.94 742.573 Q2203.71 742.011 2204.53 742.011 Q2205.63 742.011 2206.26 742.714 Q2206.92 743.393 2206.92 744.354 Q2206.92 745.314 2206.26 746.017 Q2205.63 746.696 2204.53 746.696 Q2203.99 746.696 2203.71 746.602 Q2204.34 748.804 2206.26 750.397 Q2208.21 751.989 2210.76 751.989 Q2213.97 751.989 2215.89 748.874 Q2217.04 746.86 2217.04 742.292 Q2217.04 738.264 2216.17 736.249 Q2214.84 733.181 2212.1 733.181 Q2208.21 733.181 2205.91 736.53 Q2205.63 736.952 2205.3 736.976 Q2204.84 736.976 2204.72 736.718 Q2204.62 736.437 2204.62 735.711 L2204.62 721.517 Q2204.62 720.369 2205.09 720.369 Q2205.28 720.369 2205.68 720.51 Q2208.7 721.845 2212.05 721.868 Q2215.49 721.868 2218.58 720.463 Q2218.82 720.322 2218.96 720.322 Q2219.43 720.322 2219.45 720.861 Q2219.45 721.048 2219.05 721.61 Q2218.68 722.149 2217.86 722.875 Q2217.04 723.578 2215.98 724.257 Q2214.93 724.936 2213.38 725.405 Q2211.86 725.85 2210.18 725.85 Q2208.16 725.85 2206.1 725.217 L2206.1 734.563 Q2208.58 732.127 2212.19 732.127 Q2216.03 732.127 2218.68 735.219 Q2221.32 738.311 2221.32 742.62 Q2221.32 747.141 2218.19 750.233 Q2215.07 753.324 2210.86 753.324 Q2207.01 753.324 2204.58 750.584 Q2202.17 747.844 2202.17 744.541 Z" fill="#000000" fill-rule="nonzero" fill-opacity="1" /><path clip-path="url(#clip050)" d="M2226.11 736.929 Q2226.11 729.879 2227.89 726.037 Q2230.37 720.322 2236.23 720.322 Q2237.47 720.322 2238.76 720.673 Q2240.07 721.001 2241.71 722.29 Q2243.37 723.578 2244.38 725.686 Q2246.3 729.761 2246.3 736.929 Q2246.3 743.932 2244.52 747.75 Q2241.92 753.324 2236.18 753.324 Q2234.02 753.324 2231.82 752.224 Q2229.64 751.123 2228.26 748.476 Q2226.11 744.518 2226.11 736.929 M2230.09 736.343 Q2230.09 743.581 2230.6 746.462 Q2231.19 749.577 2232.78 750.935 Q2234.4 752.27 2236.18 752.27 Q2238.1 752.27 2239.69 750.842 Q2241.31 749.389 2241.8 746.274 Q2242.34 743.206 2242.32 736.343 Q2242.32 729.668 2241.85 726.998 Q2241.21 723.882 2239.53 722.641 Q2237.87 721.376 2236.18 721.376 Q2235.55 721.376 2234.87 721.564 Q2234.21 721.751 2233.25 722.29 Q2232.29 722.828 2231.54 724.163 Q2230.82 725.499 2230.46 727.513 Q2230.09 730.113 2230.09 736.343 Z" fill="#000000" fill-rule="nonzero" fill-opacity="1" /><path clip-path="url(#clip050)" d="M2250.58 751.497 Q2249.86 750.724 2249.86 749.717 Q2249.86 748.71 2250.58 747.984 Q2251.31 747.235 2252.41 747.235 Q2253.46 747.235 2254.17 747.937 Q2254.89 748.616 2254.89 749.741 Q2254.89 750.842 2254.12 751.568 Q2253.37 752.27 2252.41 752.27 Q2251.31 752.27 2250.58 751.497 Z" fill="#000000" fill-rule="nonzero" fill-opacity="1" /><path clip-path="url(#clip050)" d="M2263.05 736.929 Q2263.05 729.879 2264.83 726.037 Q2267.32 720.322 2273.17 720.322 Q2274.41 720.322 2275.7 720.673 Q2277.01 721.001 2278.65 722.29 Q2280.32 723.578 2281.32 725.686 Q2283.24 729.761 2283.24 736.929 Q2283.24 743.932 2281.46 747.75 Q2278.86 753.324 2273.13 753.324 Q2270.97 753.324 2268.77 752.224 Q2266.59 751.123 2265.21 748.476 Q2263.05 744.518 2263.05 736.929 M2267.04 736.343 Q2267.04 743.581 2267.55 746.462 Q2268.14 749.577 2269.73 750.935 Q2271.35 752.27 2273.13 752.27 Q2275.05 752.27 2276.64 750.842 Q2278.26 749.389 2278.75 746.274 Q2279.29 743.206 2279.26 736.343 Q2279.26 729.668 2278.79 726.998 Q2278.16 723.882 2276.48 722.641 Q2274.81 721.376 2273.13 721.376 Q2272.49 721.376 2271.81 721.564 Q2271.16 721.751 2270.2 722.29 Q2269.24 722.828 2268.49 724.163 Q2267.76 725.499 2267.41 727.513 Q2267.04 730.113 2267.04 736.343 Z" fill="#000000" fill-rule="nonzero" fill-opacity="1" /><polyline clip-path="url(#clip050)" style="stroke:#3da44d; stroke-linecap:round; stroke-linejoin:round; stroke-width:4; stroke-opacity:1; fill:none" points="1871.81,795.282 2014.99,795.282 "/>
<path clip-path="url(#clip050)" d="M2067.83 792.259 Q2067.83 792.399 2067.64 792.938 L2063.84 803.291 Q2063.63 803.9 2063.42 804.017 Q2063.21 804.11 2062.35 804.11 L2040.14 804.11 Q2039.6 804.11 2039.39 804.087 Q2039.18 804.064 2039.02 803.946 Q2038.85 803.829 2038.85 803.572 Q2038.85 803.103 2039.02 802.892 Q2039.2 802.682 2039.41 802.658 Q2039.63 802.635 2040.14 802.635 Q2041.31 802.635 2042.01 802.564 Q2042.72 802.494 2043.16 802.401 Q2043.63 802.283 2043.87 801.956 Q2044.12 801.628 2044.24 801.347 Q2044.36 801.042 2044.52 800.363 L2050.94 774.598 Q2051.13 773.825 2051.13 773.708 Q2051.13 773.263 2050.85 773.146 Q2050.59 773.005 2049.84 772.935 L2048.01 772.841 Q2047.45 772.841 2047.21 772.818 Q2047 772.795 2046.84 772.677 Q2046.68 772.56 2046.68 772.303 Q2046.68 771.858 2046.84 771.647 Q2047.03 771.413 2047.17 771.389 Q2047.33 771.342 2047.59 771.342 L2053.96 771.483 L2061.06 771.342 Q2061.83 771.342 2061.83 771.928 Q2061.83 772.584 2061.5 772.724 Q2061.17 772.841 2060 772.841 Q2057.75 772.841 2056.72 773.076 Q2055.72 773.31 2055.44 773.708 Q2055.18 774.083 2054.92 775.09 L2048.43 800.995 Q2048.2 801.862 2048.2 802.096 Q2048.2 802.354 2048.32 802.447 Q2048.46 802.518 2048.83 802.564 Q2049.25 802.635 2049.88 802.635 L2054.38 802.635 Q2055.74 802.635 2056.93 802.424 Q2058.13 802.213 2059.04 801.909 Q2059.98 801.604 2060.82 801.042 Q2061.67 800.48 2062.25 799.988 Q2062.86 799.473 2063.45 798.676 Q2064.06 797.857 2064.41 797.294 Q2064.78 796.709 2065.2 795.772 Q2065.62 794.812 2065.84 794.273 Q2066.07 793.711 2066.42 792.75 Q2066.63 792.259 2066.7 792.118 Q2066.77 791.978 2066.89 791.86 Q2067.03 791.743 2067.24 791.743 Q2067.52 791.743 2067.66 791.907 Q2067.83 792.071 2067.83 792.259 Z" fill="#000000" fill-rule="nonzero" fill-opacity="1" /><path clip-path="url(#clip050)" d="M2106.3 795.613 Q2106.3 796.089 2106.09 796.187 Q2105.89 796.286 2105.24 796.286 Q2104.47 796.286 2103.99 796.351 Q2103.52 796.4 2103.22 796.482 Q2102.93 796.548 2102.75 796.777 Q2102.58 797.007 2102.52 797.204 Q2102.45 797.384 2102.34 797.827 L2097.88 815.714 Q2097.71 816.321 2097.71 816.534 Q2097.71 816.747 2097.84 816.879 Q2097.99 817.01 2098.35 817.075 Q2098.71 817.124 2098.99 817.141 Q2099.29 817.141 2099.89 817.141 Q2100.65 817.141 2100.76 817.272 Q2100.83 817.354 2100.83 817.502 Q2100.83 817.813 2100.7 817.977 Q2100.57 818.125 2100.45 818.157 Q2100.35 818.174 2100.19 818.174 Q2099.5 818.174 2098.09 818.125 Q2096.68 818.075 2095.99 818.075 L2091.83 818.174 Q2091.33 818.174 2091.33 817.764 Q2091.33 817.452 2091.47 817.321 Q2091.6 817.174 2091.74 817.157 Q2091.89 817.141 2092.27 817.141 Q2093.61 817.141 2094.19 816.993 Q2094.78 816.846 2094.94 816.583 Q2095.12 816.305 2095.32 815.55 L2100.12 796.318 L2100.09 796.318 L2086.53 817.567 L2086.43 817.715 Q2086.33 817.846 2086.3 817.895 Q2086.27 817.928 2086.17 818.026 Q2086.09 818.108 2085.99 818.141 Q2085.91 818.174 2085.79 818.174 Q2085.6 818.174 2085.48 818.043 Q2085.38 817.911 2085.35 817.813 Q2085.33 817.698 2085.28 817.403 L2082.4 796.581 L2082.37 796.581 L2077.79 814.878 Q2077.66 815.387 2077.66 815.649 Q2077.66 816.321 2078.14 816.731 Q2078.63 817.124 2079.94 817.141 Q2080.55 817.141 2080.55 817.502 Q2080.55 818.174 2079.94 818.174 Q2079.38 818.174 2078.22 818.125 Q2077.05 818.075 2076.48 818.075 Q2075.92 818.075 2074.79 818.125 Q2073.68 818.174 2073.14 818.174 Q2072.66 818.174 2072.66 817.764 Q2072.66 817.141 2073.27 817.141 Q2074.25 817.108 2074.92 816.911 Q2075.6 816.715 2075.97 816.337 Q2076.37 815.96 2076.55 815.583 Q2076.74 815.19 2076.89 814.616 L2081.15 797.515 Q2081.28 796.974 2081.28 796.892 Q2081.28 796.613 2081.12 796.515 Q2080.97 796.4 2080.55 796.351 Q2079.73 796.286 2079.1 796.286 Q2078.69 796.286 2078.53 796.269 Q2078.38 796.253 2078.25 796.171 Q2078.14 796.072 2078.14 795.876 Q2078.14 795.564 2078.27 795.433 Q2078.42 795.285 2078.58 795.269 Q2078.74 795.236 2079.14 795.236 L2083.74 795.236 Q2084.42 795.236 2084.56 795.351 Q2084.71 795.449 2084.78 796.007 L2087.4 815.009 L2099.66 795.876 Q2099.98 795.4 2100.14 795.318 Q2100.3 795.236 2100.96 795.236 L2105.4 795.236 Q2105.76 795.236 2105.91 795.253 Q2106.06 795.269 2106.17 795.351 Q2106.3 795.433 2106.3 795.613 Z" fill="#000000" fill-rule="nonzero" fill-opacity="1" /><path clip-path="url(#clip050)" d="M2131.35 803.532 Q2131.35 805.877 2130.51 808.205 Q2129.69 810.517 2128.25 812.419 Q2126.8 814.321 2124.97 815.796 Q2123.13 817.272 2120.98 818.092 Q2118.84 818.912 2116.74 818.912 Q2113.02 818.912 2110.57 816.469 Q2108.13 814.026 2108.13 809.943 Q2108.13 807.09 2109.41 804.254 Q2110.69 801.401 2112.72 799.286 Q2114.75 797.155 2117.43 795.826 Q2120.11 794.498 2122.77 794.498 Q2126.54 794.498 2128.94 797.007 Q2131.35 799.499 2131.35 803.532 M2128.35 802.221 Q2128.35 800.417 2127.84 799.056 Q2127.33 797.679 2126.48 796.892 Q2125.64 796.105 2124.64 795.728 Q2123.66 795.335 2122.57 795.335 Q2120.48 795.335 2118.23 796.695 Q2115.98 798.056 2114.31 800.581 Q2113.41 801.958 2112.75 803.614 Q2112.1 805.254 2111.8 806.713 Q2111.51 808.156 2111.38 809.173 Q2111.26 810.189 2111.26 810.894 Q2111.26 814.173 2112.83 816.108 Q2114.41 818.043 2116.93 818.043 Q2118.92 818.043 2120.85 816.879 Q2122.79 815.698 2124.12 814.009 Q2125.3 812.55 2126.16 810.796 Q2127.05 809.041 2127.49 807.435 Q2127.94 805.828 2128.13 804.533 Q2128.35 803.237 2128.35 802.221 Z" fill="#000000" fill-rule="nonzero" fill-opacity="1" /><path clip-path="url(#clip050)" d="M2151.91 796.826 Q2151.96 796.24 2152.87 796.24 L2182.27 796.24 Q2183.65 796.24 2183.67 796.779 Q2183.67 797.365 2182.36 797.341 L2153.2 797.341 Q2151.91 797.365 2151.91 796.826 M2151.91 787.457 Q2151.91 786.871 2152.92 786.895 L2182.22 786.895 Q2183.65 786.895 2183.67 787.457 Q2183.67 787.996 2182.46 787.996 L2152.87 787.996 Q2151.91 787.996 2151.91 787.457 Z" fill="#000000" fill-rule="nonzero" fill-opacity="1" /><path clip-path="url(#clip050)" d="M2202.17 776.73 L2202.17 775.231 Q2207.93 775.231 2210.9 772.162 Q2211.72 772.162 2211.86 772.35 Q2212 772.537 2212 773.404 L2212 800.316 Q2212 801.745 2212.71 802.19 Q2213.41 802.635 2216.48 802.635 L2218 802.635 L2218 804.11 Q2216.31 803.97 2210.22 803.97 Q2204.13 803.97 2202.47 804.11 L2202.47 802.635 L2203.99 802.635 Q2207.01 802.635 2207.74 802.213 Q2208.47 801.768 2208.47 800.316 L2208.47 775.465 Q2205.96 776.73 2202.17 776.73 Z" fill="#000000" fill-rule="nonzero" fill-opacity="1" /><path clip-path="url(#clip050)" d="M2220.31 788.769 Q2220.31 781.719 2222.09 777.877 Q2224.58 772.162 2230.43 772.162 Q2231.67 772.162 2232.96 772.513 Q2234.27 772.841 2235.91 774.13 Q2237.57 775.418 2238.58 777.526 Q2240.5 781.601 2240.5 788.769 Q2240.5 795.772 2238.72 799.59 Q2236.12 805.164 2230.38 805.164 Q2228.23 805.164 2226.03 804.064 Q2223.85 802.963 2222.47 800.316 Q2220.31 796.358 2220.31 788.769 M2224.29 788.183 Q2224.29 795.421 2224.81 798.302 Q2225.39 801.417 2226.99 802.775 Q2228.6 804.11 2230.38 804.11 Q2232.3 804.11 2233.9 802.682 Q2235.51 801.229 2236.01 798.114 Q2236.54 795.046 2236.52 788.183 Q2236.52 781.508 2236.05 778.838 Q2235.42 775.722 2233.73 774.481 Q2232.07 773.216 2230.38 773.216 Q2229.75 773.216 2229.07 773.404 Q2228.42 773.591 2227.46 774.13 Q2226.5 774.668 2225.75 776.003 Q2225.02 777.339 2224.67 779.353 Q2224.29 781.953 2224.29 788.183 Z" fill="#000000" fill-rule="nonzero" fill-opacity="1" /><path clip-path="url(#clip050)" d="M2244.25 788.769 Q2244.25 781.719 2246.03 777.877 Q2248.52 772.162 2254.37 772.162 Q2255.61 772.162 2256.9 772.513 Q2258.21 772.841 2259.85 774.13 Q2261.52 775.418 2262.52 777.526 Q2264.44 781.601 2264.44 788.769 Q2264.44 795.772 2262.66 799.59 Q2260.06 805.164 2254.33 805.164 Q2252.17 805.164 2249.97 804.064 Q2247.79 802.963 2246.41 800.316 Q2244.25 796.358 2244.25 788.769 M2248.24 788.183 Q2248.24 795.421 2248.75 798.302 Q2249.34 801.417 2250.93 802.775 Q2252.55 804.11 2254.33 804.11 Q2256.25 804.11 2257.84 802.682 Q2259.46 801.229 2259.95 798.114 Q2260.49 795.046 2260.46 788.183 Q2260.46 781.508 2259.99 778.838 Q2259.36 775.722 2257.68 774.481 Q2256.01 773.216 2254.33 773.216 Q2253.69 773.216 2253.01 773.404 Q2252.36 773.591 2251.4 774.13 Q2250.44 774.668 2249.69 776.003 Q2248.96 777.339 2248.61 779.353 Q2248.24 781.953 2248.24 788.183 Z" fill="#000000" fill-rule="nonzero" fill-opacity="1" /><path clip-path="url(#clip050)" d="M2268.2 788.769 Q2268.2 781.719 2269.98 777.877 Q2272.46 772.162 2278.31 772.162 Q2279.56 772.162 2280.84 772.513 Q2282.16 772.841 2283.8 774.13 Q2285.46 775.418 2286.47 777.526 Q2288.39 781.601 2288.39 788.769 Q2288.39 795.772 2286.61 799.59 Q2284.01 805.164 2278.27 805.164 Q2276.11 805.164 2273.91 804.064 Q2271.73 802.963 2270.35 800.316 Q2268.2 796.358 2268.2 788.769 M2272.18 788.183 Q2272.18 795.421 2272.69 798.302 Q2273.28 801.417 2274.87 802.775 Q2276.49 804.11 2278.27 804.11 Q2280.19 804.11 2281.78 802.682 Q2283.4 801.229 2283.89 798.114 Q2284.43 795.046 2284.4 788.183 Q2284.4 781.508 2283.94 778.838 Q2283.3 775.722 2281.62 774.481 Q2279.95 773.216 2278.27 773.216 Q2277.64 773.216 2276.96 773.404 Q2276.3 773.591 2275.34 774.13 Q2274.38 774.668 2273.63 776.003 Q2272.9 777.339 2272.55 779.353 Q2272.18 781.953 2272.18 788.183 Z" fill="#000000" fill-rule="nonzero" fill-opacity="1" /><path clip-path="url(#clip050)" d="M2292.67 803.337 Q2291.95 802.564 2291.95 801.557 Q2291.95 800.55 2292.67 799.824 Q2293.4 799.075 2294.5 799.075 Q2295.55 799.075 2296.26 799.777 Q2296.98 800.456 2296.98 801.581 Q2296.98 802.682 2296.21 803.408 Q2295.46 804.11 2294.5 804.11 Q2293.4 804.11 2292.67 803.337 Z" fill="#000000" fill-rule="nonzero" fill-opacity="1" /><path clip-path="url(#clip050)" d="M2305.14 788.769 Q2305.14 781.719 2306.92 777.877 Q2309.41 772.162 2315.26 772.162 Q2316.5 772.162 2317.79 772.513 Q2319.1 772.841 2320.74 774.13 Q2322.41 775.418 2323.41 777.526 Q2325.33 781.601 2325.33 788.769 Q2325.33 795.772 2323.55 799.59 Q2320.95 805.164 2315.21 805.164 Q2313.06 805.164 2310.86 804.064 Q2308.68 802.963 2307.3 800.316 Q2305.14 796.358 2305.14 788.769 M2309.13 788.183 Q2309.13 795.421 2309.64 798.302 Q2310.23 801.417 2311.82 802.775 Q2313.43 804.11 2315.21 804.11 Q2317.14 804.11 2318.73 802.682 Q2320.34 801.229 2320.84 798.114 Q2321.38 795.046 2321.35 788.183 Q2321.35 781.508 2320.88 778.838 Q2320.25 775.722 2318.56 774.481 Q2316.9 773.216 2315.21 773.216 Q2314.58 773.216 2313.9 773.404 Q2313.25 773.591 2312.29 774.13 Q2311.33 774.668 2310.58 776.003 Q2309.85 777.339 2309.5 779.353 Q2309.13 781.953 2309.13 788.183 Z" fill="#000000" fill-rule="nonzero" fill-opacity="1" /></svg>
