<?xml version="1.0" encoding="utf-8"?>
<svg xmlns="http://www.w3.org/2000/svg" xmlns:xlink="http://www.w3.org/1999/xlink" width="600" height="400" viewBox="0 0 2400 1600">
<defs>
  <clipPath id="clip100">
    <rect x="0" y="0" width="2400" height="1600"/>
  </clipPath>
</defs>
<path clip-path="url(#clip100)" d="M0 1600 L2400 1600 L2400 0 L0 0  Z" fill="#ffffff" fill-rule="evenodd" fill-opacity="1"/>
<defs>
  <clipPath id="clip101">
    <rect x="480" y="0" width="1681" height="1600"/>
  </clipPath>
</defs>
<defs>
  <clipPath id="clip102">
    <rect x="205" y="47" width="1551" height="1332"/>
  </clipPath>
</defs>
<path clip-path="url(#clip100)" d="M205.121 1378.3 L1712.81 1378.3 L1712.81 47.2441 L205.121 47.2441  Z" fill="#ffffff" fill-rule="evenodd" fill-opacity="1"/>
<defs>
  <clipPath id="clip103">
    <rect x="205" y="47" width="1509" height="1332"/>
  </clipPath>
</defs>
<polyline clip-path="url(#clip100)" style="stroke:#000000; stroke-linecap:round; stroke-linejoin:round; stroke-width:4; stroke-opacity:1; fill:none" points="205.121,1378.3 1712.81,1378.3 "/>
<polyline clip-path="url(#clip100)" style="stroke:#000000; stroke-linecap:round; stroke-linejoin:round; stroke-width:4; stroke-opacity:1; fill:none" points="205.121,1378.3 205.121,1359.4 "/>
<polyline clip-path="url(#clip100)" style="stroke:#000000; stroke-linecap:round; stroke-linejoin:round; stroke-width:4; stroke-opacity:1; fill:none" points="582.043,1378.3 582.043,1359.4 "/>
<polyline clip-path="url(#clip100)" style="stroke:#000000; stroke-linecap:round; stroke-linejoin:round; stroke-width:4; stroke-opacity:1; fill:none" points="958.964,1378.3 958.964,1359.4 "/>
<polyline clip-path="url(#clip100)" style="stroke:#000000; stroke-linecap:round; stroke-linejoin:round; stroke-width:4; stroke-opacity:1; fill:none" points="1335.89,1378.3 1335.89,1359.4 "/>
<polyline clip-path="url(#clip100)" style="stroke:#000000; stroke-linecap:round; stroke-linejoin:round; stroke-width:4; stroke-opacity:1; fill:none" points="1712.81,1378.3 1712.81,1359.4 "/>
<path clip-path="url(#clip100)" d="M174.311 1423.87 L203.987 1423.87 L203.987 1427.8 L174.311 1427.8 L174.311 1423.87 Z" fill="#000000" fill-rule="nonzero" fill-opacity="1" /><path clip-path="url(#clip100)" d="M224.079 1424.29 Q220.746 1424.29 218.825 1426.07 Q216.926 1427.85 216.926 1430.98 Q216.926 1434.1 218.825 1435.88 Q220.746 1437.67 224.079 1437.67 Q227.413 1437.67 229.334 1435.88 Q231.255 1434.08 231.255 1430.98 Q231.255 1427.85 229.334 1426.07 Q227.436 1424.29 224.079 1424.29 M219.403 1422.3 Q216.394 1421.55 214.704 1419.49 Q213.038 1417.43 213.038 1414.47 Q213.038 1410.33 215.977 1407.92 Q218.94 1405.51 224.079 1405.51 Q229.241 1405.51 232.181 1407.92 Q235.121 1410.33 235.121 1414.47 Q235.121 1417.43 233.431 1419.49 Q231.764 1421.55 228.778 1422.3 Q232.158 1423.08 234.033 1425.37 Q235.931 1427.67 235.931 1430.98 Q235.931 1436 232.852 1438.68 Q229.797 1441.37 224.079 1441.37 Q218.362 1441.37 215.283 1438.68 Q212.227 1436 212.227 1430.98 Q212.227 1427.67 214.126 1425.37 Q216.024 1423.08 219.403 1422.3 M217.69 1414.91 Q217.69 1417.6 219.357 1419.1 Q221.047 1420.61 224.079 1420.61 Q227.088 1420.61 228.778 1419.1 Q230.491 1417.6 230.491 1414.91 Q230.491 1412.23 228.778 1410.72 Q227.088 1409.22 224.079 1409.22 Q221.047 1409.22 219.357 1410.72 Q217.69 1412.23 217.69 1414.91 Z" fill="#000000" fill-rule="nonzero" fill-opacity="1" /><path clip-path="url(#clip100)" d="M551.105 1423.87 L580.781 1423.87 L580.781 1427.8 L551.105 1427.8 L551.105 1423.87 Z" fill="#000000" fill-rule="nonzero" fill-opacity="1" /><path clip-path="url(#clip100)" d="M601.452 1421.55 Q598.304 1421.55 596.452 1423.71 Q594.624 1425.86 594.624 1429.61 Q594.624 1433.34 596.452 1435.51 Q598.304 1437.67 601.452 1437.67 Q604.6 1437.67 606.429 1435.51 Q608.281 1433.34 608.281 1429.61 Q608.281 1425.86 606.429 1423.71 Q604.6 1421.55 601.452 1421.55 M610.735 1406.9 L610.735 1411.16 Q608.975 1410.33 607.17 1409.89 Q605.387 1409.45 603.628 1409.45 Q598.999 1409.45 596.545 1412.57 Q594.114 1415.7 593.767 1422.02 Q595.133 1420 597.193 1418.94 Q599.253 1417.85 601.73 1417.85 Q606.938 1417.85 609.948 1421.02 Q612.98 1424.17 612.98 1429.61 Q612.98 1434.93 609.832 1438.15 Q606.684 1441.37 601.452 1441.37 Q595.457 1441.37 592.286 1436.79 Q589.114 1432.18 589.114 1423.45 Q589.114 1415.26 593.003 1410.4 Q596.892 1405.51 603.443 1405.51 Q605.202 1405.51 606.985 1405.86 Q608.79 1406.21 610.735 1406.9 Z" fill="#000000" fill-rule="nonzero" fill-opacity="1" /><path clip-path="url(#clip100)" d="M927.865 1423.87 L957.541 1423.87 L957.541 1427.8 L927.865 1427.8 L927.865 1423.87 Z" fill="#000000" fill-rule="nonzero" fill-opacity="1" /><path clip-path="url(#clip100)" d="M980.48 1410.21 L968.675 1428.66 L980.48 1428.66 L980.48 1410.21 M979.254 1406.14 L985.133 1406.14 L985.133 1428.66 L990.064 1428.66 L990.064 1432.55 L985.133 1432.55 L985.133 1440.7 L980.48 1440.7 L980.48 1432.55 L964.879 1432.55 L964.879 1428.04 L979.254 1406.14 Z" fill="#000000" fill-rule="nonzero" fill-opacity="1" /><path clip-path="url(#clip100)" d="M1305.83 1423.87 L1335.5 1423.87 L1335.5 1427.8 L1305.83 1427.8 L1305.83 1423.87 Z" fill="#000000" fill-rule="nonzero" fill-opacity="1" /><path clip-path="url(#clip100)" d="M1349.62 1436.76 L1365.94 1436.76 L1365.94 1440.7 L1344 1440.7 L1344 1436.76 Q1346.66 1434.01 1351.24 1429.38 Q1355.85 1424.73 1357.03 1423.38 Q1359.28 1420.86 1360.16 1419.12 Q1361.06 1417.37 1361.06 1415.68 Q1361.06 1412.92 1359.11 1411.18 Q1357.19 1409.45 1354.09 1409.45 Q1351.89 1409.45 1349.44 1410.21 Q1347.01 1410.98 1344.23 1412.53 L1344.23 1407.81 Q1347.05 1406.67 1349.51 1406.09 Q1351.96 1405.51 1354 1405.51 Q1359.37 1405.51 1362.56 1408.2 Q1365.76 1410.88 1365.76 1415.37 Q1365.76 1417.5 1364.95 1419.43 Q1364.16 1421.32 1362.05 1423.92 Q1361.48 1424.59 1358.37 1427.8 Q1355.27 1431 1349.62 1436.76 Z" fill="#000000" fill-rule="nonzero" fill-opacity="1" /><path clip-path="url(#clip100)" d="M1712.81 1409.22 Q1709.2 1409.22 1707.37 1412.78 Q1705.56 1416.32 1705.56 1423.45 Q1705.56 1430.56 1707.37 1434.12 Q1709.2 1437.67 1712.81 1437.67 Q1716.44 1437.67 1718.25 1434.12 Q1720.08 1430.56 1720.08 1423.45 Q1720.08 1416.32 1718.25 1412.78 Q1716.44 1409.22 1712.81 1409.22 M1712.81 1405.51 Q1718.62 1405.51 1721.67 1410.12 Q1724.75 1414.7 1724.75 1423.45 Q1724.75 1432.18 1721.67 1436.79 Q1718.62 1441.37 1712.81 1441.37 Q1707 1441.37 1703.92 1436.79 Q1700.86 1432.18 1700.86 1423.45 Q1700.86 1414.7 1703.92 1410.12 Q1707 1405.51 1712.81 1405.51 Z" fill="#000000" fill-rule="nonzero" fill-opacity="1" /><path clip-path="url(#clip100)" d="M972.246 1465.36 Q972.246 1470.77 970.507 1476.86 Q968.8 1482.91 966.095 1487.81 Q963.389 1492.67 959.847 1495.89 Q956.304 1499.08 952.922 1499.08 Q950.765 1499.08 949.154 1497.89 Q947.576 1496.67 946.707 1494.64 Q945.837 1492.58 945.418 1490.32 Q945 1488.03 945 1485.55 Q945 1481.85 945.805 1477.83 Q946.61 1473.77 947.963 1470.1 Q949.315 1466.39 951.215 1463.04 Q953.116 1459.66 955.209 1457.21 Q957.335 1454.73 959.718 1453.28 Q962.101 1451.84 964.323 1451.84 Q965.933 1451.84 967.222 1452.54 Q968.542 1453.22 969.38 1454.41 Q970.217 1455.57 970.797 1456.96 Q971.408 1458.34 971.698 1459.95 Q971.988 1461.53 972.117 1462.85 Q972.246 1464.14 972.246 1465.36 M967.898 1461.27 Q967.898 1459.63 967.769 1458.41 Q967.64 1457.15 967.286 1455.89 Q966.932 1454.64 966.159 1453.96 Q965.418 1453.28 964.259 1453.28 Q960.877 1453.28 957.077 1460.21 Q955.853 1462.37 954.758 1465.3 Q953.663 1468.23 953.277 1469.61 Q952.89 1471 951.988 1474.41 L965.772 1474.41 Q967.898 1465.62 967.898 1461.27 M965.193 1476.51 L951.473 1476.51 Q949.347 1484.56 949.347 1489.58 Q949.347 1493.96 950.249 1495.8 Q951.183 1497.6 952.922 1497.6 Q954.919 1497.6 956.787 1495.6 Q958.655 1493.57 960.555 1489.9 Q963.067 1485.14 965.193 1476.51 Z" fill="#000000" fill-rule="nonzero" fill-opacity="1" /><path clip-path="url(#clip100)" d="M927 1516.68 L997.969 1516.68 L997.969 1513.16 L927 1513.16  Z" fill="#000000" fill-rule="evenodd" fill-opacity="1"/>
<path clip-path="url(#clip100)" d="M954.246 1543.84 Q954.246 1549.25 952.507 1555.34 Q950.8 1561.39 948.095 1566.29 Q945.389 1571.15 941.847 1574.37 Q938.304 1577.56 934.922 1577.56 Q932.765 1577.56 931.154 1576.37 Q929.576 1575.14 928.707 1573.11 Q927.837 1571.05 927.418 1568.8 Q927 1566.51 927 1564.03 Q927 1560.33 927.805 1556.3 Q928.61 1552.24 929.963 1548.57 Q931.315 1544.87 933.215 1541.52 Q935.116 1538.14 937.209 1535.69 Q939.335 1533.21 941.718 1531.76 Q944.101 1530.31 946.323 1530.31 Q947.933 1530.31 949.222 1531.02 Q950.542 1531.7 951.38 1532.89 Q952.217 1534.05 952.797 1535.43 Q953.408 1536.82 953.698 1538.43 Q953.988 1540.01 954.117 1541.33 Q954.246 1542.61 954.246 1543.84 M949.898 1539.75 Q949.898 1538.11 949.769 1536.88 Q949.64 1535.63 949.286 1534.37 Q948.932 1533.11 948.159 1532.44 Q947.418 1531.76 946.259 1531.76 Q942.877 1531.76 939.077 1538.69 Q937.853 1540.84 936.758 1543.77 Q935.663 1546.71 935.277 1548.09 Q934.89 1549.47 933.988 1552.89 L947.772 1552.89 Q949.898 1544.1 949.898 1539.75 M947.193 1554.98 L933.473 1554.98 Q931.347 1563.03 931.347 1568.06 Q931.347 1572.44 932.249 1574.27 Q933.183 1576.08 934.922 1576.08 Q936.919 1576.08 938.787 1574.08 Q940.655 1572.05 942.555 1568.38 Q945.067 1563.61 947.193 1554.98 Z" fill="#000000" fill-rule="nonzero" fill-opacity="1" /><path clip-path="url(#clip100)" d="M983.929 1576.75 Q984.019 1577.04 983.794 1577.13 L975.294 1581.37 L979.668 1589.78 Q979.803 1589.96 979.578 1590.18 Q979.352 1590.32 979.172 1590.14 L972.522 1583.4 L965.871 1590.14 Q965.691 1590.32 965.465 1590.18 Q965.24 1589.96 965.375 1589.78 L969.749 1581.37 L961.249 1577.13 Q961.024 1577.04 961.114 1576.75 Q961.182 1576.52 961.43 1576.52 L970.808 1578.1 L972.206 1568.72 Q972.296 1568.45 972.522 1568.45 Q972.747 1568.45 972.837 1568.72 L974.235 1578.1 L983.613 1576.52 Q983.861 1576.52 983.929 1576.75 Z" fill="#000000" fill-rule="nonzero" fill-opacity="1" /><polyline clip-path="url(#clip100)" style="stroke:#000000; stroke-linecap:round; stroke-linejoin:round; stroke-width:4; stroke-opacity:1; fill:none" points="205.121,1378.3 205.121,47.2441 "/>
<polyline clip-path="url(#clip100)" style="stroke:#000000; stroke-linecap:round; stroke-linejoin:round; stroke-width:4; stroke-opacity:1; fill:none" points="205.121,1378.3 218.388,1378.3 "/>
<polyline clip-path="url(#clip100)" style="stroke:#000000; stroke-linecap:round; stroke-linejoin:round; stroke-width:4; stroke-opacity:1; fill:none" points="205.121,1188.15 218.388,1188.15 "/>
<polyline clip-path="url(#clip100)" style="stroke:#000000; stroke-linecap:round; stroke-linejoin:round; stroke-width:4; stroke-opacity:1; fill:none" points="205.121,997.997 218.388,997.997 "/>
<polyline clip-path="url(#clip100)" style="stroke:#000000; stroke-linecap:round; stroke-linejoin:round; stroke-width:4; stroke-opacity:1; fill:none" points="205.121,807.847 218.388,807.847 "/>
<polyline clip-path="url(#clip100)" style="stroke:#000000; stroke-linecap:round; stroke-linejoin:round; stroke-width:4; stroke-opacity:1; fill:none" points="205.121,617.696 218.388,617.696 "/>
<polyline clip-path="url(#clip100)" style="stroke:#000000; stroke-linecap:round; stroke-linejoin:round; stroke-width:4; stroke-opacity:1; fill:none" points="205.121,427.545 218.388,427.545 "/>
<polyline clip-path="url(#clip100)" style="stroke:#000000; stroke-linecap:round; stroke-linejoin:round; stroke-width:4; stroke-opacity:1; fill:none" points="205.121,237.395 218.388,237.395 "/>
<polyline clip-path="url(#clip100)" style="stroke:#000000; stroke-linecap:round; stroke-linejoin:round; stroke-width:4; stroke-opacity:1; fill:none" points="205.121,47.2441 218.388,47.2441 "/>
<path clip-path="url(#clip100)" d="M118.82 1391.64 L126.459 1391.64 L126.459 1365.28 L118.149 1366.94 L118.149 1362.69 L126.413 1361.02 L131.089 1361.02 L131.089 1391.64 L138.728 1391.64 L138.728 1395.58 L118.82 1395.58 L118.82 1391.64 Z" fill="#000000" fill-rule="nonzero" fill-opacity="1" /><path clip-path="url(#clip100)" d="M148.218 1361.02 L166.575 1361.02 L166.575 1364.95 L152.501 1364.95 L152.501 1373.43 Q153.519 1373.08 154.538 1372.92 Q155.556 1372.73 156.575 1372.73 Q162.362 1372.73 165.741 1375.9 Q169.121 1379.07 169.121 1384.49 Q169.121 1390.07 165.649 1393.17 Q162.177 1396.25 155.857 1396.25 Q153.681 1396.25 151.413 1395.88 Q149.167 1395.51 146.76 1394.77 L146.76 1390.07 Q148.843 1391.2 151.066 1391.76 Q153.288 1392.31 155.765 1392.31 Q159.769 1392.31 162.107 1390.21 Q164.445 1388.1 164.445 1384.49 Q164.445 1380.88 162.107 1378.77 Q159.769 1376.67 155.765 1376.67 Q153.89 1376.67 152.015 1377.08 Q150.163 1377.5 148.218 1378.38 L148.218 1361.02 Z" fill="#000000" fill-rule="nonzero" fill-opacity="1" /><path clip-path="url(#clip100)" d="M121.043 1201.49 L137.362 1201.49 L137.362 1205.43 L115.418 1205.43 L115.418 1201.49 Q118.08 1198.74 122.663 1194.11 Q127.269 1189.46 128.45 1188.11 Q130.695 1185.59 131.575 1183.85 Q132.478 1182.09 132.478 1180.4 Q132.478 1177.65 130.533 1175.91 Q128.612 1174.18 125.51 1174.18 Q123.311 1174.18 120.857 1174.94 Q118.427 1175.71 115.649 1177.26 L115.649 1172.53 Q118.473 1171.4 120.927 1170.82 Q123.38 1170.24 125.418 1170.24 Q130.788 1170.24 133.982 1172.93 Q137.177 1175.61 137.177 1180.1 Q137.177 1182.23 136.367 1184.15 Q135.579 1186.05 133.473 1188.65 Q132.894 1189.32 129.792 1192.53 Q126.691 1195.73 121.043 1201.49 Z" fill="#000000" fill-rule="nonzero" fill-opacity="1" /><path clip-path="url(#clip100)" d="M157.177 1173.95 Q153.566 1173.95 151.737 1177.51 Q149.931 1181.05 149.931 1188.18 Q149.931 1195.29 151.737 1198.85 Q153.566 1202.4 157.177 1202.4 Q160.811 1202.4 162.616 1198.85 Q164.445 1195.29 164.445 1188.18 Q164.445 1181.05 162.616 1177.51 Q160.811 1173.95 157.177 1173.95 M157.177 1170.24 Q162.987 1170.24 166.042 1174.85 Q169.121 1179.43 169.121 1188.18 Q169.121 1196.91 166.042 1201.52 Q162.987 1206.1 157.177 1206.1 Q151.366 1206.1 148.288 1201.52 Q145.232 1196.91 145.232 1188.18 Q145.232 1179.43 148.288 1174.85 Q151.366 1170.24 157.177 1170.24 Z" fill="#000000" fill-rule="nonzero" fill-opacity="1" /><path clip-path="url(#clip100)" d="M122.038 1011.34 L138.357 1011.34 L138.357 1015.28 L116.413 1015.28 L116.413 1011.34 Q119.075 1008.59 123.658 1003.96 Q128.265 999.305 129.445 997.962 Q131.691 995.439 132.57 993.703 Q133.473 991.944 133.473 990.254 Q133.473 987.5 131.529 985.763 Q129.607 984.027 126.505 984.027 Q124.306 984.027 121.853 984.791 Q119.422 985.555 116.644 987.106 L116.644 982.384 Q119.468 981.25 121.922 980.671 Q124.376 980.092 126.413 980.092 Q131.783 980.092 134.978 982.777 Q138.172 985.463 138.172 989.953 Q138.172 992.083 137.362 994.004 Q136.575 995.902 134.468 998.495 Q133.89 999.166 130.788 1002.38 Q127.686 1005.58 122.038 1011.34 Z" fill="#000000" fill-rule="nonzero" fill-opacity="1" /><path clip-path="url(#clip100)" d="M148.218 980.717 L166.575 980.717 L166.575 984.652 L152.501 984.652 L152.501 993.124 Q153.519 992.777 154.538 992.615 Q155.556 992.43 156.575 992.43 Q162.362 992.43 165.741 995.601 Q169.121 998.773 169.121 1004.19 Q169.121 1009.77 165.649 1012.87 Q162.177 1015.95 155.857 1015.95 Q153.681 1015.95 151.413 1015.58 Q149.167 1015.21 146.76 1014.47 L146.76 1009.77 Q148.843 1010.9 151.066 1011.46 Q153.288 1012.01 155.765 1012.01 Q159.769 1012.01 162.107 1009.91 Q164.445 1007.8 164.445 1004.19 Q164.445 1000.58 162.107 998.472 Q159.769 996.365 155.765 996.365 Q153.89 996.365 152.015 996.782 Q150.163 997.199 148.218 998.078 L148.218 980.717 Z" fill="#000000" fill-rule="nonzero" fill-opacity="1" /><path clip-path="url(#clip100)" d="M131.181 806.492 Q134.538 807.21 136.413 809.478 Q138.311 811.747 138.311 815.08 Q138.311 820.196 134.792 822.997 Q131.274 825.798 124.793 825.798 Q122.617 825.798 120.302 825.358 Q118.01 824.941 115.556 824.085 L115.556 819.571 Q117.501 820.705 119.816 821.284 Q122.13 821.863 124.654 821.863 Q129.052 821.863 131.343 820.127 Q133.658 818.39 133.658 815.08 Q133.658 812.025 131.505 810.312 Q129.376 808.576 125.556 808.576 L121.529 808.576 L121.529 804.733 L125.742 804.733 Q129.191 804.733 131.019 803.367 Q132.848 801.979 132.848 799.386 Q132.848 796.724 130.95 795.312 Q129.075 793.877 125.556 793.877 Q123.635 793.877 121.436 794.293 Q119.237 794.71 116.598 795.59 L116.598 791.423 Q119.26 790.682 121.575 790.312 Q123.913 789.942 125.973 789.942 Q131.297 789.942 134.399 792.372 Q137.501 794.779 137.501 798.9 Q137.501 801.77 135.857 803.761 Q134.214 805.729 131.181 806.492 Z" fill="#000000" fill-rule="nonzero" fill-opacity="1" /><path clip-path="url(#clip100)" d="M157.177 793.645 Q153.566 793.645 151.737 797.21 Q149.931 800.752 149.931 807.881 Q149.931 814.988 151.737 818.553 Q153.566 822.094 157.177 822.094 Q160.811 822.094 162.616 818.553 Q164.445 814.988 164.445 807.881 Q164.445 800.752 162.616 797.21 Q160.811 793.645 157.177 793.645 M157.177 789.942 Q162.987 789.942 166.042 794.548 Q169.121 799.131 169.121 807.881 Q169.121 816.608 166.042 821.215 Q162.987 825.798 157.177 825.798 Q151.366 825.798 148.288 821.215 Q145.232 816.608 145.232 807.881 Q145.232 799.131 148.288 794.548 Q151.366 789.942 157.177 789.942 Z" fill="#000000" fill-rule="nonzero" fill-opacity="1" /><path clip-path="url(#clip100)" d="M132.177 616.342 Q135.533 617.059 137.408 619.328 Q139.306 621.596 139.306 624.93 Q139.306 630.045 135.788 632.846 Q132.269 635.647 125.788 635.647 Q123.612 635.647 121.297 635.207 Q119.006 634.791 116.552 633.934 L116.552 629.42 Q118.496 630.555 120.811 631.133 Q123.126 631.712 125.649 631.712 Q130.047 631.712 132.339 629.976 Q134.654 628.24 134.654 624.93 Q134.654 621.874 132.501 620.161 Q130.371 618.425 126.552 618.425 L122.524 618.425 L122.524 614.583 L126.737 614.583 Q130.186 614.583 132.015 613.217 Q133.843 611.828 133.843 609.235 Q133.843 606.573 131.945 605.161 Q130.07 603.726 126.552 603.726 Q124.63 603.726 122.431 604.143 Q120.232 604.559 117.593 605.439 L117.593 601.272 Q120.255 600.532 122.57 600.161 Q124.908 599.791 126.968 599.791 Q132.292 599.791 135.394 602.221 Q138.496 604.629 138.496 608.749 Q138.496 611.62 136.853 613.61 Q135.209 615.578 132.177 616.342 Z" fill="#000000" fill-rule="nonzero" fill-opacity="1" /><path clip-path="url(#clip100)" d="M148.218 600.416 L166.575 600.416 L166.575 604.351 L152.501 604.351 L152.501 612.823 Q153.519 612.476 154.538 612.314 Q155.556 612.129 156.575 612.129 Q162.362 612.129 165.741 615.3 Q169.121 618.471 169.121 623.888 Q169.121 629.467 165.649 632.569 Q162.177 635.647 155.857 635.647 Q153.681 635.647 151.413 635.277 Q149.167 634.906 146.76 634.166 L146.76 629.467 Q148.843 630.601 151.066 631.157 Q153.288 631.712 155.765 631.712 Q159.769 631.712 162.107 629.606 Q164.445 627.499 164.445 623.888 Q164.445 620.277 162.107 618.17 Q159.769 616.064 155.765 616.064 Q153.89 616.064 152.015 616.481 Q150.163 616.897 148.218 617.777 L148.218 600.416 Z" fill="#000000" fill-rule="nonzero" fill-opacity="1" /><path clip-path="url(#clip100)" d="M129.862 414.339 L118.056 432.788 L129.862 432.788 L129.862 414.339 M128.635 410.265 L134.515 410.265 L134.515 432.788 L139.445 432.788 L139.445 436.677 L134.515 436.677 L134.515 444.825 L129.862 444.825 L129.862 436.677 L114.26 436.677 L114.26 432.163 L128.635 410.265 Z" fill="#000000" fill-rule="nonzero" fill-opacity="1" /><path clip-path="url(#clip100)" d="M157.177 413.344 Q153.566 413.344 151.737 416.909 Q149.931 420.45 149.931 427.58 Q149.931 434.686 151.737 438.251 Q153.566 441.793 157.177 441.793 Q160.811 441.793 162.616 438.251 Q164.445 434.686 164.445 427.58 Q164.445 420.45 162.616 416.909 Q160.811 413.344 157.177 413.344 M157.177 409.64 Q162.987 409.64 166.042 414.247 Q169.121 418.83 169.121 427.58 Q169.121 436.307 166.042 440.913 Q162.987 445.497 157.177 445.497 Q151.366 445.497 148.288 440.913 Q145.232 436.307 145.232 427.58 Q145.232 418.83 148.288 414.247 Q151.366 409.64 157.177 409.64 Z" fill="#000000" fill-rule="nonzero" fill-opacity="1" /><path clip-path="url(#clip100)" d="M130.857 224.189 L119.052 242.638 L130.857 242.638 L130.857 224.189 M129.63 220.115 L135.51 220.115 L135.51 242.638 L140.441 242.638 L140.441 246.527 L135.51 246.527 L135.51 254.675 L130.857 254.675 L130.857 246.527 L115.256 246.527 L115.256 242.013 L129.63 220.115 Z" fill="#000000" fill-rule="nonzero" fill-opacity="1" /><path clip-path="url(#clip100)" d="M148.218 220.115 L166.575 220.115 L166.575 224.05 L152.501 224.05 L152.501 232.522 Q153.519 232.175 154.538 232.013 Q155.556 231.828 156.575 231.828 Q162.362 231.828 165.741 234.999 Q169.121 238.17 169.121 243.587 Q169.121 249.165 165.649 252.267 Q162.177 255.346 155.857 255.346 Q153.681 255.346 151.413 254.976 Q149.167 254.605 146.76 253.865 L146.76 249.165 Q148.843 250.3 151.066 250.855 Q153.288 251.411 155.765 251.411 Q159.769 251.411 162.107 249.304 Q164.445 247.198 164.445 243.587 Q164.445 239.976 162.107 237.869 Q159.769 235.763 155.765 235.763 Q153.89 235.763 152.015 236.179 Q150.163 236.596 148.218 237.476 L148.218 220.115 Z" fill="#000000" fill-rule="nonzero" fill-opacity="1" /><path clip-path="url(#clip100)" d="M117.061 29.9641 L135.417 29.9641 L135.417 33.8993 L121.343 33.8993 L121.343 42.3714 Q122.362 42.0242 123.38 41.8622 Q124.399 41.677 125.418 41.677 Q131.205 41.677 134.584 44.8483 Q137.964 48.0196 137.964 53.4362 Q137.964 59.0149 134.492 62.1167 Q131.019 65.1954 124.7 65.1954 Q122.524 65.1954 120.255 64.825 Q118.01 64.4547 115.603 63.7139 L115.603 59.0149 Q117.686 60.1491 119.908 60.7047 Q122.13 61.2602 124.607 61.2602 Q128.612 61.2602 130.95 59.1538 Q133.288 57.0473 133.288 53.4362 Q133.288 49.8251 130.95 47.7186 Q128.612 45.6122 124.607 45.6122 Q122.732 45.6122 120.857 46.0288 Q119.006 46.4455 117.061 47.3251 L117.061 29.9641 Z" fill="#000000" fill-rule="nonzero" fill-opacity="1" /><path clip-path="url(#clip100)" d="M157.177 33.0428 Q153.566 33.0428 151.737 36.6076 Q149.931 40.1492 149.931 47.2788 Q149.931 54.3853 151.737 57.9501 Q153.566 61.4917 157.177 61.4917 Q160.811 61.4917 162.616 57.9501 Q164.445 54.3853 164.445 47.2788 Q164.445 40.1492 162.616 36.6076 Q160.811 33.0428 157.177 33.0428 M157.177 29.3391 Q162.987 29.3391 166.042 33.9456 Q169.121 38.5289 169.121 47.2788 Q169.121 56.0056 166.042 60.6121 Q162.987 65.1954 157.177 65.1954 Q151.366 65.1954 148.288 60.6121 Q145.232 56.0056 145.232 47.2788 Q145.232 38.5289 148.288 33.9456 Q151.366 29.3391 157.177 29.3391 Z" fill="#000000" fill-rule="nonzero" fill-opacity="1" /><path clip-path="url(#clip100)" d="M35.3163 700 Q35.5417 700 36.5079 700.548 Q37.4419 701.063 39.7929 702.963 Q42.1439 704.863 44.8814 707.697 Q45.9442 708.76 47.4257 710.371 Q48.9072 711.981 49.8733 713.076 L50.8395 714.171 Q54.3822 718.358 58.3435 722.029 Q58.2469 721.771 58.2147 721.321 Q58.1502 720.87 58.1502 720.548 L58.1502 720.226 Q58.1502 718.551 59.2774 715.62 Q60.1148 713.044 60.1148 711.723 Q60.1148 710.435 59.6639 709.018 Q59.213 707.601 57.8926 706.055 Q56.5722 704.509 54.5754 703.801 Q54.2533 703.672 54.1567 703.607 Q54.0279 703.543 53.8991 703.35 Q53.738 703.156 53.738 702.899 Q53.738 702.545 53.9313 702.319 Q54.1245 702.094 54.3822 702.094 Q54.9619 702.094 56.1213 702.545 Q57.2807 702.963 58.7299 703.897 Q60.1792 704.799 61.4996 705.991 Q62.7879 707.15 63.6896 708.889 Q64.5592 710.628 64.5592 712.464 Q64.5592 713.784 63.9151 714.751 Q63.3032 715.717 62.1116 716.683 Q60.5979 718.003 60.1148 718.712 Q59.5995 719.42 59.5995 720.515 Q59.5995 723.446 63.6896 726.119 Q64.2694 726.409 64.3982 726.602 Q64.5592 726.763 64.5592 727.15 Q64.527 727.955 63.8829 727.955 Q63.6252 727.955 62.498 727.246 Q61.3386 726.506 59.3096 724.863 Q57.2807 723.188 55.2517 721.159 L49.7123 715.234 Q44.1729 708.664 41.0489 706.055 Q41.0489 707.15 41.0167 707.633 Q40.9845 708.084 40.7913 708.986 Q40.5658 709.887 40.0828 711.143 Q39.0844 714.074 39.0844 715.298 Q39.0844 715.62 39.1166 715.974 Q39.1488 716.329 39.3098 717.134 Q39.4708 717.907 39.7929 718.551 Q40.0828 719.195 40.7269 719.871 Q41.3388 720.548 42.1761 720.902 Q42.4338 720.998 42.5626 721.063 Q42.6914 721.127 42.8202 721.321 Q42.9169 721.482 42.9169 721.739 Q42.9169 722.126 42.6914 722.351 Q42.466 722.544 42.1761 722.544 Q41.5964 722.544 40.4048 721.965 Q39.2132 721.385 37.925 720.419 Q36.6045 719.453 35.6383 717.874 Q34.6722 716.296 34.6722 714.557 Q34.6722 713.527 35.123 712.657 Q35.5739 711.755 36.057 711.304 Q36.5079 710.821 37.5063 710.016 Q38.2792 709.34 38.6013 709.018 Q38.9233 708.696 39.2776 708.052 Q39.5997 707.375 39.5997 706.635 Q39.5997 705.411 38.6657 704.284 Q37.6995 703.156 35.3807 701.707 Q34.6722 701.321 34.6722 700.709 Q34.6722 700 35.3163 700 Z" fill="#000000" fill-rule="nonzero" fill-opacity="1" /><polyline clip-path="url(#clip103)" style="stroke:#009af9; stroke-linecap:round; stroke-linejoin:round; stroke-width:4; stroke-opacity:1; fill:none" points="1646.92,1222.37 1217.22,1210.02 1067.03,1197.66 980.027,1185.31 920.833,1172.95 877.013,1160.6 842.813,1148.24 815.125,1135.88 792.097,1123.53 772.544,1111.17 755.667,1098.82 740.903,1086.46 727.843,1074.1 716.181,1061.75 705.683,1049.39 696.168,1037.04 687.49,1024.68 679.533,1012.32 672.202,999.967 665.419,987.611 659.119,975.255 653.248,962.899 647.757,950.544 642.609,938.188 637.768,925.832 633.206,913.476 628.896,901.12 624.816,888.764 620.947,876.408 617.27,864.052 613.77,851.696 610.434,839.34 607.249,826.984 604.204,814.628 601.29,802.272 598.496,789.916 595.815,777.56 593.239,765.204 590.763,752.848 588.378,740.492 586.081,728.136 583.866,715.78 581.727,703.424 579.661,691.068 577.664,678.712 575.732,666.356 573.861,654 572.049,641.644 570.292,629.288 568.587,616.932 566.933,604.576 565.326,592.22 563.764,579.864 562.246,567.508 560.769,555.152 559.331,542.796 557.932,530.44 556.568,518.085 555.239,505.729 553.943,493.373 552.679,481.017 551.445,468.661 550.24,456.305 549.064,443.949 547.915,431.593 546.792,419.237 545.694,406.881 544.62,394.525 543.569,382.169 542.541,369.813 541.535,357.457 540.549,345.101 539.584,332.745 538.638,320.389 537.711,308.033 536.803,295.677 535.912,283.321 535.038,270.965 534.18,258.609 533.339,246.253 532.513,233.897 531.703,221.541 530.907,209.185 530.125,196.829 529.357,184.473 528.602,172.117 527.86,159.761 527.131,147.405 526.414,135.049 525.709,122.693 525.016,110.337 524.334,97.9815 523.663,85.6255 523.003,73.2695 522.353,60.9136 521.713,48.5576 521.083,36.2016 520.463,23.8456 519.852,11.4897 519.25,-0.866302 518.657,-13.2223 518.073,-25.5782 517.497,-37.9342 516.93,-50.2902 516.37,-62.6462 515.819,-75.0021 515.275,-87.3581 514.739,-99.7141 514.21,-112.07 513.689,-124.426 513.174,-136.782 512.667,-149.138 512.166,-161.494 511.671,-173.85 511.184,-186.206 510.702,-198.562 510.227,-210.918 509.757,-223.274 509.294,-235.63 508.836,-247.986 508.384,-260.342 507.937,-272.698 507.496,-285.054 507.061,-297.41 506.63,-309.766 506.205,-322.122 505.784,-334.478 505.369,-346.834 504.958,-359.189 504.552,-371.545 504.151,-383.901 503.754,-396.257 503.362,-408.613 502.974,-420.969 502.591,-433.325 502.211,-445.681 501.836,-458.037 501.465,-470.393 501.098,-482.749 500.735,-495.105 500.376,-507.461 500.02,-519.817 499.668,-532.173 499.32,-544.529 498.976,-556.885 498.635,-569.241 498.297,-581.597 497.963,-593.953 497.632,-606.309 497.305,-618.665 496.981,-631.021 496.66,-643.377 496.342,-655.733 496.027,-668.089 495.715,-680.445 495.406,-692.801 495.101,-705.157 494.798,-717.513 494.498,-729.869 494.201,-742.225 493.906,-754.581 493.614,-766.937 493.325,-779.293 493.039,-791.648 492.755,-804.004 492.474,-816.36 492.195,-828.716 491.919,-841.072 491.645,-853.428 491.374,-865.784 491.105,-878.14 490.838,-890.496 490.574,-902.852 490.312,-915.208 490.052,-927.564 489.794,-939.92 489.539,-952.276 489.285,-964.632 489.034,-976.988 488.785,-989.344 488.538,-1001.7 488.293,-1014.06 488.05,-1026.41 487.809,-1038.77 487.57,-1051.12 487.333,-1063.48 487.098,-1075.84 486.865,-1088.19 486.633,-1100.55 486.403,-1112.9 486.176,-1125.26 485.949,-1137.62 485.725,-1149.97 485.503,-1162.33 485.282,-1174.68 485.062,-1187.04 484.845,-1199.4 484.629,-1211.75 484.415,-1224.11 484.202,-1236.46 483.991,-1248.82 483.782,-1261.18 483.574,-1273.53 483.367,-1285.89 483.162,-1298.24 482.959,-1310.6 482.757,-1322.96 482.556,-1335.31 482.357,-1347.67 482.16,-1360.02 481.964,-1372.38 481.769,-1384.74 481.575,-1397.09 481.383,-1409.45 481.192,-1421.8 481.003,-1434.16 480.815,-1446.51 480.628,-1458.87 480.442,-1471.23 480.258,-1483.58 480.075,-1495.94 479.893,-1508.29 479.712,-1520.65 479.533,-1533.01 479.355,-1545.36 479.178,-1557.72 479.002,-1570.07 478.827,-1582.43 478.654,-1594.79 478.481,-1607.14 478.31,-1619.5 478.14,-1631.85 477.971,-1644.21 477.803,-1656.57 477.636,-1668.92 477.47,-1681.28 477.305,-1693.63 477.141,-1705.99 476.978,-1718.35 476.817,-1730.7 476.656,-1743.06 476.496,-1755.41 476.337,-1767.77 476.18,-1780.13 476.023,-1792.48 475.867,-1804.84 475.712,-1817.19 475.558,-1829.55 475.405,-1841.91 475.253,-1854.26 "/>
<polyline clip-path="url(#clip103)" style="stroke:#e26f46; stroke-linecap:round; stroke-linejoin:round; stroke-width:4; stroke-opacity:1; fill:none" points="1663.11,1222.37 1325.84,1210.02 1197.24,1197.66 1117.85,1185.31 1061.01,1172.95 1017.14,1160.6 981.67,1148.24 952.069,1135.88 926.796,1123.53 904.835,1111.17 885.488,1098.82 868.252,1086.46 852.753,1074.1 838.706,1061.75 825.89,1049.39 814.13,1037.04 803.282,1024.68 793.232,1012.32 783.884,999.967 775.157,987.611 766.984,975.255 759.307,962.899 752.077,950.544 745.251,938.188 738.793,925.832 732.669,913.476 726.852,901.12 721.316,888.764 716.039,876.408 711.001,864.052 706.184,851.696 701.573,839.34 697.152,826.984 692.909,814.628 688.833,802.272 684.912,789.916 681.136,777.56 677.498,765.204 673.988,752.848 670.599,740.492 667.325,728.136 664.158,715.78 661.094,703.424 658.126,691.068 655.25,678.712 652.461,666.356 649.755,654 647.127,641.644 644.574,629.288 642.093,616.932 639.679,604.576 637.331,592.22 635.044,579.864 632.817,567.508 630.647,555.152 628.532,542.796 626.468,530.44 624.455,518.085 622.489,505.729 620.57,493.373 618.696,481.017 616.864,468.661 615.073,456.305 613.322,443.949 611.608,431.593 609.932,419.237 608.291,406.881 606.684,394.525 605.111,382.169 603.569,369.813 602.058,357.457 600.577,345.101 599.125,332.745 597.701,320.389 596.303,308.033 594.932,295.677 593.587,283.321 592.266,270.965 590.969,258.609 589.695,246.253 588.443,233.897 587.213,221.541 586.005,209.185 584.817,196.829 583.649,184.473 582.501,172.117 581.371,159.761 580.26,147.405 579.167,135.049 578.091,122.693 577.032,110.337 575.99,97.9815 574.963,85.6255 573.953,73.2695 572.957,60.9136 571.977,48.5576 571.011,36.2016 570.06,23.8456 569.122,11.4897 568.198,-0.866302 567.286,-13.2223 566.388,-25.5782 565.503,-37.9342 564.629,-50.2902 563.768,-62.6462 562.918,-75.0021 562.08,-87.3581 561.253,-99.7141 560.437,-112.07 559.632,-124.426 558.837,-136.782 558.052,-149.138 557.278,-161.494 556.513,-173.85 555.758,-186.206 555.012,-198.562 554.276,-210.918 553.548,-223.274 552.83,-235.63 552.12,-247.986 551.418,-260.342 550.725,-272.698 550.04,-285.054 549.364,-297.41 548.695,-309.766 548.033,-322.122 547.379,-334.478 546.733,-346.834 546.094,-359.189 545.462,-371.545 544.837,-383.901 544.219,-396.257 543.608,-408.613 543.003,-420.969 542.405,-433.325 541.813,-445.681 541.228,-458.037 540.648,-470.393 540.075,-482.749 539.508,-495.105 538.946,-507.461 538.391,-519.817 537.841,-532.173 537.296,-544.529 536.757,-556.885 536.224,-569.241 535.695,-581.597 535.172,-593.953 534.654,-606.309 534.141,-618.665 533.633,-631.021 533.13,-643.377 532.632,-655.733 532.138,-668.089 531.649,-680.445 531.165,-692.801 530.685,-705.157 530.209,-717.513 529.738,-729.869 529.271,-742.225 528.809,-754.581 528.35,-766.937 527.896,-779.293 527.446,-791.648 527,-804.004 526.557,-816.36 526.119,-828.716 525.684,-841.072 525.253,-853.428 524.826,-865.784 524.403,-878.14 523.983,-890.496 523.566,-902.852 523.153,-915.208 522.744,-927.564 522.338,-939.92 521.935,-952.276 521.536,-964.632 521.14,-976.988 520.747,-989.344 520.357,-1001.7 519.971,-1014.06 519.587,-1026.41 519.207,-1038.77 518.829,-1051.12 518.455,-1063.48 518.084,-1075.84 517.715,-1088.19 517.349,-1100.55 516.986,-1112.9 516.626,-1125.26 516.269,-1137.62 515.914,-1149.97 515.562,-1162.33 515.213,-1174.68 514.866,-1187.04 514.522,-1199.4 514.18,-1211.75 513.841,-1224.11 513.505,-1236.46 513.171,-1248.82 512.839,-1261.18 512.51,-1273.53 512.183,-1285.89 511.858,-1298.24 511.536,-1310.6 511.216,-1322.96 510.898,-1335.31 510.583,-1347.67 510.269,-1360.02 509.958,-1372.38 509.649,-1384.74 509.343,-1397.09 509.038,-1409.45 508.735,-1421.8 508.435,-1434.16 508.136,-1446.51 507.84,-1458.87 507.545,-1471.23 507.252,-1483.58 506.962,-1495.94 506.673,-1508.29 506.386,-1520.65 506.101,-1533.01 505.818,-1545.36 505.537,-1557.72 505.258,-1570.07 504.98,-1582.43 504.704,-1594.79 504.43,-1607.14 504.158,-1619.5 503.888,-1631.85 503.619,-1644.21 503.352,-1656.57 503.086,-1668.92 502.822,-1681.28 502.56,-1693.63 502.3,-1705.99 502.041,-1718.35 501.783,-1730.7 501.527,-1743.06 501.273,-1755.41 501.02,-1767.77 500.769,-1780.13 500.52,-1792.48 500.271,-1804.84 500.025,-1817.19 499.78,-1829.55 499.536,-1841.91 499.293,-1854.26 "/>
<polyline clip-path="url(#clip103)" style="stroke:#3da44d; stroke-linecap:round; stroke-linejoin:round; stroke-width:4; stroke-opacity:1; fill:none" points="1677.12,1222.37 1432.24,1210.02 1336.25,1197.66 1275.5,1185.31 1230.99,1172.95 1195.86,1160.6 1166.86,1148.24 1142.17,1135.88 1120.68,1123.53 1101.67,1111.17 1084.62,1098.82 1069.17,1086.46 1055.05,1074.1 1042.06,1061.75 1030.02,1049.39 1018.81,1037.04 1008.33,1024.68 998.486,1012.32 989.207,999.967 980.434,987.611 972.115,975.255 964.207,962.899 956.672,950.544 949.478,938.188 942.596,925.832 936,913.476 929.668,901.12 923.58,888.764 917.72,876.408 912.071,864.052 906.618,851.696 901.35,839.34 896.254,826.984 891.321,814.628 886.539,802.272 881.901,789.916 877.399,777.56 873.024,765.204 868.771,752.848 864.633,740.492 860.605,728.136 856.68,715.78 852.854,703.424 849.122,691.068 845.48,678.712 841.925,666.356 838.451,654 835.056,641.644 831.736,629.288 828.488,616.932 825.31,604.576 822.198,592.22 819.15,579.864 816.163,567.508 813.236,555.152 810.366,542.796 807.551,530.44 804.788,518.085 802.077,505.729 799.416,493.373 796.802,481.017 794.234,468.661 791.711,456.305 789.232,443.949 786.794,431.593 784.397,419.237 782.039,406.881 779.719,394.525 777.436,382.169 775.189,369.813 772.977,357.457 770.799,345.101 768.654,332.745 766.541,320.389 764.459,308.033 762.407,295.677 760.385,283.321 758.391,270.965 756.425,258.609 754.487,246.253 752.575,233.897 750.69,221.541 748.829,209.185 746.993,196.829 745.181,184.473 743.393,172.117 741.627,159.761 739.884,147.405 738.162,135.049 736.462,122.693 734.783,110.337 733.125,97.9815 731.486,85.6255 729.867,73.2695 728.267,60.9136 726.685,48.5576 725.122,36.2016 723.577,23.8456 722.049,11.4897 720.539,-0.866302 719.045,-13.2223 717.568,-25.5782 716.107,-37.9342 714.662,-50.2902 713.232,-62.6462 711.818,-75.0021 710.418,-87.3581 709.033,-99.7141 707.663,-112.07 706.306,-124.426 704.964,-136.782 703.635,-149.138 702.319,-161.494 701.017,-173.85 699.727,-186.206 698.45,-198.562 697.186,-210.918 695.933,-223.274 694.693,-235.63 693.464,-247.986 692.247,-260.342 691.041,-272.698 689.847,-285.054 688.663,-297.41 687.491,-309.766 686.329,-322.122 685.177,-334.478 684.036,-346.834 682.905,-359.189 681.783,-371.545 680.672,-383.901 679.57,-396.257 678.478,-408.613 677.395,-420.969 676.322,-433.325 675.257,-445.681 674.202,-458.037 673.155,-470.393 672.117,-482.749 671.088,-495.105 670.066,-507.461 669.054,-519.817 668.049,-532.173 667.052,-544.529 666.064,-556.885 665.083,-569.241 664.11,-581.597 663.145,-593.953 662.187,-606.309 661.236,-618.665 660.293,-631.021 659.357,-643.377 658.428,-655.733 657.506,-668.089 656.591,-680.445 655.683,-692.801 654.782,-705.157 653.887,-717.513 652.999,-729.869 652.117,-742.225 651.242,-754.581 650.373,-766.937 649.51,-779.293 648.654,-791.648 647.803,-804.004 646.958,-816.36 646.12,-828.716 645.287,-841.072 644.46,-853.428 643.639,-865.784 642.823,-878.14 642.013,-890.496 641.208,-902.852 640.409,-915.208 639.615,-927.564 638.827,-939.92 638.044,-952.276 637.265,-964.632 636.492,-976.988 635.725,-989.344 634.962,-1001.7 634.204,-1014.06 633.451,-1026.41 632.702,-1038.77 631.959,-1051.12 631.22,-1063.48 630.486,-1075.84 629.757,-1088.19 629.032,-1100.55 628.312,-1112.9 627.596,-1125.26 626.884,-1137.62 626.177,-1149.97 625.474,-1162.33 624.776,-1174.68 624.082,-1187.04 623.392,-1199.4 622.706,-1211.75 622.024,-1224.11 621.346,-1236.46 620.672,-1248.82 620.003,-1261.18 619.337,-1273.53 618.675,-1285.89 618.017,-1298.24 617.362,-1310.6 616.712,-1322.96 616.065,-1335.31 615.422,-1347.67 614.783,-1360.02 614.147,-1372.38 613.515,-1384.74 612.886,-1397.09 612.261,-1409.45 611.639,-1421.8 611.021,-1434.16 610.406,-1446.51 609.795,-1458.87 609.187,-1471.23 608.582,-1483.58 607.981,-1495.94 607.382,-1508.29 606.787,-1520.65 606.196,-1533.01 605.607,-1545.36 605.022,-1557.72 604.439,-1570.07 603.86,-1582.43 603.284,-1594.79 602.711,-1607.14 602.14,-1619.5 601.573,-1631.85 601.009,-1644.21 600.447,-1656.57 599.889,-1668.92 599.333,-1681.28 598.78,-1693.63 598.23,-1705.99 597.683,-1718.35 597.139,-1730.7 596.597,-1743.06 596.058,-1755.41 595.522,-1767.77 594.988,-1780.13 594.457,-1792.48 593.929,-1804.84 593.403,-1817.19 592.88,-1829.55 592.359,-1841.91 591.841,-1854.26 "/>
<path clip-path="url(#clip100)" d="M1784.4 834.9 L2352.76 834.9 L2352.76 627.54 L1784.4 627.54  Z" fill="#ffffff" fill-rule="evenodd" fill-opacity="1"/>
<polyline clip-path="url(#clip100)" style="stroke:#000000; stroke-linecap:round; stroke-linejoin:round; stroke-width:4; stroke-opacity:1; fill:none" points="1784.4,834.9 2352.76,834.9 2352.76,627.54 1784.4,627.54 1784.4,834.9 "/>
<polyline clip-path="url(#clip100)" style="stroke:#009af9; stroke-linecap:round; stroke-linejoin:round; stroke-width:4; stroke-opacity:1; fill:none" points="1808.26,679.38 1951.43,679.38 "/>
<path clip-path="url(#clip100)" d="M2004.27 676.356 Q2004.27 676.497 2004.08 677.036 L2000.29 687.388 Q2000.08 687.997 1999.87 688.114 Q1999.66 688.208 1998.79 688.208 L1976.58 688.208 Q1976.05 688.208 1975.84 688.185 Q1975.62 688.161 1975.46 688.044 Q1975.3 687.927 1975.3 687.669 Q1975.3 687.201 1975.46 686.99 Q1975.65 686.779 1975.86 686.756 Q1976.07 686.733 1976.58 686.733 Q1977.76 686.733 1978.46 686.662 Q1979.16 686.592 1979.61 686.498 Q1980.07 686.381 1980.31 686.053 Q1980.57 685.725 1980.68 685.444 Q1980.8 685.14 1980.96 684.461 L1987.38 658.696 Q1987.57 657.923 1987.57 657.806 Q1987.57 657.361 1987.29 657.244 Q1987.03 657.103 1986.28 657.033 L1984.45 656.939 Q1983.89 656.939 1983.66 656.916 Q1983.45 656.892 1983.28 656.775 Q1983.12 656.658 1983.12 656.4 Q1983.12 655.955 1983.28 655.745 Q1983.47 655.51 1983.61 655.487 Q1983.78 655.44 1984.03 655.44 L1990.4 655.581 L1997.5 655.44 Q1998.27 655.44 1998.27 656.026 Q1998.27 656.682 1997.95 656.822 Q1997.62 656.939 1996.45 656.939 Q1994.2 656.939 1993.17 657.173 Q1992.16 657.408 1991.88 657.806 Q1991.62 658.181 1991.36 659.188 L1984.88 685.093 Q1984.64 685.96 1984.64 686.194 Q1984.64 686.451 1984.76 686.545 Q1984.9 686.615 1985.27 686.662 Q1985.7 686.733 1986.33 686.733 L1990.83 686.733 Q1992.18 686.733 1993.38 686.522 Q1994.57 686.311 1995.49 686.006 Q1996.42 685.702 1997.27 685.14 Q1998.11 684.578 1998.7 684.086 Q1999.3 683.571 1999.89 682.774 Q2000.5 681.954 2000.85 681.392 Q2001.22 680.807 2001.65 679.87 Q2002.07 678.909 2002.28 678.371 Q2002.51 677.809 2002.86 676.848 Q2003.08 676.356 2003.15 676.216 Q2003.22 676.075 2003.33 675.958 Q2003.47 675.841 2003.68 675.841 Q2003.97 675.841 2004.11 676.005 Q2004.27 676.169 2004.27 676.356 Z" fill="#000000" fill-rule="nonzero" fill-opacity="1" /><path clip-path="url(#clip100)" d="M2042.75 679.711 Q2042.75 680.187 2042.53 680.285 Q2042.34 680.383 2041.68 680.383 Q2040.91 680.383 2040.44 680.449 Q2039.96 680.498 2039.67 680.58 Q2039.37 680.646 2039.19 680.875 Q2039.03 681.105 2038.96 681.301 Q2038.89 681.482 2038.78 681.925 L2034.32 699.812 Q2034.16 700.419 2034.16 700.632 Q2034.16 700.845 2034.29 700.976 Q2034.44 701.107 2034.8 701.173 Q2035.16 701.222 2035.44 701.239 Q2035.73 701.239 2036.34 701.239 Q2037.09 701.239 2037.21 701.37 Q2037.27 701.452 2037.27 701.599 Q2037.27 701.911 2037.14 702.075 Q2037.01 702.222 2036.89 702.255 Q2036.8 702.272 2036.63 702.272 Q2035.94 702.272 2034.53 702.222 Q2033.12 702.173 2032.43 702.173 L2028.27 702.272 Q2027.78 702.272 2027.78 701.862 Q2027.78 701.55 2027.91 701.419 Q2028.04 701.271 2028.19 701.255 Q2028.34 701.239 2028.71 701.239 Q2030.06 701.239 2030.63 701.091 Q2031.22 700.944 2031.39 700.681 Q2031.57 700.402 2031.76 699.648 L2036.57 680.416 L2036.53 680.416 L2022.97 701.665 L2022.88 701.813 Q2022.78 701.944 2022.75 701.993 Q2022.71 702.026 2022.61 702.124 Q2022.53 702.206 2022.43 702.239 Q2022.35 702.272 2022.24 702.272 Q2022.04 702.272 2021.93 702.14 Q2021.83 702.009 2021.79 701.911 Q2021.78 701.796 2021.73 701.501 L2018.84 680.678 L2018.81 680.678 L2014.24 698.976 Q2014.1 699.484 2014.1 699.747 Q2014.1 700.419 2014.58 700.829 Q2015.07 701.222 2016.38 701.239 Q2016.99 701.239 2016.99 701.599 Q2016.99 702.272 2016.38 702.272 Q2015.83 702.272 2014.66 702.222 Q2013.5 702.173 2012.92 702.173 Q2012.37 702.173 2011.24 702.222 Q2010.12 702.272 2009.58 702.272 Q2009.1 702.272 2009.1 701.862 Q2009.1 701.239 2009.71 701.239 Q2010.69 701.206 2011.37 701.009 Q2012.04 700.812 2012.42 700.435 Q2012.81 700.058 2012.99 699.681 Q2013.19 699.288 2013.33 698.714 L2017.6 681.613 Q2017.73 681.072 2017.73 680.99 Q2017.73 680.711 2017.56 680.613 Q2017.42 680.498 2016.99 680.449 Q2016.17 680.383 2015.55 680.383 Q2015.14 680.383 2014.97 680.367 Q2014.83 680.351 2014.69 680.269 Q2014.58 680.17 2014.58 679.973 Q2014.58 679.662 2014.71 679.531 Q2014.86 679.383 2015.02 679.367 Q2015.19 679.334 2015.58 679.334 L2020.19 679.334 Q2020.86 679.334 2021.01 679.449 Q2021.15 679.547 2021.22 680.105 L2023.84 699.107 L2036.11 679.973 Q2036.42 679.498 2036.58 679.416 Q2036.75 679.334 2037.4 679.334 L2041.85 679.334 Q2042.21 679.334 2042.35 679.35 Q2042.5 679.367 2042.62 679.449 Q2042.75 679.531 2042.75 679.711 Z" fill="#000000" fill-rule="nonzero" fill-opacity="1" /><path clip-path="url(#clip100)" d="M2067.79 687.63 Q2067.79 689.975 2066.95 692.303 Q2066.13 694.615 2064.69 696.517 Q2063.25 698.419 2061.41 699.894 Q2059.57 701.37 2057.43 702.19 Q2055.28 703.009 2053.18 703.009 Q2049.46 703.009 2047.02 700.566 Q2044.57 698.123 2044.57 694.041 Q2044.57 691.188 2045.85 688.352 Q2047.13 685.499 2049.16 683.384 Q2051.2 681.252 2053.87 679.924 Q2056.56 678.596 2059.21 678.596 Q2062.99 678.596 2065.38 681.105 Q2067.79 683.597 2067.79 687.63 M2064.79 686.319 Q2064.79 684.515 2064.28 683.154 Q2063.77 681.777 2062.92 680.99 Q2062.08 680.203 2061.08 679.826 Q2060.1 679.432 2059.02 679.432 Q2056.92 679.432 2054.67 680.793 Q2052.43 682.154 2050.75 684.679 Q2049.85 686.056 2049.2 687.712 Q2048.54 689.352 2048.25 690.811 Q2047.95 692.254 2047.82 693.27 Q2047.7 694.287 2047.7 694.992 Q2047.7 698.271 2049.28 700.206 Q2050.85 702.14 2053.38 702.14 Q2055.36 702.14 2057.3 700.976 Q2059.23 699.796 2060.56 698.107 Q2061.74 696.648 2062.61 694.894 Q2063.49 693.139 2063.94 691.532 Q2064.38 689.926 2064.58 688.63 Q2064.79 687.335 2064.79 686.319 Z" fill="#000000" fill-rule="nonzero" fill-opacity="1" /><path clip-path="url(#clip100)" d="M2088.36 680.924 Q2088.4 680.338 2089.32 680.338 L2118.71 680.338 Q2120.09 680.338 2120.12 680.877 Q2120.12 681.462 2118.81 681.439 L2089.65 681.439 Q2088.36 681.462 2088.36 680.924 M2088.36 671.555 Q2088.36 670.969 2089.36 670.993 L2118.67 670.993 Q2120.09 670.993 2120.12 671.555 Q2120.12 672.094 2118.9 672.094 L2089.32 672.094 Q2088.36 672.094 2088.36 671.555 Z" fill="#000000" fill-rule="nonzero" fill-opacity="1" /><path clip-path="url(#clip100)" d="M2183.58 675.537 Q2183.86 675.818 2183.86 676.216 Q2183.86 676.614 2183.58 676.895 Q2183.3 677.176 2182.9 677.176 L2152.87 677.176 Q2152.48 677.176 2152.19 676.895 Q2151.91 676.614 2151.91 676.216 Q2151.91 675.818 2152.19 675.537 Q2152.48 675.256 2152.87 675.256 L2182.9 675.256 Q2183.3 675.256 2183.58 675.537 Z" fill="#000000" fill-rule="nonzero" fill-opacity="1" /><path clip-path="url(#clip100)" d="M2202.17 660.827 L2202.17 659.328 Q2207.93 659.328 2210.9 656.26 Q2211.72 656.26 2211.86 656.447 Q2212 656.635 2212 657.501 L2212 684.414 Q2212 685.842 2212.71 686.288 Q2213.41 686.733 2216.48 686.733 L2218 686.733 L2218 688.208 Q2216.31 688.068 2210.22 688.068 Q2204.13 688.068 2202.47 688.208 L2202.47 686.733 L2203.99 686.733 Q2207.01 686.733 2207.74 686.311 Q2208.47 685.866 2208.47 684.414 L2208.47 659.563 Q2205.96 660.827 2202.17 660.827 Z" fill="#000000" fill-rule="nonzero" fill-opacity="1" /><path clip-path="url(#clip100)" d="M2220.31 672.866 Q2220.31 665.816 2222.09 661.975 Q2224.58 656.26 2230.43 656.26 Q2231.67 656.26 2232.96 656.611 Q2234.27 656.939 2235.91 658.227 Q2237.57 659.516 2238.58 661.624 Q2240.5 665.699 2240.5 672.866 Q2240.5 679.87 2238.72 683.688 Q2236.12 689.262 2230.38 689.262 Q2228.23 689.262 2226.03 688.161 Q2223.85 687.06 2222.47 684.414 Q2220.31 680.455 2220.31 672.866 M2224.29 672.281 Q2224.29 679.518 2224.81 682.399 Q2225.39 685.515 2226.99 686.873 Q2228.6 688.208 2230.38 688.208 Q2232.3 688.208 2233.9 686.779 Q2235.51 685.327 2236.01 682.212 Q2236.54 679.144 2236.52 672.281 Q2236.52 665.605 2236.05 662.935 Q2235.42 659.82 2233.73 658.579 Q2232.07 657.314 2230.38 657.314 Q2229.75 657.314 2229.07 657.501 Q2228.42 657.689 2227.46 658.227 Q2226.5 658.766 2225.75 660.101 Q2225.02 661.436 2224.67 663.451 Q2224.29 666.051 2224.29 672.281 Z" fill="#000000" fill-rule="nonzero" fill-opacity="1" /><path clip-path="url(#clip100)" d="M2244.79 687.435 Q2244.06 686.662 2244.06 685.655 Q2244.06 684.648 2244.79 683.922 Q2245.51 683.172 2246.62 683.172 Q2247.67 683.172 2248.37 683.875 Q2249.1 684.554 2249.1 685.679 Q2249.1 686.779 2248.33 687.505 Q2247.58 688.208 2246.62 688.208 Q2245.51 688.208 2244.79 687.435 Z" fill="#000000" fill-rule="nonzero" fill-opacity="1" /><path clip-path="url(#clip100)" d="M2257.26 672.866 Q2257.26 665.816 2259.04 661.975 Q2261.52 656.26 2267.38 656.26 Q2268.62 656.26 2269.91 656.611 Q2271.22 656.939 2272.86 658.227 Q2274.52 659.516 2275.53 661.624 Q2277.45 665.699 2277.45 672.866 Q2277.45 679.87 2275.67 683.688 Q2273.07 689.262 2267.33 689.262 Q2265.18 689.262 2262.97 688.161 Q2260.8 687.06 2259.41 684.414 Q2257.26 680.455 2257.26 672.866 M2261.24 672.281 Q2261.24 679.518 2261.76 682.399 Q2262.34 685.515 2263.93 686.873 Q2265.55 688.208 2267.33 688.208 Q2269.25 688.208 2270.84 686.779 Q2272.46 685.327 2272.95 682.212 Q2273.49 679.144 2273.47 672.281 Q2273.47 665.605 2273 662.935 Q2272.37 659.82 2270.68 658.579 Q2269.02 657.314 2267.33 657.314 Q2266.7 657.314 2266.02 657.501 Q2265.36 657.689 2264.4 658.227 Q2263.44 658.766 2262.69 660.101 Q2261.97 661.436 2261.62 663.451 Q2261.24 666.051 2261.24 672.281 Z" fill="#000000" fill-rule="nonzero" fill-opacity="1" /><polyline clip-path="url(#clip100)" style="stroke:#e26f46; stroke-linecap:round; stroke-linejoin:round; stroke-width:4; stroke-opacity:1; fill:none" points="1808.26,731.22 1951.43,731.22 "/>
<path clip-path="url(#clip100)" d="M2004.27 728.196 Q2004.27 728.337 2004.08 728.876 L2000.29 739.228 Q2000.08 739.837 1999.87 739.954 Q1999.66 740.048 1998.79 740.048 L1976.58 740.048 Q1976.05 740.048 1975.84 740.025 Q1975.62 740.001 1975.46 739.884 Q1975.3 739.767 1975.3 739.509 Q1975.3 739.041 1975.46 738.83 Q1975.65 738.619 1975.86 738.596 Q1976.07 738.573 1976.58 738.573 Q1977.76 738.573 1978.46 738.502 Q1979.16 738.432 1979.61 738.338 Q1980.07 738.221 1980.31 737.893 Q1980.57 737.565 1980.68 737.284 Q1980.8 736.98 1980.96 736.301 L1987.38 710.536 Q1987.57 709.763 1987.57 709.646 Q1987.57 709.201 1987.29 709.084 Q1987.03 708.943 1986.28 708.873 L1984.45 708.779 Q1983.89 708.779 1983.66 708.756 Q1983.45 708.732 1983.28 708.615 Q1983.12 708.498 1983.12 708.24 Q1983.12 707.795 1983.28 707.585 Q1983.47 707.35 1983.61 707.327 Q1983.78 707.28 1984.03 707.28 L1990.4 707.421 L1997.5 707.28 Q1998.27 707.28 1998.27 707.866 Q1998.27 708.522 1997.95 708.662 Q1997.62 708.779 1996.45 708.779 Q1994.2 708.779 1993.17 709.013 Q1992.16 709.248 1991.88 709.646 Q1991.62 710.021 1991.36 711.028 L1984.88 736.933 Q1984.64 737.8 1984.64 738.034 Q1984.64 738.291 1984.76 738.385 Q1984.9 738.455 1985.27 738.502 Q1985.7 738.573 1986.33 738.573 L1990.83 738.573 Q1992.18 738.573 1993.38 738.362 Q1994.57 738.151 1995.49 737.846 Q1996.42 737.542 1997.27 736.98 Q1998.11 736.418 1998.7 735.926 Q1999.3 735.411 1999.89 734.614 Q2000.5 733.794 2000.85 733.232 Q2001.22 732.647 2001.65 731.71 Q2002.07 730.749 2002.28 730.211 Q2002.51 729.649 2002.86 728.688 Q2003.08 728.196 2003.15 728.056 Q2003.22 727.915 2003.33 727.798 Q2003.47 727.681 2003.68 727.681 Q2003.97 727.681 2004.11 727.845 Q2004.27 728.009 2004.27 728.196 Z" fill="#000000" fill-rule="nonzero" fill-opacity="1" /><path clip-path="url(#clip100)" d="M2042.75 731.551 Q2042.75 732.027 2042.53 732.125 Q2042.34 732.223 2041.68 732.223 Q2040.91 732.223 2040.44 732.289 Q2039.96 732.338 2039.67 732.42 Q2039.37 732.486 2039.19 732.715 Q2039.03 732.945 2038.96 733.141 Q2038.89 733.322 2038.78 733.765 L2034.32 751.652 Q2034.16 752.259 2034.16 752.472 Q2034.16 752.685 2034.29 752.816 Q2034.44 752.947 2034.8 753.013 Q2035.16 753.062 2035.44 753.079 Q2035.73 753.079 2036.34 753.079 Q2037.09 753.079 2037.21 753.21 Q2037.27 753.292 2037.27 753.439 Q2037.27 753.751 2037.14 753.915 Q2037.01 754.062 2036.89 754.095 Q2036.8 754.112 2036.63 754.112 Q2035.94 754.112 2034.53 754.062 Q2033.12 754.013 2032.43 754.013 L2028.27 754.112 Q2027.78 754.112 2027.78 753.702 Q2027.78 753.39 2027.91 753.259 Q2028.04 753.111 2028.19 753.095 Q2028.34 753.079 2028.71 753.079 Q2030.06 753.079 2030.63 752.931 Q2031.22 752.784 2031.39 752.521 Q2031.57 752.242 2031.76 751.488 L2036.57 732.256 L2036.53 732.256 L2022.97 753.505 L2022.88 753.653 Q2022.78 753.784 2022.75 753.833 Q2022.71 753.866 2022.61 753.964 Q2022.53 754.046 2022.43 754.079 Q2022.35 754.112 2022.24 754.112 Q2022.04 754.112 2021.93 753.98 Q2021.83 753.849 2021.79 753.751 Q2021.78 753.636 2021.73 753.341 L2018.84 732.518 L2018.81 732.518 L2014.24 750.816 Q2014.1 751.324 2014.1 751.587 Q2014.1 752.259 2014.58 752.669 Q2015.07 753.062 2016.38 753.079 Q2016.99 753.079 2016.99 753.439 Q2016.99 754.112 2016.38 754.112 Q2015.83 754.112 2014.66 754.062 Q2013.5 754.013 2012.92 754.013 Q2012.37 754.013 2011.24 754.062 Q2010.12 754.112 2009.58 754.112 Q2009.1 754.112 2009.1 753.702 Q2009.1 753.079 2009.71 753.079 Q2010.69 753.046 2011.37 752.849 Q2012.04 752.652 2012.42 752.275 Q2012.81 751.898 2012.99 751.521 Q2013.19 751.128 2013.33 750.554 L2017.6 733.453 Q2017.73 732.912 2017.73 732.83 Q2017.73 732.551 2017.56 732.453 Q2017.42 732.338 2016.99 732.289 Q2016.17 732.223 2015.55 732.223 Q2015.14 732.223 2014.97 732.207 Q2014.83 732.191 2014.69 732.109 Q2014.58 732.01 2014.58 731.813 Q2014.58 731.502 2014.71 731.371 Q2014.86 731.223 2015.02 731.207 Q2015.19 731.174 2015.58 731.174 L2020.19 731.174 Q2020.86 731.174 2021.01 731.289 Q2021.15 731.387 2021.22 731.945 L2023.84 750.947 L2036.11 731.813 Q2036.42 731.338 2036.58 731.256 Q2036.75 731.174 2037.4 731.174 L2041.85 731.174 Q2042.21 731.174 2042.35 731.19 Q2042.5 731.207 2042.62 731.289 Q2042.75 731.371 2042.75 731.551 Z" fill="#000000" fill-rule="nonzero" fill-opacity="1" /><path clip-path="url(#clip100)" d="M2067.79 739.47 Q2067.79 741.815 2066.95 744.143 Q2066.13 746.455 2064.69 748.357 Q2063.25 750.259 2061.41 751.734 Q2059.57 753.21 2057.43 754.03 Q2055.28 754.849 2053.18 754.849 Q2049.46 754.849 2047.02 752.406 Q2044.57 749.963 2044.57 745.881 Q2044.57 743.028 2045.85 740.192 Q2047.13 737.339 2049.16 735.224 Q2051.2 733.092 2053.87 731.764 Q2056.56 730.436 2059.21 730.436 Q2062.99 730.436 2065.38 732.945 Q2067.79 735.437 2067.79 739.47 M2064.79 738.159 Q2064.79 736.355 2064.28 734.994 Q2063.77 733.617 2062.92 732.83 Q2062.08 732.043 2061.08 731.666 Q2060.1 731.272 2059.02 731.272 Q2056.92 731.272 2054.67 732.633 Q2052.43 733.994 2050.75 736.519 Q2049.85 737.896 2049.2 739.552 Q2048.54 741.192 2048.25 742.651 Q2047.95 744.094 2047.82 745.11 Q2047.7 746.127 2047.7 746.832 Q2047.7 750.111 2049.28 752.046 Q2050.85 753.98 2053.38 753.98 Q2055.36 753.98 2057.3 752.816 Q2059.23 751.636 2060.56 749.947 Q2061.74 748.488 2062.61 746.734 Q2063.49 744.979 2063.94 743.372 Q2064.38 741.766 2064.58 740.47 Q2064.79 739.175 2064.79 738.159 Z" fill="#000000" fill-rule="nonzero" fill-opacity="1" /><path clip-path="url(#clip100)" d="M2088.36 732.764 Q2088.4 732.178 2089.32 732.178 L2118.71 732.178 Q2120.09 732.178 2120.12 732.717 Q2120.12 733.302 2118.81 733.279 L2089.65 733.279 Q2088.36 733.302 2088.36 732.764 M2088.36 723.395 Q2088.36 722.809 2089.36 722.833 L2118.67 722.833 Q2120.09 722.833 2120.12 723.395 Q2120.12 723.934 2118.9 723.934 L2089.32 723.934 Q2088.36 723.934 2088.36 723.395 Z" fill="#000000" fill-rule="nonzero" fill-opacity="1" /><path clip-path="url(#clip100)" d="M2183.58 727.377 Q2183.86 727.658 2183.86 728.056 Q2183.86 728.454 2183.58 728.735 Q2183.3 729.016 2182.9 729.016 L2152.87 729.016 Q2152.48 729.016 2152.19 728.735 Q2151.91 728.454 2151.91 728.056 Q2151.91 727.658 2152.19 727.377 Q2152.48 727.096 2152.87 727.096 L2182.9 727.096 Q2183.3 727.096 2183.58 727.377 Z" fill="#000000" fill-rule="nonzero" fill-opacity="1" /><path clip-path="url(#clip100)" d="M2202.17 732.319 Q2202.17 730.89 2202.94 730.351 Q2203.71 729.789 2204.53 729.789 Q2205.63 729.789 2206.26 730.492 Q2206.92 731.171 2206.92 732.131 Q2206.92 733.092 2206.26 733.794 Q2205.63 734.474 2204.53 734.474 Q2203.99 734.474 2203.71 734.38 Q2204.34 736.582 2206.26 738.174 Q2208.21 739.767 2210.76 739.767 Q2213.97 739.767 2215.89 736.652 Q2217.04 734.638 2217.04 730.07 Q2217.04 726.042 2216.17 724.027 Q2214.84 720.959 2212.1 720.959 Q2208.21 720.959 2205.91 724.308 Q2205.63 724.73 2205.3 724.753 Q2204.84 724.753 2204.72 724.496 Q2204.62 724.215 2204.62 723.488 L2204.62 709.294 Q2204.62 708.147 2205.09 708.147 Q2205.28 708.147 2205.68 708.287 Q2208.7 709.622 2212.05 709.646 Q2215.49 709.646 2218.58 708.24 Q2218.82 708.1 2218.96 708.1 Q2219.43 708.1 2219.45 708.639 Q2219.45 708.826 2219.05 709.388 Q2218.68 709.927 2217.86 710.653 Q2217.04 711.356 2215.98 712.035 Q2214.93 712.714 2213.38 713.183 Q2211.86 713.628 2210.18 713.628 Q2208.16 713.628 2206.1 712.995 L2206.1 722.341 Q2208.58 719.905 2212.19 719.905 Q2216.03 719.905 2218.68 722.997 Q2221.32 726.088 2221.32 730.398 Q2221.32 734.919 2218.19 738.01 Q2215.07 741.102 2210.86 741.102 Q2207.01 741.102 2204.58 738.362 Q2202.17 735.621 2202.17 732.319 Z" fill="#000000" fill-rule="nonzero" fill-opacity="1" /><path clip-path="url(#clip100)" d="M2226.11 724.706 Q2226.11 717.656 2227.89 713.815 Q2230.37 708.1 2236.23 708.1 Q2237.47 708.1 2238.76 708.451 Q2240.07 708.779 2241.71 710.067 Q2243.37 711.356 2244.38 713.464 Q2246.3 717.539 2246.3 724.706 Q2246.3 731.71 2244.52 735.528 Q2241.92 741.102 2236.18 741.102 Q2234.02 741.102 2231.82 740.001 Q2229.64 738.9 2228.26 736.254 Q2226.11 732.295 2226.11 724.706 M2230.09 724.121 Q2230.09 731.358 2230.6 734.239 Q2231.19 737.355 2232.78 738.713 Q2234.4 740.048 2236.18 740.048 Q2238.1 740.048 2239.69 738.619 Q2241.31 737.167 2241.8 734.052 Q2242.34 730.984 2242.32 724.121 Q2242.32 717.445 2241.85 714.775 Q2241.21 711.66 2239.53 710.419 Q2237.87 709.154 2236.18 709.154 Q2235.55 709.154 2234.87 709.341 Q2234.21 709.529 2233.25 710.067 Q2232.29 710.606 2231.54 711.941 Q2230.82 713.276 2230.46 715.291 Q2230.09 717.891 2230.09 724.121 Z" fill="#000000" fill-rule="nonzero" fill-opacity="1" /><path clip-path="url(#clip100)" d="M2250.58 739.275 Q2249.86 738.502 2249.86 737.495 Q2249.86 736.488 2250.58 735.762 Q2251.31 735.012 2252.41 735.012 Q2253.46 735.012 2254.17 735.715 Q2254.89 736.394 2254.89 737.519 Q2254.89 738.619 2254.12 739.345 Q2253.37 740.048 2252.41 740.048 Q2251.31 740.048 2250.58 739.275 Z" fill="#000000" fill-rule="nonzero" fill-opacity="1" /><path clip-path="url(#clip100)" d="M2263.05 724.706 Q2263.05 717.656 2264.83 713.815 Q2267.32 708.1 2273.17 708.1 Q2274.41 708.1 2275.7 708.451 Q2277.01 708.779 2278.65 710.067 Q2280.32 711.356 2281.32 713.464 Q2283.24 717.539 2283.24 724.706 Q2283.24 731.71 2281.46 735.528 Q2278.86 741.102 2273.13 741.102 Q2270.97 741.102 2268.77 740.001 Q2266.59 738.9 2265.21 736.254 Q2263.05 732.295 2263.05 724.706 M2267.04 724.121 Q2267.04 731.358 2267.55 734.239 Q2268.14 737.355 2269.73 738.713 Q2271.35 740.048 2273.13 740.048 Q2275.05 740.048 2276.64 738.619 Q2278.26 737.167 2278.75 734.052 Q2279.29 730.984 2279.26 724.121 Q2279.26 717.445 2278.79 714.775 Q2278.16 711.66 2276.48 710.419 Q2274.81 709.154 2273.13 709.154 Q2272.49 709.154 2271.81 709.341 Q2271.16 709.529 2270.2 710.067 Q2269.24 710.606 2268.49 711.941 Q2267.76 713.276 2267.41 715.291 Q2267.04 717.891 2267.04 724.121 Z" fill="#000000" fill-rule="nonzero" fill-opacity="1" /><polyline clip-path="url(#clip100)" style="stroke:#3da44d; stroke-linecap:round; stroke-linejoin:round; stroke-width:4; stroke-opacity:1; fill:none" points="1808.26,783.06 1951.43,783.06 "/>
<path clip-path="url(#clip100)" d="M2004.27 780.036 Q2004.27 780.177 2004.08 780.716 L2000.29 791.068 Q2000.08 791.677 1999.87 791.794 Q1999.66 791.888 1998.79 791.888 L1976.58 791.888 Q1976.05 791.888 1975.84 791.865 Q1975.62 791.841 1975.46 791.724 Q1975.3 791.607 1975.3 791.349 Q1975.3 790.881 1975.46 790.67 Q1975.65 790.459 1975.86 790.436 Q1976.07 790.413 1976.58 790.413 Q1977.76 790.413 1978.46 790.342 Q1979.16 790.272 1979.61 790.178 Q1980.07 790.061 1980.31 789.733 Q1980.57 789.405 1980.68 789.124 Q1980.8 788.82 1980.96 788.141 L1987.38 762.376 Q1987.57 761.603 1987.57 761.486 Q1987.57 761.041 1987.29 760.924 Q1987.03 760.783 1986.28 760.713 L1984.45 760.619 Q1983.89 760.619 1983.66 760.596 Q1983.45 760.572 1983.28 760.455 Q1983.12 760.338 1983.12 760.08 Q1983.12 759.635 1983.28 759.425 Q1983.47 759.19 1983.61 759.167 Q1983.78 759.12 1984.03 759.12 L1990.4 759.261 L1997.5 759.12 Q1998.27 759.12 1998.27 759.706 Q1998.27 760.362 1997.95 760.502 Q1997.62 760.619 1996.45 760.619 Q1994.2 760.619 1993.17 760.853 Q1992.16 761.088 1991.88 761.486 Q1991.62 761.861 1991.36 762.868 L1984.88 788.773 Q1984.64 789.64 1984.64 789.874 Q1984.64 790.131 1984.76 790.225 Q1984.9 790.295 1985.27 790.342 Q1985.7 790.413 1986.33 790.413 L1990.83 790.413 Q1992.18 790.413 1993.38 790.202 Q1994.57 789.991 1995.49 789.686 Q1996.42 789.382 1997.27 788.82 Q1998.11 788.258 1998.7 787.766 Q1999.3 787.251 1999.89 786.454 Q2000.5 785.634 2000.85 785.072 Q2001.22 784.487 2001.65 783.55 Q2002.07 782.589 2002.28 782.051 Q2002.51 781.489 2002.86 780.528 Q2003.08 780.036 2003.15 779.896 Q2003.22 779.755 2003.33 779.638 Q2003.47 779.521 2003.68 779.521 Q2003.97 779.521 2004.11 779.685 Q2004.27 779.849 2004.27 780.036 Z" fill="#000000" fill-rule="nonzero" fill-opacity="1" /><path clip-path="url(#clip100)" d="M2042.75 783.391 Q2042.75 783.867 2042.53 783.965 Q2042.34 784.063 2041.68 784.063 Q2040.91 784.063 2040.44 784.129 Q2039.96 784.178 2039.67 784.26 Q2039.37 784.326 2039.19 784.555 Q2039.03 784.785 2038.96 784.981 Q2038.89 785.162 2038.78 785.605 L2034.32 803.492 Q2034.16 804.099 2034.16 804.312 Q2034.16 804.525 2034.29 804.656 Q2034.44 804.787 2034.8 804.853 Q2035.16 804.902 2035.44 804.919 Q2035.73 804.919 2036.34 804.919 Q2037.09 804.919 2037.21 805.05 Q2037.27 805.132 2037.27 805.279 Q2037.27 805.591 2037.14 805.755 Q2037.01 805.902 2036.89 805.935 Q2036.8 805.952 2036.63 805.952 Q2035.94 805.952 2034.53 805.902 Q2033.12 805.853 2032.43 805.853 L2028.27 805.952 Q2027.78 805.952 2027.78 805.542 Q2027.78 805.23 2027.91 805.099 Q2028.04 804.951 2028.19 804.935 Q2028.34 804.919 2028.71 804.919 Q2030.06 804.919 2030.63 804.771 Q2031.22 804.624 2031.39 804.361 Q2031.57 804.082 2031.76 803.328 L2036.57 784.096 L2036.53 784.096 L2022.97 805.345 L2022.88 805.493 Q2022.78 805.624 2022.75 805.673 Q2022.71 805.706 2022.61 805.804 Q2022.53 805.886 2022.43 805.919 Q2022.35 805.952 2022.24 805.952 Q2022.04 805.952 2021.93 805.82 Q2021.83 805.689 2021.79 805.591 Q2021.78 805.476 2021.73 805.181 L2018.84 784.358 L2018.81 784.358 L2014.24 802.656 Q2014.1 803.164 2014.1 803.427 Q2014.1 804.099 2014.58 804.509 Q2015.07 804.902 2016.38 804.919 Q2016.99 804.919 2016.99 805.279 Q2016.99 805.952 2016.38 805.952 Q2015.83 805.952 2014.66 805.902 Q2013.5 805.853 2012.92 805.853 Q2012.37 805.853 2011.24 805.902 Q2010.12 805.952 2009.58 805.952 Q2009.1 805.952 2009.1 805.542 Q2009.1 804.919 2009.71 804.919 Q2010.69 804.886 2011.37 804.689 Q2012.04 804.492 2012.42 804.115 Q2012.81 803.738 2012.99 803.361 Q2013.19 802.968 2013.33 802.394 L2017.6 785.293 Q2017.73 784.752 2017.73 784.67 Q2017.73 784.391 2017.56 784.293 Q2017.42 784.178 2016.99 784.129 Q2016.17 784.063 2015.55 784.063 Q2015.14 784.063 2014.97 784.047 Q2014.83 784.031 2014.69 783.949 Q2014.58 783.85 2014.58 783.653 Q2014.58 783.342 2014.71 783.211 Q2014.86 783.063 2015.02 783.047 Q2015.19 783.014 2015.58 783.014 L2020.19 783.014 Q2020.86 783.014 2021.01 783.129 Q2021.15 783.227 2021.22 783.785 L2023.84 802.787 L2036.11 783.653 Q2036.42 783.178 2036.58 783.096 Q2036.75 783.014 2037.4 783.014 L2041.85 783.014 Q2042.21 783.014 2042.35 783.03 Q2042.5 783.047 2042.62 783.129 Q2042.75 783.211 2042.75 783.391 Z" fill="#000000" fill-rule="nonzero" fill-opacity="1" /><path clip-path="url(#clip100)" d="M2067.79 791.31 Q2067.79 793.655 2066.95 795.983 Q2066.13 798.295 2064.69 800.197 Q2063.25 802.099 2061.41 803.574 Q2059.57 805.05 2057.43 805.87 Q2055.28 806.689 2053.18 806.689 Q2049.46 806.689 2047.02 804.246 Q2044.57 801.803 2044.57 797.721 Q2044.57 794.868 2045.85 792.032 Q2047.13 789.179 2049.16 787.064 Q2051.2 784.932 2053.87 783.604 Q2056.56 782.276 2059.21 782.276 Q2062.99 782.276 2065.38 784.785 Q2067.79 787.277 2067.79 791.31 M2064.79 789.999 Q2064.79 788.195 2064.28 786.834 Q2063.77 785.457 2062.92 784.67 Q2062.08 783.883 2061.08 783.506 Q2060.1 783.112 2059.02 783.112 Q2056.92 783.112 2054.67 784.473 Q2052.43 785.834 2050.75 788.359 Q2049.85 789.736 2049.2 791.392 Q2048.54 793.032 2048.25 794.491 Q2047.95 795.934 2047.82 796.95 Q2047.7 797.967 2047.7 798.672 Q2047.7 801.951 2049.28 803.886 Q2050.85 805.82 2053.38 805.82 Q2055.36 805.82 2057.3 804.656 Q2059.23 803.476 2060.56 801.787 Q2061.74 800.328 2062.61 798.574 Q2063.49 796.819 2063.94 795.212 Q2064.38 793.606 2064.58 792.31 Q2064.79 791.015 2064.79 789.999 Z" fill="#000000" fill-rule="nonzero" fill-opacity="1" /><path clip-path="url(#clip100)" d="M2088.36 784.604 Q2088.4 784.018 2089.32 784.018 L2118.71 784.018 Q2120.09 784.018 2120.12 784.557 Q2120.12 785.142 2118.81 785.119 L2089.65 785.119 Q2088.36 785.142 2088.36 784.604 M2088.36 775.235 Q2088.36 774.649 2089.36 774.673 L2118.67 774.673 Q2120.09 774.673 2120.12 775.235 Q2120.12 775.774 2118.9 775.774 L2089.32 775.774 Q2088.36 775.774 2088.36 775.235 Z" fill="#000000" fill-rule="nonzero" fill-opacity="1" /><path clip-path="url(#clip100)" d="M2183.58 779.217 Q2183.86 779.498 2183.86 779.896 Q2183.86 780.294 2183.58 780.575 Q2183.3 780.856 2182.9 780.856 L2152.87 780.856 Q2152.48 780.856 2152.19 780.575 Q2151.91 780.294 2151.91 779.896 Q2151.91 779.498 2152.19 779.217 Q2152.48 778.936 2152.87 778.936 L2182.9 778.936 Q2183.3 778.936 2183.58 779.217 Z" fill="#000000" fill-rule="nonzero" fill-opacity="1" /><path clip-path="url(#clip100)" d="M2202.17 764.507 L2202.17 763.008 Q2207.93 763.008 2210.9 759.94 Q2211.72 759.94 2211.86 760.127 Q2212 760.315 2212 761.181 L2212 788.094 Q2212 789.522 2212.71 789.968 Q2213.41 790.413 2216.48 790.413 L2218 790.413 L2218 791.888 Q2216.31 791.748 2210.22 791.748 Q2204.13 791.748 2202.47 791.888 L2202.47 790.413 L2203.99 790.413 Q2207.01 790.413 2207.74 789.991 Q2208.47 789.546 2208.47 788.094 L2208.47 763.243 Q2205.96 764.507 2202.17 764.507 Z" fill="#000000" fill-rule="nonzero" fill-opacity="1" /><path clip-path="url(#clip100)" d="M2220.31 776.546 Q2220.31 769.496 2222.09 765.655 Q2224.58 759.94 2230.43 759.94 Q2231.67 759.94 2232.96 760.291 Q2234.27 760.619 2235.91 761.907 Q2237.57 763.196 2238.58 765.304 Q2240.5 769.379 2240.5 776.546 Q2240.5 783.55 2238.72 787.368 Q2236.12 792.942 2230.38 792.942 Q2228.23 792.942 2226.03 791.841 Q2223.85 790.74 2222.47 788.094 Q2220.31 784.135 2220.31 776.546 M2224.29 775.961 Q2224.29 783.198 2224.81 786.079 Q2225.39 789.195 2226.99 790.553 Q2228.6 791.888 2230.38 791.888 Q2232.3 791.888 2233.9 790.459 Q2235.51 789.007 2236.01 785.892 Q2236.54 782.824 2236.52 775.961 Q2236.52 769.285 2236.05 766.615 Q2235.42 763.5 2233.73 762.259 Q2232.07 760.994 2230.38 760.994 Q2229.75 760.994 2229.07 761.181 Q2228.42 761.369 2227.46 761.907 Q2226.5 762.446 2225.75 763.781 Q2225.02 765.116 2224.67 767.131 Q2224.29 769.731 2224.29 775.961 Z" fill="#000000" fill-rule="nonzero" fill-opacity="1" /><path clip-path="url(#clip100)" d="M2244.25 776.546 Q2244.25 769.496 2246.03 765.655 Q2248.52 759.94 2254.37 759.94 Q2255.61 759.94 2256.9 760.291 Q2258.21 760.619 2259.85 761.907 Q2261.52 763.196 2262.52 765.304 Q2264.44 769.379 2264.44 776.546 Q2264.44 783.55 2262.66 787.368 Q2260.06 792.942 2254.33 792.942 Q2252.17 792.942 2249.97 791.841 Q2247.79 790.74 2246.41 788.094 Q2244.25 784.135 2244.25 776.546 M2248.24 775.961 Q2248.24 783.198 2248.75 786.079 Q2249.34 789.195 2250.93 790.553 Q2252.55 791.888 2254.33 791.888 Q2256.25 791.888 2257.84 790.459 Q2259.46 789.007 2259.95 785.892 Q2260.49 782.824 2260.46 775.961 Q2260.46 769.285 2259.99 766.615 Q2259.36 763.5 2257.68 762.259 Q2256.01 760.994 2254.33 760.994 Q2253.69 760.994 2253.01 761.181 Q2252.36 761.369 2251.4 761.907 Q2250.44 762.446 2249.69 763.781 Q2248.96 765.116 2248.61 767.131 Q2248.24 769.731 2248.24 775.961 Z" fill="#000000" fill-rule="nonzero" fill-opacity="1" /><path clip-path="url(#clip100)" d="M2268.2 776.546 Q2268.2 769.496 2269.98 765.655 Q2272.46 759.94 2278.31 759.94 Q2279.56 759.94 2280.84 760.291 Q2282.16 760.619 2283.8 761.907 Q2285.46 763.196 2286.47 765.304 Q2288.39 769.379 2288.39 776.546 Q2288.39 783.55 2286.61 787.368 Q2284.01 792.942 2278.27 792.942 Q2276.11 792.942 2273.91 791.841 Q2271.73 790.74 2270.35 788.094 Q2268.2 784.135 2268.2 776.546 M2272.18 775.961 Q2272.18 783.198 2272.69 786.079 Q2273.28 789.195 2274.87 790.553 Q2276.49 791.888 2278.27 791.888 Q2280.19 791.888 2281.78 790.459 Q2283.4 789.007 2283.89 785.892 Q2284.43 782.824 2284.4 775.961 Q2284.4 769.285 2283.94 766.615 Q2283.3 763.5 2281.62 762.259 Q2279.95 760.994 2278.27 760.994 Q2277.64 760.994 2276.96 761.181 Q2276.3 761.369 2275.34 761.907 Q2274.38 762.446 2273.63 763.781 Q2272.9 765.116 2272.55 767.131 Q2272.18 769.731 2272.18 775.961 Z" fill="#000000" fill-rule="nonzero" fill-opacity="1" /><path clip-path="url(#clip100)" d="M2292.67 791.115 Q2291.95 790.342 2291.95 789.335 Q2291.95 788.328 2292.67 787.602 Q2293.4 786.852 2294.5 786.852 Q2295.55 786.852 2296.26 787.555 Q2296.98 788.234 2296.98 789.359 Q2296.98 790.459 2296.21 791.185 Q2295.46 791.888 2294.5 791.888 Q2293.4 791.888 2292.67 791.115 Z" fill="#000000" fill-rule="nonzero" fill-opacity="1" /><path clip-path="url(#clip100)" d="M2305.14 776.546 Q2305.14 769.496 2306.92 765.655 Q2309.41 759.94 2315.26 759.94 Q2316.5 759.94 2317.79 760.291 Q2319.1 760.619 2320.74 761.907 Q2322.41 763.196 2323.41 765.304 Q2325.33 769.379 2325.33 776.546 Q2325.33 783.55 2323.55 787.368 Q2320.95 792.942 2315.21 792.942 Q2313.06 792.942 2310.86 791.841 Q2308.68 790.74 2307.3 788.094 Q2305.14 784.135 2305.14 776.546 M2309.13 775.961 Q2309.13 783.198 2309.64 786.079 Q2310.23 789.195 2311.82 790.553 Q2313.43 791.888 2315.21 791.888 Q2317.14 791.888 2318.73 790.459 Q2320.34 789.007 2320.84 785.892 Q2321.38 782.824 2321.35 775.961 Q2321.35 769.285 2320.88 766.615 Q2320.25 763.5 2318.56 762.259 Q2316.9 760.994 2315.21 760.994 Q2314.58 760.994 2313.9 761.181 Q2313.25 761.369 2312.29 761.907 Q2311.33 762.446 2310.58 763.781 Q2309.85 765.116 2309.5 767.131 Q2309.13 769.731 2309.13 775.961 Z" fill="#000000" fill-rule="nonzero" fill-opacity="1" /></svg>
