<?xml version="1.0" encoding="utf-8"?>
<svg xmlns="http://www.w3.org/2000/svg" xmlns:xlink="http://www.w3.org/1999/xlink" width="600" height="400" viewBox="0 0 2400 1600">
<defs>
  <clipPath id="clip140">
    <rect x="0" y="0" width="2400" height="1600"/>
  </clipPath>
</defs>
<path clip-path="url(#clip140)" d="M0 1600 L2400 1600 L2400 0 L0 0  Z" fill="#ffffff" fill-rule="evenodd" fill-opacity="1"/>
<defs>
  <clipPath id="clip141">
    <rect x="480" y="0" width="1681" height="1600"/>
  </clipPath>
</defs>
<defs>
  <clipPath id="clip142">
    <rect x="205" y="47" width="1614" height="1332"/>
  </clipPath>
</defs>
<path clip-path="url(#clip140)" d="M205.121 1378.3 L1776.36 1378.3 L1776.36 47.2441 L205.121 47.2441  Z" fill="#ffffff" fill-rule="evenodd" fill-opacity="1"/>
<defs>
  <clipPath id="clip143">
    <rect x="205" y="47" width="1572" height="1332"/>
  </clipPath>
</defs>
<polyline clip-path="url(#clip140)" style="stroke:#000000; stroke-linecap:round; stroke-linejoin:round; stroke-width:4; stroke-opacity:1; fill:none" points="205.121,1378.3 1776.36,1378.3 "/>
<polyline clip-path="url(#clip140)" style="stroke:#000000; stroke-linecap:round; stroke-linejoin:round; stroke-width:4; stroke-opacity:1; fill:none" points="205.121,1378.3 205.121,1359.4 "/>
<polyline clip-path="url(#clip140)" style="stroke:#000000; stroke-linecap:round; stroke-linejoin:round; stroke-width:4; stroke-opacity:1; fill:none" points="597.932,1378.3 597.932,1359.4 "/>
<polyline clip-path="url(#clip140)" style="stroke:#000000; stroke-linecap:round; stroke-linejoin:round; stroke-width:4; stroke-opacity:1; fill:none" points="990.742,1378.3 990.742,1359.4 "/>
<polyline clip-path="url(#clip140)" style="stroke:#000000; stroke-linecap:round; stroke-linejoin:round; stroke-width:4; stroke-opacity:1; fill:none" points="1383.55,1378.3 1383.55,1359.4 "/>
<polyline clip-path="url(#clip140)" style="stroke:#000000; stroke-linecap:round; stroke-linejoin:round; stroke-width:4; stroke-opacity:1; fill:none" points="1776.36,1378.3 1776.36,1359.4 "/>
<path clip-path="url(#clip140)" d="M205.121 1409.22 Q201.51 1409.22 199.681 1412.78 Q197.876 1416.32 197.876 1423.45 Q197.876 1430.56 199.681 1434.12 Q201.51 1437.67 205.121 1437.67 Q208.755 1437.67 210.561 1434.12 Q212.389 1430.56 212.389 1423.45 Q212.389 1416.32 210.561 1412.78 Q208.755 1409.22 205.121 1409.22 M205.121 1405.51 Q210.931 1405.51 213.987 1410.12 Q217.065 1414.7 217.065 1423.45 Q217.065 1432.18 213.987 1436.79 Q210.931 1441.37 205.121 1441.37 Q199.311 1441.37 196.232 1436.79 Q193.177 1432.18 193.177 1423.45 Q193.177 1414.7 196.232 1410.12 Q199.311 1405.51 205.121 1405.51 Z" fill="#000000" fill-rule="nonzero" fill-opacity="1" /><path clip-path="url(#clip140)" d="M588.314 1436.76 L595.953 1436.76 L595.953 1410.4 L587.642 1412.06 L587.642 1407.81 L595.906 1406.14 L600.582 1406.14 L600.582 1436.76 L608.221 1436.76 L608.221 1440.7 L588.314 1440.7 L588.314 1436.76 Z" fill="#000000" fill-rule="nonzero" fill-opacity="1" /><path clip-path="url(#clip140)" d="M985.395 1436.76 L1001.71 1436.76 L1001.71 1440.7 L979.77 1440.7 L979.77 1436.76 Q982.432 1434.01 987.016 1429.38 Q991.622 1424.73 992.803 1423.38 Q995.048 1420.86 995.928 1419.12 Q996.83 1417.37 996.83 1415.68 Q996.83 1412.92 994.886 1411.18 Q992.965 1409.45 989.863 1409.45 Q987.664 1409.45 985.21 1410.21 Q982.78 1410.98 980.002 1412.53 L980.002 1407.81 Q982.826 1406.67 985.28 1406.09 Q987.733 1405.51 989.77 1405.51 Q995.141 1405.51 998.335 1408.2 Q1001.53 1410.88 1001.53 1415.37 Q1001.53 1417.5 1000.72 1419.43 Q999.932 1421.32 997.826 1423.92 Q997.247 1424.59 994.145 1427.8 Q991.043 1431 985.395 1436.76 Z" fill="#000000" fill-rule="nonzero" fill-opacity="1" /><path clip-path="url(#clip140)" d="M1387.8 1422.06 Q1391.16 1422.78 1393.03 1425.05 Q1394.93 1427.32 1394.93 1430.65 Q1394.93 1435.77 1391.41 1438.57 Q1387.89 1441.37 1381.41 1441.37 Q1379.24 1441.37 1376.92 1440.93 Q1374.63 1440.51 1372.18 1439.66 L1372.18 1435.14 Q1374.12 1436.28 1376.44 1436.86 Q1378.75 1437.43 1381.27 1437.43 Q1385.67 1437.43 1387.96 1435.7 Q1390.28 1433.96 1390.28 1430.65 Q1390.28 1427.6 1388.12 1425.88 Q1386 1424.15 1382.18 1424.15 L1378.15 1424.15 L1378.15 1420.3 L1382.36 1420.3 Q1385.81 1420.3 1387.64 1418.94 Q1389.47 1417.55 1389.47 1414.96 Q1389.47 1412.3 1387.57 1410.88 Q1385.69 1409.45 1382.18 1409.45 Q1380.25 1409.45 1378.06 1409.87 Q1375.86 1410.28 1373.22 1411.16 L1373.22 1406.99 Q1375.88 1406.25 1378.19 1405.88 Q1380.53 1405.51 1382.59 1405.51 Q1387.92 1405.51 1391.02 1407.94 Q1394.12 1410.35 1394.12 1414.47 Q1394.12 1417.34 1392.48 1419.33 Q1390.83 1421.3 1387.8 1422.06 Z" fill="#000000" fill-rule="nonzero" fill-opacity="1" /><path clip-path="url(#clip140)" d="M1779.37 1410.21 L1767.57 1428.66 L1779.37 1428.66 L1779.37 1410.21 M1778.15 1406.14 L1784.03 1406.14 L1784.03 1428.66 L1788.96 1428.66 L1788.96 1432.55 L1784.03 1432.55 L1784.03 1440.7 L1779.37 1440.7 L1779.37 1432.55 L1763.77 1432.55 L1763.77 1428.04 L1778.15 1406.14 Z" fill="#000000" fill-rule="nonzero" fill-opacity="1" /><path clip-path="url(#clip140)" d="M1004.02 1465.36 Q1004.02 1470.77 1002.28 1476.86 Q1000.58 1482.91 997.873 1487.81 Q995.167 1492.67 991.625 1495.89 Q988.082 1499.08 984.701 1499.08 Q982.543 1499.08 980.932 1497.89 Q979.354 1496.67 978.485 1494.64 Q977.615 1492.58 977.197 1490.32 Q976.778 1488.03 976.778 1485.55 Q976.778 1481.85 977.583 1477.83 Q978.388 1473.77 979.741 1470.1 Q981.093 1466.39 982.994 1463.04 Q984.894 1459.66 986.987 1457.21 Q989.113 1454.73 991.496 1453.28 Q993.879 1451.84 996.101 1451.84 Q997.712 1451.84 999 1452.54 Q1000.32 1453.22 1001.16 1454.41 Q1002 1455.57 1002.57 1456.96 Q1003.19 1458.34 1003.48 1459.95 Q1003.77 1461.53 1003.9 1462.85 Q1004.02 1464.14 1004.02 1465.36 M999.676 1461.27 Q999.676 1459.63 999.547 1458.41 Q999.419 1457.15 999.064 1455.89 Q998.71 1454.64 997.937 1453.96 Q997.196 1453.28 996.037 1453.28 Q992.655 1453.28 988.855 1460.21 Q987.631 1462.37 986.536 1465.3 Q985.441 1468.23 985.055 1469.61 Q984.668 1471 983.767 1474.41 L997.551 1474.41 Q999.676 1465.62 999.676 1461.27 M996.971 1476.51 L983.251 1476.51 Q981.126 1484.56 981.126 1489.58 Q981.126 1493.96 982.027 1495.8 Q982.961 1497.6 984.701 1497.6 Q986.697 1497.6 988.565 1495.6 Q990.433 1493.57 992.333 1489.9 Q994.845 1485.14 996.971 1476.51 Z" fill="#000000" fill-rule="nonzero" fill-opacity="1" /><path clip-path="url(#clip140)" d="M958.778 1516.68 L1029.75 1516.68 L1029.75 1513.16 L958.778 1513.16  Z" fill="#000000" fill-rule="evenodd" fill-opacity="1"/>
<path clip-path="url(#clip140)" d="M986.024 1543.84 Q986.024 1549.25 984.285 1555.34 Q982.578 1561.39 979.873 1566.29 Q977.167 1571.15 973.625 1574.37 Q970.082 1577.56 966.701 1577.56 Q964.543 1577.56 962.932 1576.37 Q961.354 1575.14 960.485 1573.11 Q959.615 1571.05 959.197 1568.8 Q958.778 1566.51 958.778 1564.03 Q958.778 1560.33 959.583 1556.3 Q960.388 1552.24 961.741 1548.57 Q963.093 1544.87 964.994 1541.52 Q966.894 1538.14 968.987 1535.69 Q971.113 1533.21 973.496 1531.76 Q975.879 1530.31 978.101 1530.31 Q979.712 1530.31 981 1531.02 Q982.32 1531.7 983.158 1532.89 Q983.995 1534.05 984.575 1535.43 Q985.187 1536.82 985.477 1538.43 Q985.766 1540.01 985.895 1541.33 Q986.024 1542.61 986.024 1543.84 M981.676 1539.75 Q981.676 1538.11 981.547 1536.88 Q981.419 1535.63 981.064 1534.37 Q980.71 1533.11 979.937 1532.44 Q979.196 1531.76 978.037 1531.76 Q974.655 1531.76 970.855 1538.69 Q969.631 1540.84 968.536 1543.77 Q967.441 1546.71 967.055 1548.09 Q966.668 1549.47 965.767 1552.89 L979.551 1552.89 Q981.676 1544.1 981.676 1539.75 M978.971 1554.98 L965.251 1554.98 Q963.126 1563.03 963.126 1568.06 Q963.126 1572.44 964.027 1574.27 Q964.961 1576.08 966.701 1576.08 Q968.697 1576.08 970.565 1574.08 Q972.433 1572.05 974.333 1568.38 Q976.845 1563.61 978.971 1554.98 Z" fill="#000000" fill-rule="nonzero" fill-opacity="1" /><path clip-path="url(#clip140)" d="M1015.71 1576.75 Q1015.8 1577.04 1015.57 1577.13 L1007.07 1581.37 L1011.45 1589.78 Q1011.58 1589.96 1011.36 1590.18 Q1011.13 1590.32 1010.95 1590.14 L1004.3 1583.4 L997.649 1590.14 Q997.469 1590.32 997.243 1590.18 Q997.018 1589.96 997.153 1589.78 L1001.53 1581.37 L993.028 1577.13 Q992.802 1577.04 992.892 1576.75 Q992.96 1576.52 993.208 1576.52 L1002.59 1578.1 L1003.98 1568.72 Q1004.07 1568.45 1004.3 1568.45 Q1004.53 1568.45 1004.62 1568.72 L1006.01 1578.1 L1015.39 1576.52 Q1015.64 1576.52 1015.71 1576.75 Z" fill="#000000" fill-rule="nonzero" fill-opacity="1" /><polyline clip-path="url(#clip140)" style="stroke:#000000; stroke-linecap:round; stroke-linejoin:round; stroke-width:4; stroke-opacity:1; fill:none" points="205.121,1378.3 205.121,47.2441 "/>
<polyline clip-path="url(#clip140)" style="stroke:#000000; stroke-linecap:round; stroke-linejoin:round; stroke-width:4; stroke-opacity:1; fill:none" points="205.121,1378.3 218.947,1378.3 "/>
<polyline clip-path="url(#clip140)" style="stroke:#000000; stroke-linecap:round; stroke-linejoin:round; stroke-width:4; stroke-opacity:1; fill:none" points="205.121,1188.15 218.947,1188.15 "/>
<polyline clip-path="url(#clip140)" style="stroke:#000000; stroke-linecap:round; stroke-linejoin:round; stroke-width:4; stroke-opacity:1; fill:none" points="205.121,997.997 218.947,997.997 "/>
<polyline clip-path="url(#clip140)" style="stroke:#000000; stroke-linecap:round; stroke-linejoin:round; stroke-width:4; stroke-opacity:1; fill:none" points="205.121,807.847 218.947,807.847 "/>
<polyline clip-path="url(#clip140)" style="stroke:#000000; stroke-linecap:round; stroke-linejoin:round; stroke-width:4; stroke-opacity:1; fill:none" points="205.121,617.696 218.947,617.696 "/>
<polyline clip-path="url(#clip140)" style="stroke:#000000; stroke-linecap:round; stroke-linejoin:round; stroke-width:4; stroke-opacity:1; fill:none" points="205.121,427.545 218.947,427.545 "/>
<polyline clip-path="url(#clip140)" style="stroke:#000000; stroke-linecap:round; stroke-linejoin:round; stroke-width:4; stroke-opacity:1; fill:none" points="205.121,237.395 218.947,237.395 "/>
<polyline clip-path="url(#clip140)" style="stroke:#000000; stroke-linecap:round; stroke-linejoin:round; stroke-width:4; stroke-opacity:1; fill:none" points="205.121,47.2441 218.947,47.2441 "/>
<path clip-path="url(#clip140)" d="M118.82 1391.64 L126.459 1391.64 L126.459 1365.28 L118.149 1366.94 L118.149 1362.69 L126.413 1361.02 L131.089 1361.02 L131.089 1391.64 L138.728 1391.64 L138.728 1395.58 L118.82 1395.58 L118.82 1391.64 Z" fill="#000000" fill-rule="nonzero" fill-opacity="1" /><path clip-path="url(#clip140)" d="M148.218 1361.02 L166.575 1361.02 L166.575 1364.95 L152.501 1364.95 L152.501 1373.43 Q153.519 1373.08 154.538 1372.92 Q155.556 1372.73 156.575 1372.73 Q162.362 1372.73 165.741 1375.9 Q169.121 1379.07 169.121 1384.49 Q169.121 1390.07 165.649 1393.17 Q162.177 1396.25 155.857 1396.25 Q153.681 1396.25 151.413 1395.88 Q149.167 1395.51 146.76 1394.77 L146.76 1390.07 Q148.843 1391.2 151.066 1391.76 Q153.288 1392.31 155.765 1392.31 Q159.769 1392.31 162.107 1390.21 Q164.445 1388.1 164.445 1384.49 Q164.445 1380.88 162.107 1378.77 Q159.769 1376.67 155.765 1376.67 Q153.89 1376.67 152.015 1377.08 Q150.163 1377.5 148.218 1378.38 L148.218 1361.02 Z" fill="#000000" fill-rule="nonzero" fill-opacity="1" /><path clip-path="url(#clip140)" d="M121.043 1201.49 L137.362 1201.49 L137.362 1205.43 L115.418 1205.43 L115.418 1201.49 Q118.08 1198.74 122.663 1194.11 Q127.269 1189.46 128.45 1188.11 Q130.695 1185.59 131.575 1183.85 Q132.478 1182.09 132.478 1180.4 Q132.478 1177.65 130.533 1175.91 Q128.612 1174.18 125.51 1174.18 Q123.311 1174.18 120.857 1174.94 Q118.427 1175.71 115.649 1177.26 L115.649 1172.53 Q118.473 1171.4 120.927 1170.82 Q123.38 1170.24 125.418 1170.24 Q130.788 1170.24 133.982 1172.93 Q137.177 1175.61 137.177 1180.1 Q137.177 1182.23 136.367 1184.15 Q135.579 1186.05 133.473 1188.65 Q132.894 1189.32 129.792 1192.53 Q126.691 1195.73 121.043 1201.49 Z" fill="#000000" fill-rule="nonzero" fill-opacity="1" /><path clip-path="url(#clip140)" d="M157.177 1173.95 Q153.566 1173.95 151.737 1177.51 Q149.931 1181.05 149.931 1188.18 Q149.931 1195.29 151.737 1198.85 Q153.566 1202.4 157.177 1202.4 Q160.811 1202.4 162.616 1198.85 Q164.445 1195.29 164.445 1188.18 Q164.445 1181.05 162.616 1177.51 Q160.811 1173.95 157.177 1173.95 M157.177 1170.24 Q162.987 1170.24 166.042 1174.85 Q169.121 1179.43 169.121 1188.18 Q169.121 1196.91 166.042 1201.52 Q162.987 1206.1 157.177 1206.1 Q151.366 1206.1 148.288 1201.52 Q145.232 1196.91 145.232 1188.18 Q145.232 1179.43 148.288 1174.85 Q151.366 1170.24 157.177 1170.24 Z" fill="#000000" fill-rule="nonzero" fill-opacity="1" /><path clip-path="url(#clip140)" d="M122.038 1011.34 L138.357 1011.34 L138.357 1015.28 L116.413 1015.28 L116.413 1011.34 Q119.075 1008.59 123.658 1003.96 Q128.265 999.305 129.445 997.962 Q131.691 995.439 132.57 993.703 Q133.473 991.944 133.473 990.254 Q133.473 987.5 131.529 985.763 Q129.607 984.027 126.505 984.027 Q124.306 984.027 121.853 984.791 Q119.422 985.555 116.644 987.106 L116.644 982.384 Q119.468 981.25 121.922 980.671 Q124.376 980.092 126.413 980.092 Q131.783 980.092 134.978 982.777 Q138.172 985.463 138.172 989.953 Q138.172 992.083 137.362 994.004 Q136.575 995.902 134.468 998.495 Q133.89 999.166 130.788 1002.38 Q127.686 1005.58 122.038 1011.34 Z" fill="#000000" fill-rule="nonzero" fill-opacity="1" /><path clip-path="url(#clip140)" d="M148.218 980.717 L166.575 980.717 L166.575 984.652 L152.501 984.652 L152.501 993.124 Q153.519 992.777 154.538 992.615 Q155.556 992.43 156.575 992.43 Q162.362 992.43 165.741 995.601 Q169.121 998.773 169.121 1004.19 Q169.121 1009.77 165.649 1012.87 Q162.177 1015.95 155.857 1015.95 Q153.681 1015.95 151.413 1015.58 Q149.167 1015.21 146.76 1014.47 L146.76 1009.77 Q148.843 1010.9 151.066 1011.46 Q153.288 1012.01 155.765 1012.01 Q159.769 1012.01 162.107 1009.91 Q164.445 1007.8 164.445 1004.19 Q164.445 1000.58 162.107 998.472 Q159.769 996.365 155.765 996.365 Q153.89 996.365 152.015 996.782 Q150.163 997.199 148.218 998.078 L148.218 980.717 Z" fill="#000000" fill-rule="nonzero" fill-opacity="1" /><path clip-path="url(#clip140)" d="M131.181 806.492 Q134.538 807.21 136.413 809.478 Q138.311 811.747 138.311 815.08 Q138.311 820.196 134.792 822.997 Q131.274 825.798 124.793 825.798 Q122.617 825.798 120.302 825.358 Q118.01 824.941 115.556 824.085 L115.556 819.571 Q117.501 820.705 119.816 821.284 Q122.13 821.863 124.654 821.863 Q129.052 821.863 131.343 820.127 Q133.658 818.39 133.658 815.08 Q133.658 812.025 131.505 810.312 Q129.376 808.576 125.556 808.576 L121.529 808.576 L121.529 804.733 L125.742 804.733 Q129.191 804.733 131.019 803.367 Q132.848 801.979 132.848 799.386 Q132.848 796.724 130.95 795.312 Q129.075 793.877 125.556 793.877 Q123.635 793.877 121.436 794.293 Q119.237 794.71 116.598 795.59 L116.598 791.423 Q119.26 790.682 121.575 790.312 Q123.913 789.942 125.973 789.942 Q131.297 789.942 134.399 792.372 Q137.501 794.779 137.501 798.9 Q137.501 801.77 135.857 803.761 Q134.214 805.729 131.181 806.492 Z" fill="#000000" fill-rule="nonzero" fill-opacity="1" /><path clip-path="url(#clip140)" d="M157.177 793.645 Q153.566 793.645 151.737 797.21 Q149.931 800.752 149.931 807.881 Q149.931 814.988 151.737 818.553 Q153.566 822.094 157.177 822.094 Q160.811 822.094 162.616 818.553 Q164.445 814.988 164.445 807.881 Q164.445 800.752 162.616 797.21 Q160.811 793.645 157.177 793.645 M157.177 789.942 Q162.987 789.942 166.042 794.548 Q169.121 799.131 169.121 807.881 Q169.121 816.608 166.042 821.215 Q162.987 825.798 157.177 825.798 Q151.366 825.798 148.288 821.215 Q145.232 816.608 145.232 807.881 Q145.232 799.131 148.288 794.548 Q151.366 789.942 157.177 789.942 Z" fill="#000000" fill-rule="nonzero" fill-opacity="1" /><path clip-path="url(#clip140)" d="M132.177 616.342 Q135.533 617.059 137.408 619.328 Q139.306 621.596 139.306 624.93 Q139.306 630.045 135.788 632.846 Q132.269 635.647 125.788 635.647 Q123.612 635.647 121.297 635.207 Q119.006 634.791 116.552 633.934 L116.552 629.42 Q118.496 630.555 120.811 631.133 Q123.126 631.712 125.649 631.712 Q130.047 631.712 132.339 629.976 Q134.654 628.24 134.654 624.93 Q134.654 621.874 132.501 620.161 Q130.371 618.425 126.552 618.425 L122.524 618.425 L122.524 614.583 L126.737 614.583 Q130.186 614.583 132.015 613.217 Q133.843 611.828 133.843 609.235 Q133.843 606.573 131.945 605.161 Q130.07 603.726 126.552 603.726 Q124.63 603.726 122.431 604.143 Q120.232 604.559 117.593 605.439 L117.593 601.272 Q120.255 600.532 122.57 600.161 Q124.908 599.791 126.968 599.791 Q132.292 599.791 135.394 602.221 Q138.496 604.629 138.496 608.749 Q138.496 611.62 136.853 613.61 Q135.209 615.578 132.177 616.342 Z" fill="#000000" fill-rule="nonzero" fill-opacity="1" /><path clip-path="url(#clip140)" d="M148.218 600.416 L166.575 600.416 L166.575 604.351 L152.501 604.351 L152.501 612.823 Q153.519 612.476 154.538 612.314 Q155.556 612.129 156.575 612.129 Q162.362 612.129 165.741 615.3 Q169.121 618.471 169.121 623.888 Q169.121 629.467 165.649 632.569 Q162.177 635.647 155.857 635.647 Q153.681 635.647 151.413 635.277 Q149.167 634.906 146.76 634.166 L146.76 629.467 Q148.843 630.601 151.066 631.157 Q153.288 631.712 155.765 631.712 Q159.769 631.712 162.107 629.606 Q164.445 627.499 164.445 623.888 Q164.445 620.277 162.107 618.17 Q159.769 616.064 155.765 616.064 Q153.89 616.064 152.015 616.481 Q150.163 616.897 148.218 617.777 L148.218 600.416 Z" fill="#000000" fill-rule="nonzero" fill-opacity="1" /><path clip-path="url(#clip140)" d="M129.862 414.339 L118.056 432.788 L129.862 432.788 L129.862 414.339 M128.635 410.265 L134.515 410.265 L134.515 432.788 L139.445 432.788 L139.445 436.677 L134.515 436.677 L134.515 444.825 L129.862 444.825 L129.862 436.677 L114.26 436.677 L114.26 432.163 L128.635 410.265 Z" fill="#000000" fill-rule="nonzero" fill-opacity="1" /><path clip-path="url(#clip140)" d="M157.177 413.344 Q153.566 413.344 151.737 416.909 Q149.931 420.45 149.931 427.58 Q149.931 434.686 151.737 438.251 Q153.566 441.793 157.177 441.793 Q160.811 441.793 162.616 438.251 Q164.445 434.686 164.445 427.58 Q164.445 420.45 162.616 416.909 Q160.811 413.344 157.177 413.344 M157.177 409.64 Q162.987 409.64 166.042 414.247 Q169.121 418.83 169.121 427.58 Q169.121 436.307 166.042 440.913 Q162.987 445.497 157.177 445.497 Q151.366 445.497 148.288 440.913 Q145.232 436.307 145.232 427.58 Q145.232 418.83 148.288 414.247 Q151.366 409.64 157.177 409.64 Z" fill="#000000" fill-rule="nonzero" fill-opacity="1" /><path clip-path="url(#clip140)" d="M130.857 224.189 L119.052 242.638 L130.857 242.638 L130.857 224.189 M129.63 220.115 L135.51 220.115 L135.51 242.638 L140.441 242.638 L140.441 246.527 L135.51 246.527 L135.51 254.675 L130.857 254.675 L130.857 246.527 L115.256 246.527 L115.256 242.013 L129.63 220.115 Z" fill="#000000" fill-rule="nonzero" fill-opacity="1" /><path clip-path="url(#clip140)" d="M148.218 220.115 L166.575 220.115 L166.575 224.05 L152.501 224.05 L152.501 232.522 Q153.519 232.175 154.538 232.013 Q155.556 231.828 156.575 231.828 Q162.362 231.828 165.741 234.999 Q169.121 238.17 169.121 243.587 Q169.121 249.165 165.649 252.267 Q162.177 255.346 155.857 255.346 Q153.681 255.346 151.413 254.976 Q149.167 254.605 146.76 253.865 L146.76 249.165 Q148.843 250.3 151.066 250.855 Q153.288 251.411 155.765 251.411 Q159.769 251.411 162.107 249.304 Q164.445 247.198 164.445 243.587 Q164.445 239.976 162.107 237.869 Q159.769 235.763 155.765 235.763 Q153.89 235.763 152.015 236.179 Q150.163 236.596 148.218 237.476 L148.218 220.115 Z" fill="#000000" fill-rule="nonzero" fill-opacity="1" /><path clip-path="url(#clip140)" d="M117.061 29.9641 L135.417 29.9641 L135.417 33.8993 L121.343 33.8993 L121.343 42.3714 Q122.362 42.0242 123.38 41.8622 Q124.399 41.677 125.418 41.677 Q131.205 41.677 134.584 44.8483 Q137.964 48.0196 137.964 53.4362 Q137.964 59.0149 134.492 62.1167 Q131.019 65.1954 124.7 65.1954 Q122.524 65.1954 120.255 64.825 Q118.01 64.4547 115.603 63.7139 L115.603 59.0149 Q117.686 60.1491 119.908 60.7047 Q122.13 61.2602 124.607 61.2602 Q128.612 61.2602 130.95 59.1538 Q133.288 57.0473 133.288 53.4362 Q133.288 49.8251 130.95 47.7186 Q128.612 45.6122 124.607 45.6122 Q122.732 45.6122 120.857 46.0288 Q119.006 46.4455 117.061 47.3251 L117.061 29.9641 Z" fill="#000000" fill-rule="nonzero" fill-opacity="1" /><path clip-path="url(#clip140)" d="M157.177 33.0428 Q153.566 33.0428 151.737 36.6076 Q149.931 40.1492 149.931 47.2788 Q149.931 54.3853 151.737 57.9501 Q153.566 61.4917 157.177 61.4917 Q160.811 61.4917 162.616 57.9501 Q164.445 54.3853 164.445 47.2788 Q164.445 40.1492 162.616 36.6076 Q160.811 33.0428 157.177 33.0428 M157.177 29.3391 Q162.987 29.3391 166.042 33.9456 Q169.121 38.5289 169.121 47.2788 Q169.121 56.0056 166.042 60.6121 Q162.987 65.1954 157.177 65.1954 Q151.366 65.1954 148.288 60.6121 Q145.232 56.0056 145.232 47.2788 Q145.232 38.5289 148.288 33.9456 Q151.366 29.3391 157.177 29.3391 Z" fill="#000000" fill-rule="nonzero" fill-opacity="1" /><path clip-path="url(#clip140)" d="M35.3163 700 Q35.5417 700 36.5079 700.548 Q37.4419 701.063 39.7929 702.963 Q42.1439 704.863 44.8814 707.697 Q45.9442 708.76 47.4257 710.371 Q48.9072 711.981 49.8733 713.076 L50.8395 714.171 Q54.3822 718.358 58.3435 722.029 Q58.2469 721.771 58.2147 721.321 Q58.1502 720.87 58.1502 720.548 L58.1502 720.226 Q58.1502 718.551 59.2774 715.62 Q60.1148 713.044 60.1148 711.723 Q60.1148 710.435 59.6639 709.018 Q59.213 707.601 57.8926 706.055 Q56.5722 704.509 54.5754 703.801 Q54.2533 703.672 54.1567 703.607 Q54.0279 703.543 53.8991 703.35 Q53.738 703.156 53.738 702.899 Q53.738 702.545 53.9313 702.319 Q54.1245 702.094 54.3822 702.094 Q54.9619 702.094 56.1213 702.545 Q57.2807 702.963 58.7299 703.897 Q60.1792 704.799 61.4996 705.991 Q62.7879 707.15 63.6896 708.889 Q64.5592 710.628 64.5592 712.464 Q64.5592 713.784 63.9151 714.751 Q63.3032 715.717 62.1116 716.683 Q60.5979 718.003 60.1148 718.712 Q59.5995 719.42 59.5995 720.515 Q59.5995 723.446 63.6896 726.119 Q64.2694 726.409 64.3982 726.602 Q64.5592 726.763 64.5592 727.15 Q64.527 727.955 63.8829 727.955 Q63.6252 727.955 62.498 727.246 Q61.3386 726.506 59.3096 724.863 Q57.2807 723.188 55.2517 721.159 L49.7123 715.234 Q44.1729 708.664 41.0489 706.055 Q41.0489 707.15 41.0167 707.633 Q40.9845 708.084 40.7913 708.986 Q40.5658 709.887 40.0828 711.143 Q39.0844 714.074 39.0844 715.298 Q39.0844 715.62 39.1166 715.974 Q39.1488 716.329 39.3098 717.134 Q39.4708 717.907 39.7929 718.551 Q40.0828 719.195 40.7269 719.871 Q41.3388 720.548 42.1761 720.902 Q42.4338 720.998 42.5626 721.063 Q42.6914 721.127 42.8202 721.321 Q42.9169 721.482 42.9169 721.739 Q42.9169 722.126 42.6914 722.351 Q42.466 722.544 42.1761 722.544 Q41.5964 722.544 40.4048 721.965 Q39.2132 721.385 37.925 720.419 Q36.6045 719.453 35.6383 717.874 Q34.6722 716.296 34.6722 714.557 Q34.6722 713.527 35.123 712.657 Q35.5739 711.755 36.057 711.304 Q36.5079 710.821 37.5063 710.016 Q38.2792 709.34 38.6013 709.018 Q38.9233 708.696 39.2776 708.052 Q39.5997 707.375 39.5997 706.635 Q39.5997 705.411 38.6657 704.284 Q37.6995 703.156 35.3807 701.707 Q34.6722 701.321 34.6722 700.709 Q34.6722 700 35.3163 700 Z" fill="#000000" fill-rule="nonzero" fill-opacity="1" /><polyline clip-path="url(#clip143)" style="stroke:#009af9; stroke-linecap:round; stroke-linejoin:round; stroke-width:4; stroke-opacity:1; fill:none" points="3050.35,1222.37 3625.75,1210.02 3865.5,1197.66 4025.88,1185.31 4149.71,1172.95 4252.46,1160.6 4341.47,1148.24 4420.84,1135.88 4493.07,1123.53 4559.79,1111.17 4622.16,1098.82 4681,1086.46 4736.92,1074.1 4790.39,1061.75 4841.78,1049.39 4891.38,1037.04 4939.43,1024.68 4986.12,1012.32 5031.62,999.967 5076.06,987.611 5119.57,975.255 5162.23,962.899 5204.14,950.544 5245.36,938.188 5285.97,925.832 5326.03,913.476 5365.57,901.12 5404.66,888.764 5443.32,876.408 5481.6,864.052 5519.52,851.696 5557.12,839.34 5594.43,826.984 5631.46,814.628 5668.25,802.272 5704.8,789.916 5741.15,777.56 5777.3,765.204 5813.28,752.848 5849.09,740.492 5884.76,728.136 5920.29,715.78 5955.7,703.424 5991,691.068 6026.19,678.712 6061.3,666.356 6096.32,654 6131.27,641.644 6166.15,629.288 6200.97,616.932 6235.75,604.576 6270.48,592.22 6305.17,579.864 6339.83,567.508 6374.47,555.152 6409.09,542.796 6443.69,530.44 6478.29,518.085 6512.88,505.729 6547.48,493.373 6582.07,481.017 6616.68,468.661 6651.31,456.305 6685.95,443.949 6720.61,431.593 6755.3,419.237 6790.02,406.881 6824.77,394.525 6859.56,382.169 6894.38,369.813 6929.25,357.457 6964.17,345.101 6999.13,332.745 7034.14,320.389 7069.21,308.033 7104.34,295.677 7139.53,283.321 7174.77,270.965 7210.09,258.609 7245.47,246.253 7280.92,233.897 7316.44,221.541 7352.03,209.185 7387.71,196.829 7423.46,184.473 7459.29,172.117 7495.21,159.761 7531.21,147.405 7567.3,135.049 7603.48,122.693 7639.74,110.337 7676.11,97.9815 7712.56,85.6255 7748.99,73.2695 7785.24,60.9136 7821.32,48.5576 7857.24,36.2016 7892.98,23.8456 7928.56,11.4897 7963.98,-0.866302 7999.24,-13.2223 8034.34,-25.5782 8069.29,-37.9342 8104.08,-50.2902 8138.72,-62.6462 8173.21,-75.0021 8207.55,-87.3581 8241.74,-99.7141 8275.78,-112.07 8309.69,-124.426 8343.45,-136.782 8377.07,-149.138 8410.55,-161.494 8443.9,-173.85 8477.11,-186.206 8510.18,-198.562 8543.12,-210.918 8575.93,-223.274 8608.61,-235.63 8641.16,-247.986 8673.58,-260.342 8705.88,-272.698 8738.05,-285.054 8770.1,-297.41 8802.03,-309.766 8833.83,-322.122 8865.52,-334.478 8897.09,-346.834 8928.53,-359.189 8959.87,-371.545 8991.08,-383.901 9022.18,-396.257 9053.17,-408.613 9084.05,-420.969 9114.81,-433.325 9145.47,-445.681 9176.01,-458.037 9206.45,-470.393 9236.78,-482.749 9267,-495.105 9297.12,-507.461 9327.13,-519.817 9357.04,-532.173 9386.84,-544.529 9416.54,-556.885 9446.15,-569.241 9475.65,-581.597 9505.05,-593.953 9534.35,-606.309 9563.56,-618.665 9592.67,-631.021 9621.68,-643.377 9650.6,-655.733 9679.42,-668.089 9708.15,-680.445 9736.78,-692.801 9765.33,-705.157 9793.78,-717.513 9822.13,-729.869 9850.4,-742.225 9878.58,-754.581 9906.67,-766.937 9934.67,-779.293 9962.59,-791.648 9990.41,-804.004 10018.2,-816.36 10045.8,-828.716 10073.4,-841.072 10100.9,-853.428 10128.3,-865.784 10155.6,-878.14 10182.8,-890.496 10210,-902.852 10237,-915.208 10264,-927.564 10290.9,-939.92 10317.8,-952.276 10344.5,-964.632 10371.2,-976.988 10397.8,-989.344 10424.3,-1001.7 10450.7,-1014.06 10477.1,-1026.41 10503.4,-1038.77 10529.6,-1051.12 10555.7,-1063.48 10581.7,-1075.84 10607.7,-1088.19 10633.6,-1100.55 10659.5,-1112.9 10685.2,-1125.26 10710.9,-1137.62 10736.5,-1149.97 10762.1,-1162.33 10787.6,-1174.68 10813,-1187.04 10838.3,-1199.4 10863.6,-1211.75 10888.8,-1224.11 10913.9,-1236.46 10938.9,-1248.82 10963.9,-1261.18 10988.9,-1273.53 11013.7,-1285.89 11038.5,-1298.24 11063.2,-1310.6 11087.9,-1322.96 11112.5,-1335.31 11137,-1347.67 11161.5,-1360.02 11185.9,-1372.38 11210.2,-1384.74 11234.5,-1397.09 11258.7,-1409.45 11282.8,-1421.8 11306.9,-1434.16 11330.9,-1446.51 11354.9,-1458.87 11378.7,-1471.23 11402.6,-1483.58 11426.4,-1495.94 11450.1,-1508.29 11473.7,-1520.65 11497.3,-1533.01 11520.8,-1545.36 11544.3,-1557.72 11567.7,-1570.07 11591.1,-1582.43 11614.4,-1594.79 11637.6,-1607.14 11660.8,-1619.5 11683.9,-1631.85 11707,-1644.21 11730,-1656.57 11752.9,-1668.92 11775.8,-1681.28 11798.7,-1693.63 11821.5,-1705.99 11844.2,-1718.35 11866.9,-1730.7 11889.5,-1743.06 11912.1,-1755.41 11934.6,-1767.77 11957,-1780.13 11979.5,-1792.48 12001.8,-1804.84 12024.1,-1817.19 12046.4,-1829.55 12068.5,-1841.91 12090.7,-1854.26 "/>
<polyline clip-path="url(#clip143)" style="stroke:#e26f46; stroke-linecap:round; stroke-linejoin:round; stroke-width:4; stroke-opacity:1; fill:none" points="3213.27,1222.37 3892.97,1210.02 4170.62,1197.66 4353.18,1185.31 4491.97,1172.95 4605.49,1160.6 4702.55,1148.24 4788.06,1135.88 4864.99,1123.53 4935.34,1111.17 5000.46,1098.82 5061.34,1086.46 5118.72,1074.1 5173.15,1061.75 5225.08,1049.39 5274.87,1037.04 5322.78,1024.68 5369.06,1012.32 5413.9,999.967 5457.47,987.611 5499.9,975.255 5541.32,962.899 5581.82,950.544 5621.49,938.188 5660.41,925.832 5698.66,913.476 5736.28,901.12 5773.34,888.764 5809.89,876.408 5845.96,864.052 5881.59,851.696 5916.83,839.34 5951.7,826.984 5986.23,814.628 6020.45,802.272 6054.39,789.916 6088.05,777.56 6121.48,765.204 6154.67,752.848 6187.66,740.492 6220.46,728.136 6253.08,715.78 6285.54,703.424 6317.85,691.068 6350.03,678.712 6382.08,666.356 6414.01,654 6445.84,641.644 6477.58,629.288 6509.23,616.932 6540.8,604.576 6572.3,592.22 6603.75,579.864 6635.13,567.508 6666.48,555.152 6697.78,542.796 6729.05,530.44 6760.28,518.085 6791.5,505.729 6822.7,493.373 6853.89,481.017 6885.07,468.661 6916.25,456.305 6947.43,443.949 6978.62,431.593 7009.82,419.237 7041.03,406.881 7072.27,394.525 7103.52,382.169 7134.81,369.813 7166.12,357.457 7197.47,345.101 7228.86,332.745 7260.28,320.389 7291.75,308.033 7323.27,295.677 7354.84,283.321 7386.46,270.965 7418.13,258.609 7449.86,246.253 7481.65,233.897 7513.51,221.541 7545.43,209.185 7577.42,196.829 7609.49,184.473 7641.62,172.117 7673.83,159.761 7706.12,147.405 7738.49,135.049 7770.94,122.693 7803.48,110.337 7836.1,97.9815 7868.81,85.6255 7901.5,73.2695 7934.03,60.9136 7966.42,48.5576 7998.66,36.2016 8030.76,23.8456 8062.71,11.4897 8094.52,-0.866302 8126.2,-13.2223 8157.74,-25.5782 8189.15,-37.9342 8220.42,-50.2902 8251.57,-62.6462 8282.58,-75.0021 8313.47,-87.3581 8344.23,-99.7141 8374.87,-112.07 8405.39,-124.426 8435.79,-136.782 8466.07,-149.138 8496.24,-161.494 8526.28,-173.85 8556.22,-186.206 8586.04,-198.562 8615.75,-210.918 8645.34,-223.274 8674.83,-235.63 8704.22,-247.986 8733.49,-260.342 8762.66,-272.698 8791.73,-285.054 8820.7,-297.41 8849.56,-309.766 8878.32,-322.122 8906.98,-334.478 8935.55,-346.834 8964.01,-359.189 8992.39,-371.545 9020.66,-383.901 9048.84,-396.257 9076.93,-408.613 9104.93,-420.969 9132.83,-433.325 9160.64,-445.681 9188.37,-458.037 9216,-470.393 9243.55,-482.749 9271.01,-495.105 9298.39,-507.461 9325.67,-519.817 9352.88,-532.173 9380,-544.529 9407.04,-556.885 9433.99,-569.241 9460.86,-581.597 9487.65,-593.953 9514.37,-606.309 9541,-618.665 9567.55,-631.021 9594.03,-643.377 9620.43,-655.733 9646.75,-668.089 9672.99,-680.445 9699.16,-692.801 9725.26,-705.157 9751.28,-717.513 9777.22,-729.869 9803.1,-742.225 9828.9,-754.581 9854.63,-766.937 9880.28,-779.293 9905.87,-791.648 9931.39,-804.004 9956.84,-816.36 9982.21,-828.716 10007.5,-841.072 10032.8,-853.428 10057.9,-865.784 10083,-878.14 10108.1,-890.496 10133.1,-902.852 10158,-915.208 10182.8,-927.564 10207.6,-939.92 10232.3,-952.276 10257,-964.632 10281.5,-976.988 10306.1,-989.344 10330.5,-1001.7 10354.9,-1014.06 10379.3,-1026.41 10403.5,-1038.77 10427.8,-1051.12 10451.9,-1063.48 10476,-1075.84 10500,-1088.19 10524,-1100.55 10547.9,-1112.9 10571.8,-1125.26 10595.6,-1137.62 10619.3,-1149.97 10643,-1162.33 10666.7,-1174.68 10690.2,-1187.04 10713.7,-1199.4 10737.2,-1211.75 10760.6,-1224.11 10784,-1236.46 10807.3,-1248.82 10830.5,-1261.18 10853.7,-1273.53 10876.8,-1285.89 10899.9,-1298.24 10922.9,-1310.6 10945.9,-1322.96 10968.8,-1335.31 10991.7,-1347.67 11014.5,-1360.02 11037.3,-1372.38 11060,-1384.74 11082.6,-1397.09 11105.3,-1409.45 11127.8,-1421.8 11150.3,-1434.16 11172.8,-1446.51 11195.2,-1458.87 11217.6,-1471.23 11239.9,-1483.58 11262.1,-1495.94 11284.4,-1508.29 11306.5,-1520.65 11328.7,-1533.01 11350.7,-1545.36 11372.8,-1557.72 11394.7,-1570.07 11416.7,-1582.43 11438.5,-1594.79 11460.4,-1607.14 11482.2,-1619.5 11503.9,-1631.85 11525.6,-1644.21 11547.3,-1656.57 11568.9,-1668.92 11590.4,-1681.28 11612,-1693.63 11633.4,-1705.99 11654.9,-1718.35 11676.3,-1730.7 11697.6,-1743.06 11718.9,-1755.41 11740.2,-1767.77 11761.4,-1780.13 11782.5,-1792.48 11803.7,-1804.84 11824.7,-1817.19 11845.8,-1829.55 11866.8,-1841.91 11887.7,-1854.26 "/>
<polyline clip-path="url(#clip143)" style="stroke:#3da44d; stroke-linecap:round; stroke-linejoin:round; stroke-width:4; stroke-opacity:1; fill:none" points="6071.1,1222.37 7721.43,1210.02 8375.43,1197.66 8793.69,1185.31 9103.31,1172.95 9350.16,1160.6 9556.08,1148.24 9733.19,1135.88 9888.91,1123.53 10028.1,1111.17 10154.2,1098.82 10269.6,1086.46 10376.2,1074.1 10475.3,1061.75 10568,1049.39 10655.3,1037.04 10737.7,1024.68 10815.9,1012.32 10890.3,999.967 10961.5,987.611 11029.6,975.255 11095,962.899 11158,950.544 11218.7,938.188 11277.4,925.832 11334.2,913.476 11389.3,901.12 11442.8,888.764 11494.9,876.408 11545.6,864.052 11595,851.696 11643.2,839.34 11690.3,826.984 11736.4,814.628 11781.6,802.272 11825.8,789.916 11869.1,777.56 11911.7,765.204 11953.5,752.848 11994.5,740.492 12034.9,728.136 12074.7,715.78 12113.8,703.424 12152.4,691.068 12190.4,678.712 12227.9,666.356 12264.9,654 12301.4,641.644 12337.5,629.288 12373.1,616.932 12408.3,604.576 12443.2,592.22 12477.7,579.864 12511.8,567.508 12545.6,555.152 12579,542.796 12612.2,530.44 12645,518.085 12677.6,505.729 12709.9,493.373 12741.9,481.017 12773.7,468.661 12805.2,456.305 12836.5,443.949 12867.6,431.593 12898.5,419.237 12929.2,406.881 12959.7,394.525 12990,382.169 13020.1,369.813 13050.1,357.457 13079.9,345.101 13109.5,332.745 13139,320.389 13168.3,308.033 13197.5,295.677 13226.6,283.321 13255.5,270.965 13284.4,258.609 13313.1,246.253 13341.7,233.897 13370.2,221.541 13398.5,209.185 13426.8,196.829 13455,184.473 13483.2,172.117 13511.2,159.761 13539.1,147.405 13567,135.049 13594.8,122.693 13622.5,110.337 13650.2,97.9815 13677.8,85.6255 13705.3,73.2695 13732.5,60.9136 13759.4,48.5576 13786.1,36.2016 13812.6,23.8456 13838.8,11.4897 13864.8,-0.866302 13890.6,-13.2223 13916.1,-25.5782 13941.4,-37.9342 13966.6,-50.2902 13991.5,-62.6462 14016.2,-75.0021 14040.7,-87.3581 14065,-99.7141 14089.1,-112.07 14113,-124.426 14136.8,-136.782 14160.3,-149.138 14183.7,-161.494 14206.9,-173.85 14229.9,-186.206 14252.8,-198.562 14275.4,-210.918 14298,-223.274 14320.3,-235.63 14342.5,-247.986 14364.6,-260.342 14386.5,-272.698 14408.2,-285.054 14429.8,-297.41 14451.2,-309.766 14472.5,-322.122 14493.7,-334.478 14514.7,-346.834 14535.6,-359.189 14556.3,-371.545 14576.9,-383.901 14597.4,-396.257 14617.7,-408.613 14638,-420.969 14658,-433.325 14678,-445.681 14697.9,-458.037 14717.6,-470.393 14737.2,-482.749 14756.7,-495.105 14776.1,-507.461 14795.3,-519.817 14814.5,-532.173 14833.5,-544.529 14852.5,-556.885 14871.3,-569.241 14890,-581.597 14908.6,-593.953 14927.2,-606.309 14945.6,-618.665 14963.9,-631.021 14982.1,-643.377 15000.2,-655.733 15018.2,-668.089 15036.2,-680.445 15054,-692.801 15071.7,-705.157 15089.4,-717.513 15106.9,-729.869 15124.4,-742.225 15141.8,-754.581 15159.1,-766.937 15176.3,-779.293 15193.4,-791.648 15210.4,-804.004 15227.4,-816.36 15244.3,-828.716 15261.1,-841.072 15277.8,-853.428 15294.4,-865.784 15311,-878.14 15327.4,-890.496 15343.8,-902.852 15360.2,-915.208 15376.4,-927.564 15392.6,-939.92 15408.7,-952.276 15424.7,-964.632 15440.7,-976.988 15456.6,-989.344 15472.4,-1001.7 15488.2,-1014.06 15503.9,-1026.41 15519.5,-1038.77 15535,-1051.12 15550.5,-1063.48 15565.9,-1075.84 15581.3,-1088.19 15596.6,-1100.55 15611.8,-1112.9 15627,-1125.26 15642.1,-1137.62 15657.1,-1149.97 15672.1,-1162.33 15687,-1174.68 15701.9,-1187.04 15716.7,-1199.4 15731.5,-1211.75 15746.2,-1224.11 15760.8,-1236.46 15775.4,-1248.82 15789.9,-1261.18 15804.4,-1273.53 15818.8,-1285.89 15833.1,-1298.24 15847.4,-1310.6 15861.7,-1322.96 15875.9,-1335.31 15890,-1347.67 15904.1,-1360.02 15918.1,-1372.38 15932.1,-1384.74 15946.1,-1397.09 15960,-1409.45 15973.8,-1421.8 15987.6,-1434.16 16001.4,-1446.51 16015.1,-1458.87 16028.7,-1471.23 16042.3,-1483.58 16055.9,-1495.94 16069.4,-1508.29 16082.8,-1520.65 16096.2,-1533.01 16109.6,-1545.36 16123,-1557.72 16136.2,-1570.07 16149.5,-1582.43 16162.7,-1594.79 16175.8,-1607.14 16188.9,-1619.5 16202,-1631.85 16215,-1644.21 16228,-1656.57 16241,-1668.92 16253.9,-1681.28 16266.7,-1693.63 16279.6,-1705.99 16292.3,-1718.35 16305.1,-1730.7 16317.8,-1743.06 16330.4,-1755.41 16343.1,-1767.77 16355.7,-1780.13 16368.2,-1792.48 16380.7,-1804.84 16393.2,-1817.19 16405.6,-1829.55 16418,-1841.91 16430.4,-1854.26 "/>
<path clip-path="url(#clip140)" d="M1847.95 834.9 L2352.76 834.9 L2352.76 627.54 L1847.95 627.54  Z" fill="#ffffff" fill-rule="evenodd" fill-opacity="1"/>
<polyline clip-path="url(#clip140)" style="stroke:#000000; stroke-linecap:round; stroke-linejoin:round; stroke-width:4; stroke-opacity:1; fill:none" points="1847.95,834.9 2352.76,834.9 2352.76,627.54 1847.95,627.54 1847.95,834.9 "/>
<polyline clip-path="url(#clip140)" style="stroke:#009af9; stroke-linecap:round; stroke-linejoin:round; stroke-width:4; stroke-opacity:1; fill:none" points="1871.81,679.38 2014.99,679.38 "/>
<path clip-path="url(#clip140)" d="M2067.83 676.356 Q2067.83 676.497 2067.64 677.036 L2063.84 687.388 Q2063.63 687.997 2063.42 688.114 Q2063.21 688.208 2062.35 688.208 L2040.14 688.208 Q2039.6 688.208 2039.39 688.185 Q2039.18 688.161 2039.02 688.044 Q2038.85 687.927 2038.85 687.669 Q2038.85 687.201 2039.02 686.99 Q2039.2 686.779 2039.41 686.756 Q2039.63 686.733 2040.14 686.733 Q2041.31 686.733 2042.01 686.662 Q2042.72 686.592 2043.16 686.498 Q2043.63 686.381 2043.87 686.053 Q2044.12 685.725 2044.24 685.444 Q2044.36 685.14 2044.52 684.461 L2050.94 658.696 Q2051.13 657.923 2051.13 657.806 Q2051.13 657.361 2050.85 657.244 Q2050.59 657.103 2049.84 657.033 L2048.01 656.939 Q2047.45 656.939 2047.21 656.916 Q2047 656.892 2046.84 656.775 Q2046.68 656.658 2046.68 656.4 Q2046.68 655.955 2046.84 655.745 Q2047.03 655.51 2047.17 655.487 Q2047.33 655.44 2047.59 655.44 L2053.96 655.581 L2061.06 655.44 Q2061.83 655.44 2061.83 656.026 Q2061.83 656.682 2061.5 656.822 Q2061.17 656.939 2060 656.939 Q2057.75 656.939 2056.72 657.173 Q2055.72 657.408 2055.44 657.806 Q2055.18 658.181 2054.92 659.188 L2048.43 685.093 Q2048.2 685.96 2048.2 686.194 Q2048.2 686.451 2048.32 686.545 Q2048.46 686.615 2048.83 686.662 Q2049.25 686.733 2049.88 686.733 L2054.38 686.733 Q2055.74 686.733 2056.93 686.522 Q2058.13 686.311 2059.04 686.006 Q2059.98 685.702 2060.82 685.14 Q2061.67 684.578 2062.25 684.086 Q2062.86 683.571 2063.45 682.774 Q2064.06 681.954 2064.41 681.392 Q2064.78 680.807 2065.2 679.87 Q2065.62 678.909 2065.84 678.371 Q2066.07 677.809 2066.42 676.848 Q2066.63 676.356 2066.7 676.216 Q2066.77 676.075 2066.89 675.958 Q2067.03 675.841 2067.24 675.841 Q2067.52 675.841 2067.66 676.005 Q2067.83 676.169 2067.83 676.356 Z" fill="#000000" fill-rule="nonzero" fill-opacity="1" /><path clip-path="url(#clip140)" d="M2106.3 679.711 Q2106.3 680.187 2106.09 680.285 Q2105.89 680.383 2105.24 680.383 Q2104.47 680.383 2103.99 680.449 Q2103.52 680.498 2103.22 680.58 Q2102.93 680.646 2102.75 680.875 Q2102.58 681.105 2102.52 681.301 Q2102.45 681.482 2102.34 681.925 L2097.88 699.812 Q2097.71 700.419 2097.71 700.632 Q2097.71 700.845 2097.84 700.976 Q2097.99 701.107 2098.35 701.173 Q2098.71 701.222 2098.99 701.239 Q2099.29 701.239 2099.89 701.239 Q2100.65 701.239 2100.76 701.37 Q2100.83 701.452 2100.83 701.599 Q2100.83 701.911 2100.7 702.075 Q2100.57 702.222 2100.45 702.255 Q2100.35 702.272 2100.19 702.272 Q2099.5 702.272 2098.09 702.222 Q2096.68 702.173 2095.99 702.173 L2091.83 702.272 Q2091.33 702.272 2091.33 701.862 Q2091.33 701.55 2091.47 701.419 Q2091.6 701.271 2091.74 701.255 Q2091.89 701.239 2092.27 701.239 Q2093.61 701.239 2094.19 701.091 Q2094.78 700.944 2094.94 700.681 Q2095.12 700.402 2095.32 699.648 L2100.12 680.416 L2100.09 680.416 L2086.53 701.665 L2086.43 701.813 Q2086.33 701.944 2086.3 701.993 Q2086.27 702.026 2086.17 702.124 Q2086.09 702.206 2085.99 702.239 Q2085.91 702.272 2085.79 702.272 Q2085.6 702.272 2085.48 702.14 Q2085.38 702.009 2085.35 701.911 Q2085.33 701.796 2085.28 701.501 L2082.4 680.678 L2082.37 680.678 L2077.79 698.976 Q2077.66 699.484 2077.66 699.747 Q2077.66 700.419 2078.14 700.829 Q2078.63 701.222 2079.94 701.239 Q2080.55 701.239 2080.55 701.599 Q2080.55 702.272 2079.94 702.272 Q2079.38 702.272 2078.22 702.222 Q2077.05 702.173 2076.48 702.173 Q2075.92 702.173 2074.79 702.222 Q2073.68 702.272 2073.14 702.272 Q2072.66 702.272 2072.66 701.862 Q2072.66 701.239 2073.27 701.239 Q2074.25 701.206 2074.92 701.009 Q2075.6 700.812 2075.97 700.435 Q2076.37 700.058 2076.55 699.681 Q2076.74 699.288 2076.89 698.714 L2081.15 681.613 Q2081.28 681.072 2081.28 680.99 Q2081.28 680.711 2081.12 680.613 Q2080.97 680.498 2080.55 680.449 Q2079.73 680.383 2079.1 680.383 Q2078.69 680.383 2078.53 680.367 Q2078.38 680.351 2078.25 680.269 Q2078.14 680.17 2078.14 679.973 Q2078.14 679.662 2078.27 679.531 Q2078.42 679.383 2078.58 679.367 Q2078.74 679.334 2079.14 679.334 L2083.74 679.334 Q2084.42 679.334 2084.56 679.449 Q2084.71 679.547 2084.78 680.105 L2087.4 699.107 L2099.66 679.973 Q2099.98 679.498 2100.14 679.416 Q2100.3 679.334 2100.96 679.334 L2105.4 679.334 Q2105.76 679.334 2105.91 679.35 Q2106.06 679.367 2106.17 679.449 Q2106.3 679.531 2106.3 679.711 Z" fill="#000000" fill-rule="nonzero" fill-opacity="1" /><path clip-path="url(#clip140)" d="M2131.35 687.63 Q2131.35 689.975 2130.51 692.303 Q2129.69 694.615 2128.25 696.517 Q2126.8 698.419 2124.97 699.894 Q2123.13 701.37 2120.98 702.19 Q2118.84 703.009 2116.74 703.009 Q2113.02 703.009 2110.57 700.566 Q2108.13 698.123 2108.13 694.041 Q2108.13 691.188 2109.41 688.352 Q2110.69 685.499 2112.72 683.384 Q2114.75 681.252 2117.43 679.924 Q2120.11 678.596 2122.77 678.596 Q2126.54 678.596 2128.94 681.105 Q2131.35 683.597 2131.35 687.63 M2128.35 686.319 Q2128.35 684.515 2127.84 683.154 Q2127.33 681.777 2126.48 680.99 Q2125.64 680.203 2124.64 679.826 Q2123.66 679.432 2122.57 679.432 Q2120.48 679.432 2118.23 680.793 Q2115.98 682.154 2114.31 684.679 Q2113.41 686.056 2112.75 687.712 Q2112.1 689.352 2111.8 690.811 Q2111.51 692.254 2111.38 693.27 Q2111.26 694.287 2111.26 694.992 Q2111.26 698.271 2112.83 700.206 Q2114.41 702.14 2116.93 702.14 Q2118.92 702.14 2120.85 700.976 Q2122.79 699.796 2124.12 698.107 Q2125.3 696.648 2126.16 694.894 Q2127.05 693.139 2127.49 691.532 Q2127.94 689.926 2128.13 688.63 Q2128.35 687.335 2128.35 686.319 Z" fill="#000000" fill-rule="nonzero" fill-opacity="1" /><path clip-path="url(#clip140)" d="M2151.91 680.924 Q2151.96 680.338 2152.87 680.338 L2182.27 680.338 Q2183.65 680.338 2183.67 680.877 Q2183.67 681.462 2182.36 681.439 L2153.2 681.439 Q2151.91 681.462 2151.91 680.924 M2151.91 671.555 Q2151.91 670.969 2152.92 670.993 L2182.22 670.993 Q2183.65 670.993 2183.67 671.555 Q2183.67 672.094 2182.46 672.094 L2152.87 672.094 Q2151.91 672.094 2151.91 671.555 Z" fill="#000000" fill-rule="nonzero" fill-opacity="1" /><path clip-path="url(#clip140)" d="M2202.17 681.744 Q2202.17 680.315 2202.99 679.636 Q2203.8 678.956 2204.86 678.956 Q2205.96 678.956 2206.73 679.682 Q2207.53 680.385 2207.53 681.626 Q2207.53 682.962 2206.59 683.711 Q2205.68 684.461 2204.37 684.273 Q2205.51 686.194 2207.62 687.06 Q2209.75 687.927 2211.72 687.927 Q2213.78 687.927 2215.45 686.147 Q2217.13 684.367 2217.13 680.01 Q2217.13 676.31 2215.68 674.178 Q2214.25 672.047 2211.42 672.047 L2209.31 672.047 Q2208.58 672.047 2208.37 671.976 Q2208.16 671.906 2208.16 671.508 Q2208.16 671.04 2208.89 670.946 Q2209.61 670.946 2210.76 670.805 Q2213.55 670.712 2215.02 668.299 Q2216.36 666.051 2216.36 662.842 Q2216.36 659.914 2214.95 658.696 Q2213.57 657.454 2211.77 657.454 Q2210.08 657.454 2208.23 658.157 Q2206.38 658.86 2205.37 660.429 Q2208.35 660.429 2208.35 662.842 Q2208.35 663.896 2207.67 664.598 Q2207.01 665.278 2205.91 665.278 Q2204.86 665.278 2204.16 664.622 Q2203.45 663.943 2203.45 662.795 Q2203.45 660.054 2205.89 658.157 Q2208.35 656.26 2211.96 656.26 Q2215.52 656.26 2218.14 658.134 Q2220.79 660.008 2220.79 662.888 Q2220.79 665.723 2218.91 668.041 Q2217.04 670.36 2214.06 671.321 Q2217.72 672.047 2219.9 674.529 Q2222.07 676.989 2222.07 680.01 Q2222.07 683.758 2219.12 686.522 Q2216.17 689.262 2211.86 689.262 Q2207.88 689.262 2205.02 687.107 Q2202.17 684.952 2202.17 681.744 Z" fill="#000000" fill-rule="nonzero" fill-opacity="1" /><path clip-path="url(#clip140)" d="M2226.11 672.866 Q2226.11 665.816 2227.89 661.975 Q2230.37 656.26 2236.23 656.26 Q2237.47 656.26 2238.76 656.611 Q2240.07 656.939 2241.71 658.227 Q2243.37 659.516 2244.38 661.624 Q2246.3 665.699 2246.3 672.866 Q2246.3 679.87 2244.52 683.688 Q2241.92 689.262 2236.18 689.262 Q2234.02 689.262 2231.82 688.161 Q2229.64 687.06 2228.26 684.414 Q2226.11 680.455 2226.11 672.866 M2230.09 672.281 Q2230.09 679.518 2230.6 682.399 Q2231.19 685.515 2232.78 686.873 Q2234.4 688.208 2236.18 688.208 Q2238.1 688.208 2239.69 686.779 Q2241.31 685.327 2241.8 682.212 Q2242.34 679.144 2242.32 672.281 Q2242.32 665.605 2241.85 662.935 Q2241.21 659.82 2239.53 658.579 Q2237.87 657.314 2236.18 657.314 Q2235.55 657.314 2234.87 657.501 Q2234.21 657.689 2233.25 658.227 Q2232.29 658.766 2231.54 660.101 Q2230.82 661.436 2230.46 663.451 Q2230.09 666.051 2230.09 672.281 Z" fill="#000000" fill-rule="nonzero" fill-opacity="1" /><path clip-path="url(#clip140)" d="M2250.58 687.435 Q2249.86 686.662 2249.86 685.655 Q2249.86 684.648 2250.58 683.922 Q2251.31 683.172 2252.41 683.172 Q2253.46 683.172 2254.17 683.875 Q2254.89 684.554 2254.89 685.679 Q2254.89 686.779 2254.12 687.505 Q2253.37 688.208 2252.41 688.208 Q2251.31 688.208 2250.58 687.435 Z" fill="#000000" fill-rule="nonzero" fill-opacity="1" /><path clip-path="url(#clip140)" d="M2263.05 672.866 Q2263.05 665.816 2264.83 661.975 Q2267.32 656.26 2273.17 656.26 Q2274.41 656.26 2275.7 656.611 Q2277.01 656.939 2278.65 658.227 Q2280.32 659.516 2281.32 661.624 Q2283.24 665.699 2283.24 672.866 Q2283.24 679.87 2281.46 683.688 Q2278.86 689.262 2273.13 689.262 Q2270.97 689.262 2268.77 688.161 Q2266.59 687.06 2265.21 684.414 Q2263.05 680.455 2263.05 672.866 M2267.04 672.281 Q2267.04 679.518 2267.55 682.399 Q2268.14 685.515 2269.73 686.873 Q2271.35 688.208 2273.13 688.208 Q2275.05 688.208 2276.64 686.779 Q2278.26 685.327 2278.75 682.212 Q2279.29 679.144 2279.26 672.281 Q2279.26 665.605 2278.79 662.935 Q2278.16 659.82 2276.48 658.579 Q2274.81 657.314 2273.13 657.314 Q2272.49 657.314 2271.81 657.501 Q2271.16 657.689 2270.2 658.227 Q2269.24 658.766 2268.49 660.101 Q2267.76 661.436 2267.41 663.451 Q2267.04 666.051 2267.04 672.281 Z" fill="#000000" fill-rule="nonzero" fill-opacity="1" /><polyline clip-path="url(#clip140)" style="stroke:#e26f46; stroke-linecap:round; stroke-linejoin:round; stroke-width:4; stroke-opacity:1; fill:none" points="1871.81,731.22 2014.99,731.22 "/>
<path clip-path="url(#clip140)" d="M2067.83 728.196 Q2067.83 728.337 2067.64 728.876 L2063.84 739.228 Q2063.63 739.837 2063.42 739.954 Q2063.21 740.048 2062.35 740.048 L2040.14 740.048 Q2039.6 740.048 2039.39 740.025 Q2039.18 740.001 2039.02 739.884 Q2038.85 739.767 2038.85 739.509 Q2038.85 739.041 2039.02 738.83 Q2039.2 738.619 2039.41 738.596 Q2039.63 738.573 2040.14 738.573 Q2041.31 738.573 2042.01 738.502 Q2042.72 738.432 2043.16 738.338 Q2043.63 738.221 2043.87 737.893 Q2044.12 737.565 2044.24 737.284 Q2044.36 736.98 2044.52 736.301 L2050.94 710.536 Q2051.13 709.763 2051.13 709.646 Q2051.13 709.201 2050.85 709.084 Q2050.59 708.943 2049.84 708.873 L2048.01 708.779 Q2047.45 708.779 2047.21 708.756 Q2047 708.732 2046.84 708.615 Q2046.68 708.498 2046.68 708.24 Q2046.68 707.795 2046.84 707.585 Q2047.03 707.35 2047.17 707.327 Q2047.33 707.28 2047.59 707.28 L2053.96 707.421 L2061.06 707.28 Q2061.83 707.28 2061.83 707.866 Q2061.83 708.522 2061.5 708.662 Q2061.17 708.779 2060 708.779 Q2057.75 708.779 2056.72 709.013 Q2055.72 709.248 2055.44 709.646 Q2055.18 710.021 2054.92 711.028 L2048.43 736.933 Q2048.2 737.8 2048.2 738.034 Q2048.2 738.291 2048.32 738.385 Q2048.46 738.455 2048.83 738.502 Q2049.25 738.573 2049.88 738.573 L2054.38 738.573 Q2055.74 738.573 2056.93 738.362 Q2058.13 738.151 2059.04 737.846 Q2059.98 737.542 2060.82 736.98 Q2061.67 736.418 2062.25 735.926 Q2062.86 735.411 2063.45 734.614 Q2064.06 733.794 2064.41 733.232 Q2064.78 732.647 2065.2 731.71 Q2065.62 730.749 2065.84 730.211 Q2066.07 729.649 2066.42 728.688 Q2066.63 728.196 2066.7 728.056 Q2066.77 727.915 2066.89 727.798 Q2067.03 727.681 2067.24 727.681 Q2067.52 727.681 2067.66 727.845 Q2067.83 728.009 2067.83 728.196 Z" fill="#000000" fill-rule="nonzero" fill-opacity="1" /><path clip-path="url(#clip140)" d="M2106.3 731.551 Q2106.3 732.027 2106.09 732.125 Q2105.89 732.223 2105.24 732.223 Q2104.47 732.223 2103.99 732.289 Q2103.52 732.338 2103.22 732.42 Q2102.93 732.486 2102.75 732.715 Q2102.58 732.945 2102.52 733.141 Q2102.45 733.322 2102.34 733.765 L2097.88 751.652 Q2097.71 752.259 2097.71 752.472 Q2097.71 752.685 2097.84 752.816 Q2097.99 752.947 2098.35 753.013 Q2098.71 753.062 2098.99 753.079 Q2099.29 753.079 2099.89 753.079 Q2100.65 753.079 2100.76 753.21 Q2100.83 753.292 2100.83 753.439 Q2100.83 753.751 2100.7 753.915 Q2100.57 754.062 2100.45 754.095 Q2100.35 754.112 2100.19 754.112 Q2099.5 754.112 2098.09 754.062 Q2096.68 754.013 2095.99 754.013 L2091.83 754.112 Q2091.33 754.112 2091.33 753.702 Q2091.33 753.39 2091.47 753.259 Q2091.6 753.111 2091.74 753.095 Q2091.89 753.079 2092.27 753.079 Q2093.61 753.079 2094.19 752.931 Q2094.78 752.784 2094.94 752.521 Q2095.12 752.242 2095.32 751.488 L2100.12 732.256 L2100.09 732.256 L2086.53 753.505 L2086.43 753.653 Q2086.33 753.784 2086.3 753.833 Q2086.27 753.866 2086.17 753.964 Q2086.09 754.046 2085.99 754.079 Q2085.91 754.112 2085.79 754.112 Q2085.6 754.112 2085.48 753.98 Q2085.38 753.849 2085.35 753.751 Q2085.33 753.636 2085.28 753.341 L2082.4 732.518 L2082.37 732.518 L2077.79 750.816 Q2077.66 751.324 2077.66 751.587 Q2077.66 752.259 2078.14 752.669 Q2078.63 753.062 2079.94 753.079 Q2080.55 753.079 2080.55 753.439 Q2080.55 754.112 2079.94 754.112 Q2079.38 754.112 2078.22 754.062 Q2077.05 754.013 2076.48 754.013 Q2075.92 754.013 2074.79 754.062 Q2073.68 754.112 2073.14 754.112 Q2072.66 754.112 2072.66 753.702 Q2072.66 753.079 2073.27 753.079 Q2074.25 753.046 2074.92 752.849 Q2075.6 752.652 2075.97 752.275 Q2076.37 751.898 2076.55 751.521 Q2076.74 751.128 2076.89 750.554 L2081.15 733.453 Q2081.28 732.912 2081.28 732.83 Q2081.28 732.551 2081.12 732.453 Q2080.97 732.338 2080.55 732.289 Q2079.73 732.223 2079.1 732.223 Q2078.69 732.223 2078.53 732.207 Q2078.38 732.191 2078.25 732.109 Q2078.14 732.01 2078.14 731.813 Q2078.14 731.502 2078.27 731.371 Q2078.42 731.223 2078.58 731.207 Q2078.74 731.174 2079.14 731.174 L2083.74 731.174 Q2084.42 731.174 2084.56 731.289 Q2084.71 731.387 2084.78 731.945 L2087.4 750.947 L2099.66 731.813 Q2099.98 731.338 2100.14 731.256 Q2100.3 731.174 2100.96 731.174 L2105.4 731.174 Q2105.76 731.174 2105.91 731.19 Q2106.06 731.207 2106.17 731.289 Q2106.3 731.371 2106.3 731.551 Z" fill="#000000" fill-rule="nonzero" fill-opacity="1" /><path clip-path="url(#clip140)" d="M2131.35 739.47 Q2131.35 741.815 2130.51 744.143 Q2129.69 746.455 2128.25 748.357 Q2126.8 750.259 2124.97 751.734 Q2123.13 753.21 2120.98 754.03 Q2118.84 754.849 2116.74 754.849 Q2113.02 754.849 2110.57 752.406 Q2108.13 749.963 2108.13 745.881 Q2108.13 743.028 2109.41 740.192 Q2110.69 737.339 2112.72 735.224 Q2114.75 733.092 2117.43 731.764 Q2120.11 730.436 2122.77 730.436 Q2126.54 730.436 2128.94 732.945 Q2131.35 735.437 2131.35 739.47 M2128.35 738.159 Q2128.35 736.355 2127.84 734.994 Q2127.33 733.617 2126.48 732.83 Q2125.64 732.043 2124.64 731.666 Q2123.66 731.272 2122.57 731.272 Q2120.48 731.272 2118.23 732.633 Q2115.98 733.994 2114.31 736.519 Q2113.41 737.896 2112.75 739.552 Q2112.1 741.192 2111.8 742.651 Q2111.51 744.094 2111.38 745.11 Q2111.26 746.127 2111.26 746.832 Q2111.26 750.111 2112.83 752.046 Q2114.41 753.98 2116.93 753.98 Q2118.92 753.98 2120.85 752.816 Q2122.79 751.636 2124.12 749.947 Q2125.3 748.488 2126.16 746.734 Q2127.05 744.979 2127.49 743.372 Q2127.94 741.766 2128.13 740.47 Q2128.35 739.175 2128.35 738.159 Z" fill="#000000" fill-rule="nonzero" fill-opacity="1" /><path clip-path="url(#clip140)" d="M2151.91 732.764 Q2151.96 732.178 2152.87 732.178 L2182.27 732.178 Q2183.65 732.178 2183.67 732.717 Q2183.67 733.302 2182.36 733.279 L2153.2 733.279 Q2151.91 733.302 2151.91 732.764 M2151.91 723.395 Q2151.91 722.809 2152.92 722.833 L2182.22 722.833 Q2183.65 722.833 2183.67 723.395 Q2183.67 723.934 2182.46 723.934 L2152.87 723.934 Q2151.91 723.934 2151.91 723.395 Z" fill="#000000" fill-rule="nonzero" fill-opacity="1" /><path clip-path="url(#clip140)" d="M2202.17 732.319 Q2202.17 730.89 2202.94 730.351 Q2203.71 729.789 2204.53 729.789 Q2205.63 729.789 2206.26 730.492 Q2206.92 731.171 2206.92 732.131 Q2206.92 733.092 2206.26 733.794 Q2205.63 734.474 2204.53 734.474 Q2203.99 734.474 2203.71 734.38 Q2204.34 736.582 2206.26 738.174 Q2208.21 739.767 2210.76 739.767 Q2213.97 739.767 2215.89 736.652 Q2217.04 734.638 2217.04 730.07 Q2217.04 726.042 2216.17 724.027 Q2214.84 720.959 2212.1 720.959 Q2208.21 720.959 2205.91 724.308 Q2205.63 724.73 2205.3 724.753 Q2204.84 724.753 2204.72 724.496 Q2204.62 724.215 2204.62 723.488 L2204.62 709.294 Q2204.62 708.147 2205.09 708.147 Q2205.28 708.147 2205.68 708.287 Q2208.7 709.622 2212.05 709.646 Q2215.49 709.646 2218.58 708.24 Q2218.82 708.1 2218.96 708.1 Q2219.43 708.1 2219.45 708.639 Q2219.45 708.826 2219.05 709.388 Q2218.68 709.927 2217.86 710.653 Q2217.04 711.356 2215.98 712.035 Q2214.93 712.714 2213.38 713.183 Q2211.86 713.628 2210.18 713.628 Q2208.16 713.628 2206.1 712.995 L2206.1 722.341 Q2208.58 719.905 2212.19 719.905 Q2216.03 719.905 2218.68 722.997 Q2221.32 726.088 2221.32 730.398 Q2221.32 734.919 2218.19 738.01 Q2215.07 741.102 2210.86 741.102 Q2207.01 741.102 2204.58 738.362 Q2202.17 735.621 2202.17 732.319 Z" fill="#000000" fill-rule="nonzero" fill-opacity="1" /><path clip-path="url(#clip140)" d="M2226.11 724.706 Q2226.11 717.656 2227.89 713.815 Q2230.37 708.1 2236.23 708.1 Q2237.47 708.1 2238.76 708.451 Q2240.07 708.779 2241.71 710.067 Q2243.37 711.356 2244.38 713.464 Q2246.3 717.539 2246.3 724.706 Q2246.3 731.71 2244.52 735.528 Q2241.92 741.102 2236.18 741.102 Q2234.02 741.102 2231.82 740.001 Q2229.64 738.9 2228.26 736.254 Q2226.11 732.295 2226.11 724.706 M2230.09 724.121 Q2230.09 731.358 2230.6 734.239 Q2231.19 737.355 2232.78 738.713 Q2234.4 740.048 2236.18 740.048 Q2238.1 740.048 2239.69 738.619 Q2241.31 737.167 2241.8 734.052 Q2242.34 730.984 2242.32 724.121 Q2242.32 717.445 2241.85 714.775 Q2241.21 711.66 2239.53 710.419 Q2237.87 709.154 2236.18 709.154 Q2235.55 709.154 2234.87 709.341 Q2234.21 709.529 2233.25 710.067 Q2232.29 710.606 2231.54 711.941 Q2230.82 713.276 2230.46 715.291 Q2230.09 717.891 2230.09 724.121 Z" fill="#000000" fill-rule="nonzero" fill-opacity="1" /><path clip-path="url(#clip140)" d="M2250.58 739.275 Q2249.86 738.502 2249.86 737.495 Q2249.86 736.488 2250.58 735.762 Q2251.31 735.012 2252.41 735.012 Q2253.46 735.012 2254.17 735.715 Q2254.89 736.394 2254.89 737.519 Q2254.89 738.619 2254.12 739.345 Q2253.37 740.048 2252.41 740.048 Q2251.31 740.048 2250.58 739.275 Z" fill="#000000" fill-rule="nonzero" fill-opacity="1" /><path clip-path="url(#clip140)" d="M2263.05 724.706 Q2263.05 717.656 2264.83 713.815 Q2267.32 708.1 2273.17 708.1 Q2274.41 708.1 2275.7 708.451 Q2277.01 708.779 2278.65 710.067 Q2280.32 711.356 2281.32 713.464 Q2283.24 717.539 2283.24 724.706 Q2283.24 731.71 2281.46 735.528 Q2278.86 741.102 2273.13 741.102 Q2270.97 741.102 2268.77 740.001 Q2266.59 738.9 2265.21 736.254 Q2263.05 732.295 2263.05 724.706 M2267.04 724.121 Q2267.04 731.358 2267.55 734.239 Q2268.14 737.355 2269.73 738.713 Q2271.35 740.048 2273.13 740.048 Q2275.05 740.048 2276.64 738.619 Q2278.26 737.167 2278.75 734.052 Q2279.29 730.984 2279.26 724.121 Q2279.26 717.445 2278.79 714.775 Q2278.16 711.66 2276.48 710.419 Q2274.81 709.154 2273.13 709.154 Q2272.49 709.154 2271.81 709.341 Q2271.16 709.529 2270.2 710.067 Q2269.24 710.606 2268.49 711.941 Q2267.76 713.276 2267.41 715.291 Q2267.04 717.891 2267.04 724.121 Z" fill="#000000" fill-rule="nonzero" fill-opacity="1" /><polyline clip-path="url(#clip140)" style="stroke:#3da44d; stroke-linecap:round; stroke-linejoin:round; stroke-width:4; stroke-opacity:1; fill:none" points="1871.81,783.06 2014.99,783.06 "/>
<path clip-path="url(#clip140)" d="M2067.83 780.036 Q2067.83 780.177 2067.64 780.716 L2063.84 791.068 Q2063.63 791.677 2063.42 791.794 Q2063.21 791.888 2062.35 791.888 L2040.14 791.888 Q2039.6 791.888 2039.39 791.865 Q2039.18 791.841 2039.02 791.724 Q2038.85 791.607 2038.85 791.349 Q2038.85 790.881 2039.02 790.67 Q2039.2 790.459 2039.41 790.436 Q2039.63 790.413 2040.14 790.413 Q2041.31 790.413 2042.01 790.342 Q2042.72 790.272 2043.16 790.178 Q2043.63 790.061 2043.87 789.733 Q2044.12 789.405 2044.24 789.124 Q2044.36 788.82 2044.52 788.141 L2050.94 762.376 Q2051.13 761.603 2051.13 761.486 Q2051.13 761.041 2050.85 760.924 Q2050.59 760.783 2049.84 760.713 L2048.01 760.619 Q2047.45 760.619 2047.21 760.596 Q2047 760.572 2046.84 760.455 Q2046.68 760.338 2046.68 760.08 Q2046.68 759.635 2046.84 759.425 Q2047.03 759.19 2047.17 759.167 Q2047.33 759.12 2047.59 759.12 L2053.96 759.261 L2061.06 759.12 Q2061.83 759.12 2061.83 759.706 Q2061.83 760.362 2061.5 760.502 Q2061.17 760.619 2060 760.619 Q2057.75 760.619 2056.72 760.853 Q2055.72 761.088 2055.44 761.486 Q2055.18 761.861 2054.92 762.868 L2048.43 788.773 Q2048.2 789.64 2048.2 789.874 Q2048.2 790.131 2048.32 790.225 Q2048.46 790.295 2048.83 790.342 Q2049.25 790.413 2049.88 790.413 L2054.38 790.413 Q2055.74 790.413 2056.93 790.202 Q2058.13 789.991 2059.04 789.686 Q2059.98 789.382 2060.82 788.82 Q2061.67 788.258 2062.25 787.766 Q2062.86 787.251 2063.45 786.454 Q2064.06 785.634 2064.41 785.072 Q2064.78 784.487 2065.2 783.55 Q2065.62 782.589 2065.84 782.051 Q2066.07 781.489 2066.42 780.528 Q2066.63 780.036 2066.7 779.896 Q2066.77 779.755 2066.89 779.638 Q2067.03 779.521 2067.24 779.521 Q2067.52 779.521 2067.66 779.685 Q2067.83 779.849 2067.83 780.036 Z" fill="#000000" fill-rule="nonzero" fill-opacity="1" /><path clip-path="url(#clip140)" d="M2106.3 783.391 Q2106.3 783.867 2106.09 783.965 Q2105.89 784.063 2105.24 784.063 Q2104.47 784.063 2103.99 784.129 Q2103.52 784.178 2103.22 784.26 Q2102.93 784.326 2102.75 784.555 Q2102.58 784.785 2102.52 784.981 Q2102.45 785.162 2102.34 785.605 L2097.88 803.492 Q2097.71 804.099 2097.71 804.312 Q2097.71 804.525 2097.84 804.656 Q2097.99 804.787 2098.35 804.853 Q2098.71 804.902 2098.99 804.919 Q2099.29 804.919 2099.89 804.919 Q2100.65 804.919 2100.76 805.05 Q2100.83 805.132 2100.83 805.279 Q2100.83 805.591 2100.7 805.755 Q2100.57 805.902 2100.45 805.935 Q2100.35 805.952 2100.19 805.952 Q2099.5 805.952 2098.09 805.902 Q2096.68 805.853 2095.99 805.853 L2091.83 805.952 Q2091.33 805.952 2091.33 805.542 Q2091.33 805.23 2091.47 805.099 Q2091.6 804.951 2091.74 804.935 Q2091.89 804.919 2092.27 804.919 Q2093.61 804.919 2094.19 804.771 Q2094.78 804.624 2094.94 804.361 Q2095.12 804.082 2095.32 803.328 L2100.12 784.096 L2100.09 784.096 L2086.53 805.345 L2086.43 805.493 Q2086.33 805.624 2086.3 805.673 Q2086.27 805.706 2086.17 805.804 Q2086.09 805.886 2085.99 805.919 Q2085.91 805.952 2085.79 805.952 Q2085.6 805.952 2085.48 805.82 Q2085.38 805.689 2085.35 805.591 Q2085.33 805.476 2085.28 805.181 L2082.4 784.358 L2082.37 784.358 L2077.79 802.656 Q2077.66 803.164 2077.66 803.427 Q2077.66 804.099 2078.14 804.509 Q2078.63 804.902 2079.94 804.919 Q2080.55 804.919 2080.55 805.279 Q2080.55 805.952 2079.94 805.952 Q2079.38 805.952 2078.22 805.902 Q2077.05 805.853 2076.48 805.853 Q2075.92 805.853 2074.79 805.902 Q2073.68 805.952 2073.14 805.952 Q2072.66 805.952 2072.66 805.542 Q2072.66 804.919 2073.27 804.919 Q2074.25 804.886 2074.92 804.689 Q2075.6 804.492 2075.97 804.115 Q2076.37 803.738 2076.55 803.361 Q2076.74 802.968 2076.89 802.394 L2081.15 785.293 Q2081.28 784.752 2081.28 784.67 Q2081.28 784.391 2081.12 784.293 Q2080.97 784.178 2080.55 784.129 Q2079.73 784.063 2079.1 784.063 Q2078.69 784.063 2078.53 784.047 Q2078.38 784.031 2078.25 783.949 Q2078.14 783.85 2078.14 783.653 Q2078.14 783.342 2078.27 783.211 Q2078.42 783.063 2078.58 783.047 Q2078.74 783.014 2079.14 783.014 L2083.74 783.014 Q2084.42 783.014 2084.56 783.129 Q2084.71 783.227 2084.78 783.785 L2087.4 802.787 L2099.66 783.653 Q2099.98 783.178 2100.14 783.096 Q2100.3 783.014 2100.96 783.014 L2105.4 783.014 Q2105.76 783.014 2105.91 783.03 Q2106.06 783.047 2106.17 783.129 Q2106.3 783.211 2106.3 783.391 Z" fill="#000000" fill-rule="nonzero" fill-opacity="1" /><path clip-path="url(#clip140)" d="M2131.35 791.31 Q2131.35 793.655 2130.51 795.983 Q2129.69 798.295 2128.25 800.197 Q2126.8 802.099 2124.97 803.574 Q2123.13 805.05 2120.98 805.87 Q2118.84 806.689 2116.74 806.689 Q2113.02 806.689 2110.57 804.246 Q2108.13 801.803 2108.13 797.721 Q2108.13 794.868 2109.41 792.032 Q2110.69 789.179 2112.72 787.064 Q2114.75 784.932 2117.43 783.604 Q2120.11 782.276 2122.77 782.276 Q2126.54 782.276 2128.94 784.785 Q2131.35 787.277 2131.35 791.31 M2128.35 789.999 Q2128.35 788.195 2127.84 786.834 Q2127.33 785.457 2126.48 784.67 Q2125.64 783.883 2124.64 783.506 Q2123.66 783.112 2122.57 783.112 Q2120.48 783.112 2118.23 784.473 Q2115.98 785.834 2114.31 788.359 Q2113.41 789.736 2112.75 791.392 Q2112.1 793.032 2111.8 794.491 Q2111.51 795.934 2111.38 796.95 Q2111.26 797.967 2111.26 798.672 Q2111.26 801.951 2112.83 803.886 Q2114.41 805.82 2116.93 805.82 Q2118.92 805.82 2120.85 804.656 Q2122.79 803.476 2124.12 801.787 Q2125.3 800.328 2126.16 798.574 Q2127.05 796.819 2127.49 795.212 Q2127.94 793.606 2128.13 792.31 Q2128.35 791.015 2128.35 789.999 Z" fill="#000000" fill-rule="nonzero" fill-opacity="1" /><path clip-path="url(#clip140)" d="M2151.91 784.604 Q2151.96 784.018 2152.87 784.018 L2182.27 784.018 Q2183.65 784.018 2183.67 784.557 Q2183.67 785.142 2182.36 785.119 L2153.2 785.119 Q2151.91 785.142 2151.91 784.604 M2151.91 775.235 Q2151.91 774.649 2152.92 774.673 L2182.22 774.673 Q2183.65 774.673 2183.67 775.235 Q2183.67 775.774 2182.46 775.774 L2152.87 775.774 Q2151.91 775.774 2151.91 775.235 Z" fill="#000000" fill-rule="nonzero" fill-opacity="1" /><path clip-path="url(#clip140)" d="M2202.17 764.507 L2202.17 763.008 Q2207.93 763.008 2210.9 759.94 Q2211.72 759.94 2211.86 760.127 Q2212 760.315 2212 761.181 L2212 788.094 Q2212 789.522 2212.71 789.968 Q2213.41 790.413 2216.48 790.413 L2218 790.413 L2218 791.888 Q2216.31 791.748 2210.22 791.748 Q2204.13 791.748 2202.47 791.888 L2202.47 790.413 L2203.99 790.413 Q2207.01 790.413 2207.74 789.991 Q2208.47 789.546 2208.47 788.094 L2208.47 763.243 Q2205.96 764.507 2202.17 764.507 Z" fill="#000000" fill-rule="nonzero" fill-opacity="1" /><path clip-path="url(#clip140)" d="M2220.31 776.546 Q2220.31 769.496 2222.09 765.655 Q2224.58 759.94 2230.43 759.94 Q2231.67 759.94 2232.96 760.291 Q2234.27 760.619 2235.91 761.907 Q2237.57 763.196 2238.58 765.304 Q2240.5 769.379 2240.5 776.546 Q2240.5 783.55 2238.72 787.368 Q2236.12 792.942 2230.38 792.942 Q2228.23 792.942 2226.03 791.841 Q2223.85 790.74 2222.47 788.094 Q2220.31 784.135 2220.31 776.546 M2224.29 775.961 Q2224.29 783.198 2224.81 786.079 Q2225.39 789.195 2226.99 790.553 Q2228.6 791.888 2230.38 791.888 Q2232.3 791.888 2233.9 790.459 Q2235.51 789.007 2236.01 785.892 Q2236.54 782.824 2236.52 775.961 Q2236.52 769.285 2236.05 766.615 Q2235.42 763.5 2233.73 762.259 Q2232.07 760.994 2230.38 760.994 Q2229.75 760.994 2229.07 761.181 Q2228.42 761.369 2227.46 761.907 Q2226.5 762.446 2225.75 763.781 Q2225.02 765.116 2224.67 767.131 Q2224.29 769.731 2224.29 775.961 Z" fill="#000000" fill-rule="nonzero" fill-opacity="1" /><path clip-path="url(#clip140)" d="M2244.25 776.546 Q2244.25 769.496 2246.03 765.655 Q2248.52 759.94 2254.37 759.94 Q2255.61 759.94 2256.9 760.291 Q2258.21 760.619 2259.85 761.907 Q2261.52 763.196 2262.52 765.304 Q2264.44 769.379 2264.44 776.546 Q2264.44 783.55 2262.66 787.368 Q2260.06 792.942 2254.33 792.942 Q2252.17 792.942 2249.97 791.841 Q2247.79 790.74 2246.41 788.094 Q2244.25 784.135 2244.25 776.546 M2248.24 775.961 Q2248.24 783.198 2248.75 786.079 Q2249.34 789.195 2250.93 790.553 Q2252.55 791.888 2254.33 791.888 Q2256.25 791.888 2257.84 790.459 Q2259.46 789.007 2259.95 785.892 Q2260.49 782.824 2260.46 775.961 Q2260.46 769.285 2259.99 766.615 Q2259.36 763.5 2257.68 762.259 Q2256.01 760.994 2254.33 760.994 Q2253.69 760.994 2253.01 761.181 Q2252.36 761.369 2251.4 761.907 Q2250.44 762.446 2249.69 763.781 Q2248.96 765.116 2248.61 767.131 Q2248.24 769.731 2248.24 775.961 Z" fill="#000000" fill-rule="nonzero" fill-opacity="1" /><path clip-path="url(#clip140)" d="M2268.2 776.546 Q2268.2 769.496 2269.98 765.655 Q2272.46 759.94 2278.31 759.94 Q2279.56 759.94 2280.84 760.291 Q2282.16 760.619 2283.8 761.907 Q2285.46 763.196 2286.47 765.304 Q2288.39 769.379 2288.39 776.546 Q2288.39 783.55 2286.61 787.368 Q2284.01 792.942 2278.27 792.942 Q2276.11 792.942 2273.91 791.841 Q2271.73 790.74 2270.35 788.094 Q2268.2 784.135 2268.2 776.546 M2272.18 775.961 Q2272.18 783.198 2272.69 786.079 Q2273.28 789.195 2274.87 790.553 Q2276.49 791.888 2278.27 791.888 Q2280.19 791.888 2281.78 790.459 Q2283.4 789.007 2283.89 785.892 Q2284.43 782.824 2284.4 775.961 Q2284.4 769.285 2283.94 766.615 Q2283.3 763.5 2281.62 762.259 Q2279.95 760.994 2278.27 760.994 Q2277.64 760.994 2276.96 761.181 Q2276.3 761.369 2275.34 761.907 Q2274.38 762.446 2273.63 763.781 Q2272.9 765.116 2272.55 767.131 Q2272.18 769.731 2272.18 775.961 Z" fill="#000000" fill-rule="nonzero" fill-opacity="1" /><path clip-path="url(#clip140)" d="M2292.67 791.115 Q2291.95 790.342 2291.95 789.335 Q2291.95 788.328 2292.67 787.602 Q2293.4 786.852 2294.5 786.852 Q2295.55 786.852 2296.26 787.555 Q2296.98 788.234 2296.98 789.359 Q2296.98 790.459 2296.21 791.185 Q2295.46 791.888 2294.5 791.888 Q2293.4 791.888 2292.67 791.115 Z" fill="#000000" fill-rule="nonzero" fill-opacity="1" /><path clip-path="url(#clip140)" d="M2305.14 776.546 Q2305.14 769.496 2306.92 765.655 Q2309.41 759.94 2315.26 759.94 Q2316.5 759.94 2317.79 760.291 Q2319.1 760.619 2320.74 761.907 Q2322.41 763.196 2323.41 765.304 Q2325.33 769.379 2325.33 776.546 Q2325.33 783.55 2323.55 787.368 Q2320.95 792.942 2315.21 792.942 Q2313.06 792.942 2310.86 791.841 Q2308.68 790.74 2307.3 788.094 Q2305.14 784.135 2305.14 776.546 M2309.13 775.961 Q2309.13 783.198 2309.64 786.079 Q2310.23 789.195 2311.82 790.553 Q2313.43 791.888 2315.21 791.888 Q2317.14 791.888 2318.73 790.459 Q2320.34 789.007 2320.84 785.892 Q2321.38 782.824 2321.35 775.961 Q2321.35 769.285 2320.88 766.615 Q2320.25 763.5 2318.56 762.259 Q2316.9 760.994 2315.21 760.994 Q2314.58 760.994 2313.9 761.181 Q2313.25 761.369 2312.29 761.907 Q2311.33 762.446 2310.58 763.781 Q2309.85 765.116 2309.5 767.131 Q2309.13 769.731 2309.13 775.961 Z" fill="#000000" fill-rule="nonzero" fill-opacity="1" /></svg>
